<?xml version="1.0" encoding="UTF-8" standalone="no"?>
<!DOCTYPE svg PUBLIC "-//W3C//DTD SVG 1.1//EN" "http://www.w3.org/Graphics/SVG/1.1/DTD/svg11.dtd">
<svg xmlns="http://www.w3.org/2000/svg" version="1.1" viewBox="0.00 0.00 800.00 236.00">
<path fill="white" d="
  M 145.44 28.50
  Q 145.09 28.55 144.80 28.66
  Q 144.56 28.75 144.33 29.04
  Q 139.37 35.31 131.62 36.59
  A 0.41 0.40 -60.3 0 1 131.41 35.81
  C 134.33 34.65 143.14 30.39 144.26 27.39
  Q 144.43 26.92 144.92 26.78
  Q 145.99 26.48 146.02 27.62
  A 0.55 0.55 0.0 0 0 147.06 27.86
  L 147.81 26.46
  A 0.52 0.52 0.0 0 0 147.48 25.71
  Q 146.25 25.39 146.14 24.26
  A 0.45 0.45 0.0 0 1 146.70 23.78
  L 148.00 24.13
  Q 148.67 24.31 148.44 23.65
  L 148.02 22.51
  Q 147.83 21.96 148.31 21.63
  Q 149.45 20.87 149.37 19.44
  A 1.02 0.87 -53.6 0 1 151.22 19.01
  Q 151.33 20.25 150.76 21.21
  A 0.56 0.56 0.0 0 0 150.98 21.98
  L 151.39 22.20
  A 0.42 0.42 0.0 0 1 151.50 22.86
  L 150.35 24.13
  Q 149.68 24.87 150.68 24.76
  Q 151.84 24.63 152.21 25.64
  Q 152.43 26.25 151.78 26.25
  L 150.97 26.25
  A 1.34 1.34 0.0 0 0 149.71 28.05
  L 151.30 32.41
  A 0.93 0.91 60.3 0 1 151.03 33.43
  L 147.02 36.75
  A 0.53 0.53 0.0 0 1 146.20 36.57
  L 143.98 31.89
  A 0.86 0.86 0.0 0 1 144.08 30.99
  L 145.69 28.92
  Q 146.09 28.40 145.44 28.50
  Z
  M 148.64 31.23
  A 0.08 0.08 0.0 0 0 148.72 31.20
  Q 149.59 29.85 148.27 28.95
  A 0.62 0.62 0.0 0 0 147.38 29.17
  L 146.61 30.60
  Q 146.34 31.10 146.91 31.01
  Q 147.62 30.90 148.64 31.23
  Z
  M 148.24 32.20
  L 147.27 31.95
  A 0.93 0.93 0.0 0 0 146.52 33.62
  Q 147.87 34.55 148.66 33.25
  A 0.71 0.70 -67.0 0 0 148.24 32.20
  Z"
/>
<path fill="white" d="
  M 109.91 23.98
  L 109.22 23.38
  Q 108.73 22.95 109.26 22.59
  L 110.00 22.09
  A 0.59 0.58 56.5 0 0 110.16 21.29
  Q 109.63 20.48 109.70 19.34
  A 0.87 0.87 0.0 0 1 111.44 19.41
  Q 111.39 21.15 112.68 22.22
  Q 113.00 22.48 112.81 22.86
  L 112.25 24.01
  Q 111.73 25.05 112.76 24.50
  L 113.48 24.12
  Q 114.24 23.71 114.35 24.56
  L 114.40 24.89
  Q 114.49 25.61 113.81 25.88
  Q 113.51 25.99 113.17 26.04
  A 0.77 0.77 0.0 0 0 112.67 27.30
  L 116.33 31.70
  A 0.65 0.65 0.0 0 1 116.40 32.45
  L 113.78 36.96
  A 0.49 0.49 0.0 0 1 113.02 37.07
  L 109.13 33.47
  A 1.00 0.99 32.9 0 1 108.89 32.37
  L 110.71 27.89
  Q 110.92 27.39 110.58 26.96
  Q 110.01 26.23 108.93 26.56
  A 0.56 0.56 0.0 0 1 108.48 25.55
  L 109.85 24.74
  A 0.47 0.47 0.0 0 0 109.91 23.98
  Z
  M 112.92 32.76
  L 111.91 32.53
  A 0.46 0.46 0.0 0 0 111.49 33.32
  L 112.65 34.41
  A 0.66 0.66 0.0 0 0 113.74 34.07
  Q 114.27 31.65 112.94 29.53
  A 0.63 0.63 0.0 0 0 111.96 29.42
  L 111.23 30.14
  A 0.72 0.71 -78.4 0 0 112.00 31.31
  Q 112.60 31.07 113.19 31.46
  Q 113.47 31.65 113.49 31.98
  L 113.51 32.25
  Q 113.56 32.91 112.92 32.76
  Z"
/>
<path fill="white" d="
  M 129.30 36.74
  A 0.30 0.30 0.0 0 1 129.12 37.31
  Q 124.31 36.53 120.22 33.71
  C 118.45 32.49 117.06 30.36 115.11 28.91
  Q 114.70 28.61 114.65 28.10
  Q 114.63 27.89 114.67 27.69
  Q 114.78 27.12 115.27 27.41
  C 116.68 28.22 117.35 29.63 118.58 30.51
  Q 123.16 33.82 129.30 36.74
  Z"
/>
<path fill="white" d="
  M 160.76 42.69
  C 157.71 40.40 153.85 36.68 152.94 33.52
  Q 152.08 30.57 151.25 29.26
  Q 151.01 28.88 151.24 28.49
  L 151.41 28.21
  A 0.55 0.54 39.6 0 1 152.29 28.13
  Q 152.99 28.92 153.01 29.98
  Q 153.02 30.47 153.24 30.91
  Q 156.35 36.90 161.02 41.82
  Q 161.26 42.08 161.28 42.30
  Q 161.29 42.48 161.21 42.61
  Q 161.03 42.90 160.76 42.69
  Z"
/>
<path fill="white" d="
  M 107.53 28.83
  A 0.67 0.67 0.0 0 1 108.77 28.73
  Q 109.41 30.00 108.40 30.76
  Q 108.01 31.06 107.86 31.52
  Q 105.51 38.78 99.02 42.81
  A 0.36 0.36 0.0 0 1 98.57 42.25
  C 102.42 38.41 105.84 34.12 107.53 28.83
  Z"
/>
<path fill="white" d="
  M 185.76 39.55
  Q 186.54 40.00 186.95 40.65
  Q 187.54 41.58 186.48 41.30
  L 185.35 41.01
  Q 183.87 40.62 183.72 42.14
  L 183.24 47.21
  A 0.74 0.73 84.3 0 1 182.71 47.86
  L 177.75 49.33
  Q 177.24 49.48 177.20 48.94
  L 176.89 43.65
  Q 176.86 43.08 177.36 42.80
  L 179.10 41.86
  Q 179.64 41.56 179.26 41.08
  Q 178.96 40.71 178.33 41.08
  Q 171.24 45.33 163.56 43.25
  A 0.33 0.33 0.0 0 1 163.61 42.60
  C 169.20 42.01 173.75 42.31 179.51 39.29
  A 0.51 0.51 0.0 0 1 180.25 39.74
  L 180.25 40.24
  Q 180.25 40.73 180.71 40.92
  Q 181.81 41.35 182.34 40.30
  Q 182.79 39.40 181.95 38.84
  Q 181.50 38.54 181.50 38.00
  L 181.50 37.44
  A 0.54 0.53 17.2 0 1 182.34 37.00
  L 183.51 37.79
  A 0.34 0.34 0.0 0 0 184.03 37.41
  Q 183.57 36.02 184.73 35.76
  Q 185.24 35.64 185.62 35.28
  L 187.43 33.55
  Q 188.12 32.89 188.24 33.84
  Q 188.41 35.27 187.27 36.08
  Q 186.80 36.41 187.07 36.92
  L 187.37 37.48
  A 0.64 0.63 66.5 0 1 187.02 38.38
  L 185.84 38.79
  Q 184.97 39.09 185.76 39.55
  Z
  M 180.83 44.21
  L 181.44 44.82
  Q 181.66 45.03 181.83 44.78
  Q 182.51 43.74 181.78 42.59
  A 1.19 1.19 0.0 0 0 179.63 43.52
  Q 179.77 44.10 180.18 44.01
  Q 180.56 43.93 180.83 44.21
  Z
  M 180.32 45.45
  L 179.64 44.77
  A 0.63 0.63 0.0 0 0 178.57 45.12
  Q 178.25 47.26 180.23 46.97
  A 0.81 0.79 -83.2 0 0 180.88 46.45
  Q 181.20 45.61 180.41 45.49
  A 0.23 0.22 -19.7 0 1 180.32 45.45
  Z"
/>
<path fill="white" d="
  M 77.87 40.81
  L 83.07 43.54
  A 0.88 0.87 16.3 0 1 83.54 44.39
  L 83.19 49.30
  Q 83.13 50.11 82.37 49.84
  L 77.20 47.97
  A 0.78 0.78 0.0 0 1 76.71 47.07
  Q 76.91 46.21 76.49 45.45
  A 0.47 0.47 0.0 0 0 75.61 45.77
  Q 77.13 53.86 72.16 60.42
  A 0.32 0.32 0.0 0 1 71.61 60.10
  Q 75.08 52.34 74.52 43.91
  A 0.41 0.41 0.0 0 1 75.05 43.49
  L 76.30 43.86
  Q 77.02 44.07 76.80 43.36
  L 76.23 41.58
  A 0.45 0.45 0.0 0 0 75.60 41.32
  L 74.33 41.97
  A 0.62 0.61 -0.2 0 1 73.50 41.15
  L 74.27 39.63
  A 0.42 0.42 0.0 0 0 74.01 39.04
  Q 72.71 38.69 73.29 37.24
  Q 73.50 36.74 73.07 36.41
  Q 72.19 35.75 72.21 34.56
  A 0.72 0.72 0.0 0 1 73.61 34.35
  Q 74.20 36.13 76.02 36.32
  Q 76.66 36.38 76.53 37.01
  L 76.28 38.24
  A 0.31 0.31 0.0 0 0 76.72 38.58
  L 78.25 37.83
  A 0.45 0.45 0.0 0 1 78.79 38.52
  L 77.68 39.84
  Q 77.18 40.44 77.87 40.81
  Z
  M 80.57 45.58
  L 79.90 45.94
  A 0.83 0.83 0.0 0 0 80.18 47.49
  Q 81.64 47.68 81.74 46.34
  Q 81.77 45.91 81.51 45.57
  L 79.95 43.50
  A 1.07 1.07 0.0 0 0 78.12 43.71
  Q 77.83 44.36 78.18 45.06
  Q 78.48 45.69 78.95 45.17
  Q 79.35 44.72 79.75 44.55
  A 0.73 0.58 13.0 0 1 80.57 45.58
  Z"
/>
<path fill="white" d="
  M 117.71 37.08
  Q 117.32 37.77 116.42 37.94
  A 0.99 0.82 -57.6 0 1 116.20 36.15
  Q 118.13 35.23 120.30 35.86
  A 0.70 0.70 0.0 0 1 120.28 37.21
  Q 119.25 37.46 118.24 36.93
  Q 117.90 36.75 117.71 37.08
  Z"
/>
<path fill="white" d="
  M 141.65 36.84
  Q 141.74 36.93 141.77 37.06
  Q 141.83 37.40 141.50 37.31
  L 139.56 36.82
  A 0.60 0.60 0.0 0 1 139.57 35.66
  Q 141.94 35.08 143.98 36.19
  Q 144.41 36.43 144.38 36.92
  Q 144.31 37.81 143.82 37.90
  Q 143.53 37.95 143.16 37.60
  Q 142.57 37.04 141.94 36.58
  A 0.21 0.18 -0.7 0 0 141.65 36.84
  Z"
/>
<path fill="white" d="
  M 150.80 38.77
  Q 149.78 38.81 148.90 38.28
  A 0.70 0.70 0.0 0 1 149.18 36.99
  Q 151.63 36.70 153.64 38.28
  A 0.50 0.50 0.0 0 1 153.50 39.15
  Q 152.47 39.53 151.65 39.01
  Q 151.27 38.76 150.80 38.77
  Z"
/>
<path fill="white" d="
  M 109.01 38.29
  Q 108.89 39.91 107.23 40.16
  A 0.84 0.83 25.8 0 1 106.69 38.61
  L 108.17 37.76
  Q 109.08 37.24 109.01 38.29
  Z"
/>
<path fill="white" d="
  M 109.16 38.42
  Q 109.95 37.43 111.29 37.67
  A 0.62 0.62 0.0 0 1 111.34 38.88
  L 109.75 39.32
  A 0.57 0.57 0.0 0 1 109.16 38.42
  Z"
/>
<path fill="white" d="
  M 159.79 45.50
  L 158.13 46.52
  Q 157.69 46.79 157.57 46.29
  L 157.22 44.92
  Q 157.07 44.35 156.65 44.75
  L 155.64 45.70
  A 0.52 0.52 0.0 0 1 154.77 45.34
  L 154.72 44.33
  A 0.47 0.47 0.0 0 0 154.00 43.96
  L 152.79 44.72
  A 0.51 0.51 0.0 0 1 152.00 44.29
  L 152.00 43.56
  A 0.49 0.48 72.2 0 0 151.23 43.16
  L 150.00 44.05
  A 0.41 0.40 -21.9 0 1 149.36 43.78
  L 149.15 42.24
  Q 149.07 41.68 148.69 42.09
  L 147.48 43.39
  A 0.54 0.53 60.9 0 1 146.56 43.12
  L 146.37 42.15
  Q 146.22 41.39 145.62 41.89
  L 144.57 42.76
  A 0.48 0.47 -27.3 0 1 143.81 42.52
  L 143.56 41.56
  Q 143.32 40.63 142.72 41.37
  L 142.08 42.15
  Q 141.51 42.85 141.17 42.01
  L 140.80 41.12
  A 0.46 0.46 0.0 0 0 140.08 40.93
  L 139.02 41.77
  Q 138.47 42.21 138.23 41.56
  L 137.99 40.94
  A 0.52 0.51 -31.9 0 0 137.15 40.75
  L 136.06 41.77
  A 0.50 0.50 0.0 0 1 135.24 41.26
  Q 135.39 40.71 134.96 40.33
  Q 134.57 39.99 134.26 40.40
  L 133.38 41.55
  A 0.46 0.46 0.0 0 1 132.60 41.47
  L 132.06 40.38
  A 0.46 0.46 0.0 0 0 131.24 40.35
  L 130.63 41.41
  Q 130.21 42.15 129.79 41.41
  L 129.33 40.63
  A 0.57 0.57 0.0 0 0 128.33 40.64
  L 127.90 41.43
  A 0.41 0.41 0.0 0 1 127.22 41.50
  L 126.31 40.39
  A 0.40 0.40 0.0 0 0 125.65 40.46
  L 125.13 41.48
  A 0.52 0.52 0.0 0 1 124.29 41.59
  L 123.46 40.68
  Q 122.95 40.12 122.69 40.83
  L 122.24 42.07
  A 0.42 0.42 0.0 0 1 121.47 42.13
  L 120.86 40.99
  A 0.55 0.55 0.0 0 0 119.85 41.08
  L 119.43 42.34
  A 0.38 0.38 0.0 0 1 118.79 42.48
  L 117.81 41.44
  A 0.34 0.33 37.5 0 0 117.27 41.51
  L 116.59 42.74
  A 0.44 0.44 0.0 0 1 115.82 42.74
  Q 115.38 41.93 114.49 41.99
  Q 114.00 42.03 114.00 42.52
  L 114.00 42.99
  Q 114.00 44.13 113.20 43.32
  L 112.42 42.55
  Q 111.78 41.90 111.52 42.78
  L 111.17 43.94
  A 0.47 0.47 0.0 0 1 110.37 44.12
  L 109.62 43.26
  A 0.46 0.46 0.0 0 0 108.82 43.45
  L 108.54 44.54
  Q 108.31 45.40 107.62 44.85
  L 106.65 44.08
  A 0.38 0.38 0.0 0 0 106.05 44.28
  L 105.81 45.19
  Q 105.65 45.81 105.07 45.53
  L 104.10 45.07
  Q 103.39 44.73 103.20 45.49
  L 102.93 46.57
  Q 102.80 47.10 102.40 46.73
  L 101.37 45.77
  A 0.45 0.45 0.0 0 0 100.62 46.02
  L 100.33 47.59
  A 0.33 0.32 -67.0 0 1 99.82 47.80
  L 98.72 47.01
  A 0.46 0.45 -72.4 0 0 98.00 47.39
  L 98.00 48.22
  Q 98.00 48.93 97.33 48.72
  Q 96.09 48.35 95.22 47.52
  L 95.60 45.53
  A 0.43 0.43 0.0 0 1 96.27 45.25
  L 97.51 46.09
  A 0.47 0.47 0.0 0 0 98.24 45.64
  L 98.18 45.16
  Q 98.06 44.30 98.91 44.47
  L 100.31 44.75
  A 0.58 0.57 5.8 0 0 101.00 44.19
  L 101.00 43.62
  A 0.49 0.48 -76.0 0 1 101.71 43.19
  L 102.97 43.87
  Q 103.56 44.19 103.65 43.52
  L 103.80 42.39
  A 0.52 0.52 0.0 0 1 104.69 42.10
  L 105.66 43.14
  Q 106.13 43.64 106.27 42.97
  L 106.57 41.46
  Q 106.74 40.61 107.41 41.16
  L 108.52 42.08
  Q 108.88 42.38 109.04 41.94
  L 109.42 40.89
  A 0.56 0.56 0.0 0 1 110.21 40.59
  L 110.60 40.81
  Q 111.40 41.23 111.86 40.46
  L 112.14 39.98
  A 0.67 0.67 0.0 0 1 113.12 39.80
  L 114.10 40.59
  Q 114.62 41.00 114.83 40.38
  L 115.12 39.52
  Q 115.32 38.95 115.82 39.29
  L 116.83 39.96
  Q 117.42 40.36 117.76 39.72
  L 118.19 38.88
  Q 118.56 38.18 118.99 38.84
  L 119.52 39.66
  A 0.55 0.55 0.0 0 0 120.50 39.55
  L 120.90 38.46
  A 0.46 0.46 0.0 0 1 121.66 38.29
  L 122.54 39.17
  Q 122.97 39.59 123.32 39.11
  L 123.95 38.28
  Q 124.42 37.64 124.90 38.28
  L 125.46 39.03
  A 0.53 0.53 0.0 0 0 126.35 38.98
  L 126.83 38.15
  A 0.52 0.51 -48.6 0 1 127.68 38.09
  L 128.37 39.02
  A 0.49 0.48 42.4 0 0 129.17 38.99
  L 129.83 37.93
  A 0.44 0.44 0.0 0 1 130.54 37.90
  L 131.41 39.02
  A 0.44 0.44 0.0 0 0 132.14 38.96
  L 132.70 37.91
  A 0.48 0.48 0.0 0 1 133.51 37.85
  L 134.28 38.85
  A 0.52 0.51 45.1 0 0 135.09 38.86
  L 135.74 38.02
  Q 136.11 37.54 136.47 38.02
  L 137.16 38.94
  A 0.64 0.64 0.0 0 0 138.12 39.01
  L 138.80 38.33
  Q 139.24 37.89 139.56 38.42
  L 140.07 39.27
  Q 140.46 39.91 140.99 39.38
  L 141.63 38.75
  Q 142.17 38.21 142.50 38.89
  L 142.92 39.77
  A 0.50 0.50 0.0 0 0 143.78 39.83
  Q 144.25 39.14 145.15 39.26
  Q 145.75 39.34 145.75 39.95
  Q 145.75 40.10 145.75 40.24
  A 0.47 0.47 0.0 0 0 146.55 40.57
  L 147.39 39.73
  Q 147.95 39.17 148.23 39.91
  L 148.61 40.90
  A 0.57 0.56 -27.5 0 0 149.46 41.16
  L 150.42 40.51
  A 0.38 0.37 -25.1 0 1 150.99 40.71
  L 151.29 41.72
  Q 151.56 42.65 152.29 42.02
  L 153.05 41.37
  A 0.54 0.53 -47.8 0 1 153.71 41.33
  Q 154.08 41.59 153.99 42.06
  A 0.64 0.64 0.0 0 0 154.90 42.77
  L 156.14 42.16
  A 0.52 0.51 -18.6 0 1 156.87 42.52
  L 157.03 43.35
  A 0.41 0.41 0.0 0 0 157.56 43.66
  L 158.86 43.20
  Q 159.70 42.91 159.73 43.80
  L 159.79 45.50
  Z"
/>
<path fill="white" d="
  M 82.23 41.52
  A 0.85 0.01 4.3 0 0 81.41 41.45
  Q 80.25 41.36 80.06 40.58
  Q 79.90 39.91 80.57 39.75
  Q 81.57 39.52 82.18 40.30
  A 1.34 1.32 77.5 0 0 82.89 40.76
  Q 85.37 41.41 87.85 41.98
  C 90.60 42.62 93.96 42.44 97.05 42.90
  A 0.26 0.26 0.0 0 1 97.08 43.41
  Q 89.25 45.45 82.23 41.52
  Z"
/>
<path fill="white" d="
  M 185.73 45.69
  Q 186.29 52.94 189.06 59.66
  Q 189.23 60.07 188.82 60.24
  Q 188.54 60.35 188.40 60.12
  Q 185.97 56.38 184.92 52.06
  C 184.27 49.38 184.78 46.56 184.51 43.68
  A 0.71 0.71 0.0 0 1 185.77 43.16
  Q 186.63 44.19 186.01 44.88
  Q 185.70 45.23 185.73 45.69
  Z"
/>
<path fill="white" d="
  M 159.79 45.50
  Q 160.60 44.50 161.59 44.26
  Q 162.25 44.09 162.25 44.77
  L 162.25 45.54
  Q 162.25 46.46 163.07 46.05
  L 164.34 45.44
  A 0.44 0.44 0.0 0 1 164.96 45.73
  L 165.23 46.91
  Q 165.36 47.44 165.85 47.20
  L 166.93 46.67
  Q 167.42 46.43 167.60 46.95
  Q 168.41 49.27 165.97 49.95
  Q 165.28 50.14 165.26 49.43
  L 165.22 48.36
  Q 165.20 47.67 164.61 48.04
  L 163.22 48.92
  A 0.42 0.42 0.0 0 1 162.58 48.47
  L 162.78 47.56
  A 0.52 0.52 0.0 0 0 162.04 46.98
  L 160.82 47.58
  Q 160.24 47.87 160.12 47.23
  L 159.79 45.50
  Z"
/>
<path fill="white" d="
  M 87.11 48.22
  Q 86.33 49.21 85.32 49.07
  A 0.90 0.90 0.0 0 1 85.03 47.38
  L 88.59 45.56
  A 0.64 0.64 0.0 0 1 89.42 46.49
  Q 88.80 47.40 87.76 47.77
  A 1.42 1.41 -79.5 0 0 87.11 48.22
  Z"
/>
<path fill="white" d="
  M 174.99 48.93
  A 0.26 0.26 0.0 0 1 174.64 49.02
  L 171.41 47.10
  A 1.14 0.68 30.8 0 1 170.78 45.93
  L 170.93 45.67
  A 1.14 0.68 30.8 0 1 172.26 45.67
  L 175.49 47.60
  A 0.26 0.26 0.0 0 1 175.58 47.95
  L 174.99 48.93
  Z"
/>
<path fill="white" d="
  M 95.22 47.52
  L 95.47 49.57
  Q 95.56 50.30 94.84 50.11
  Q 92.58 49.50 93.05 47.12
  Q 93.16 46.56 93.67 46.80
  L 95.22 47.52
  Z"
/>
<path fill="white" d="
  M 90.35 49.88
  L 90.32 48.66
  Q 90.30 47.76 91.15 48.04
  Q 93.58 48.82 92.77 50.94
  Q 92.55 51.54 91.98 51.24
  L 91.02 50.76
  A 0.53 0.53 0.0 0 0 90.25 51.23
  L 90.25 52.25
  Q 90.25 52.75 89.75 52.73
  Q 87.96 52.64 87.75 50.88
  A 1.01 1.00 5.9 0 1 89.07 49.81
  L 90.01 50.13
  Q 90.36 50.25 90.35 49.88
  Z"
/>
<path fill="white" d="
  M 170.67 50.00
  L 171.50 49.84
  A 1.11 1.11 0.0 0 1 172.72 51.39
  Q 172.20 52.55 170.78 52.74
  Q 170.25 52.81 170.25 52.27
  L 170.25 51.13
  Q 170.25 50.35 169.56 50.72
  L 168.48 51.30
  Q 167.85 51.64 167.75 50.94
  Q 167.46 49.09 169.04 48.13
  A 0.79 0.79 0.0 0 1 170.24 48.84
  L 170.21 49.60
  Q 170.18 50.10 170.67 50.00
  Z"
/>
<path fill="white" d="
  M 180.67 52.67
  L 178.95 51.64
  A 0.83 0.83 0.0 0 1 179.70 50.17
  Q 182.00 51.14 183.35 53.20
  A 0.50 0.50 0.0 0 1 182.95 53.97
  Q 181.67 54.04 181.03 53.02
  A 1.10 1.05 87.9 0 0 180.67 52.67
  Z"
/>
<path fill="white" d="
  M 77.92 55.27
  A 0.23 0.23 0.0 0 1 77.60 55.23
  L 77.53 55.14
  A 1.87 1.50 -37.2 0 1 78.12 52.82
  L 79.61 51.68
  A 1.87 1.50 -37.2 0 1 82.01 51.74
  L 82.08 51.83
  A 0.23 0.23 0.0 0 1 82.03 52.15
  L 77.92 55.27
  Z"
/>
<path fill="white" d="
  M 72.72 65.68
  L 72.76 66.73
  Q 72.78 67.25 72.26 67.25
  L 71.17 67.25
  Q 70.56 67.25 70.74 67.84
  L 70.93 68.43
  A 0.83 0.82 -5.9 0 1 70.06 69.49
  Q 68.19 69.30 68.12 67.42
  Q 68.09 66.79 68.73 66.76
  L 69.88 66.72
  A 0.32 0.31 10.9 0 0 70.15 66.54
  Q 70.42 65.97 70.03 65.66
  Q 69.17 64.96 70.05 64.76
  L 71.66 64.39
  A 0.69 0.69 0.0 0 0 72.18 63.58
  Q 71.93 62.26 73.34 62.52
  Q 74.06 62.65 74.16 61.93
  L 74.32 60.77
  A 0.57 0.56 12.6 0 1 75.05 60.31
  L 75.50 60.45
  A 0.56 0.56 0.0 0 0 76.23 59.94
  L 76.26 59.01
  A 0.56 0.56 0.0 0 1 76.93 58.48
  Q 78.73 58.83 78.49 57.05
  Q 78.41 56.38 79.07 56.47
  L 79.98 56.60
  A 0.63 0.62 -81.2 0 0 80.67 56.09
  L 80.91 54.87
  Q 81.03 54.25 81.62 54.47
  L 82.40 54.76
  Q 83.00 54.98 83.00 54.34
  L 83.00 53.26
  A 0.58 0.58 0.0 0 1 83.76 52.71
  L 85.15 53.17
  Q 85.50 53.29 85.50 52.92
  L 85.50 51.98
  Q 85.50 50.81 86.60 51.22
  Q 88.41 51.89 87.94 53.94
  Q 87.83 54.42 87.36 54.28
  L 86.06 53.90
  A 0.45 0.45 0.0 0 0 85.51 54.19
  Q 85.38 54.57 85.74 54.86
  A 0.59 0.59 0.0 0 1 85.28 55.91
  L 83.96 55.72
  Q 83.52 55.66 83.51 56.10
  L 83.48 57.03
  Q 83.45 57.65 82.84 57.57
  L 82.00 57.46
  Q 81.31 57.36 81.27 58.06
  L 81.24 58.81
  A 0.53 0.52 2.8 0 1 80.69 59.30
  Q 78.99 59.22 78.58 60.80
  Q 78.46 61.27 77.98 61.30
  Q 76.78 61.38 76.60 62.55
  Q 76.53 63.00 76.08 63.10
  Q 74.74 63.41 74.52 64.80
  Q 74.45 65.25 73.99 65.25
  L 73.13 65.25
  Q 72.71 65.25 72.72 65.68
  Z"
/>
<path fill="white" d="
  M 174.56 53.71
  L 173.19 54.41
  Q 172.57 54.73 172.53 54.03
  Q 172.43 51.72 174.56 50.99
  A 0.64 0.64 0.0 0 1 175.22 52.04
  Q 174.88 52.40 175.17 52.80
  Q 175.46 53.18 175.92 53.05
  L 176.95 52.74
  A 0.54 0.53 -11.7 0 1 177.64 53.19
  Q 177.87 55.41 175.69 55.87
  Q 174.95 56.03 175.01 55.27
  L 175.10 54.07
  Q 175.15 53.41 174.56 53.71
  Z"
/>
<path fill="white" d="
  M 179.92 54.85
  Q 180.31 56.99 178.11 57.48
  A 1.09 1.08 -65.0 0 1 177.38 55.46
  L 179.22 54.50
  Q 179.80 54.20 179.92 54.85
  Z"
/>
<path fill="white" d="
  M 179.22 58.82
  Q 179.56 56.67 181.73 56.33
  Q 182.19 56.26 182.24 56.72
  C 182.44 58.45 181.52 59.38 179.83 59.48
  Q 179.11 59.53 179.22 58.82
  Z"
/>
<path fill="white" d="
  M 181.49 60.58
  Q 181.72 58.71 183.54 58.23
  Q 184.31 58.02 184.37 58.81
  Q 184.54 61.07 182.27 61.35
  Q 181.38 61.46 181.49 60.58
  Z"
/>
<path fill="white" d="
  M 186.23 62.78
  L 184.04 63.22
  Q 183.51 63.32 183.54 62.78
  Q 183.65 60.38 186.00 60.24
  Q 186.58 60.20 186.50 60.77
  L 186.23 62.78
  Z"
/>
<path fill="white" d="
  M 212.46 66.70
  L 213.02 68.45
  A 0.54 0.54 0.0 0 1 212.12 69.00
  L 210.91 67.78
  Q 210.27 67.15 209.85 67.94
  L 207.05 73.16
  A 0.62 0.61 -72.1 0 1 206.44 73.48
  L 201.22 72.91
  A 0.51 0.51 0.0 0 1 200.79 72.23
  L 202.52 67.40
  Q 202.71 66.86 203.28 66.82
  L 205.04 66.72
  A 0.46 0.46 0.0 0 0 205.40 66.03
  L 205.19 65.68
  Q 204.86 65.12 204.29 65.42
  C 200.82 67.27 193.72 64.00 190.55 61.97
  Q 190.09 61.67 190.07 61.35
  Q 190.04 60.83 190.51 61.04
  Q 197.43 64.11 205.00 64.65
  A 0.45 0.45 0.0 0 0 205.36 64.52
  L 205.79 64.08
  A 0.44 0.44 0.0 0 1 206.30 64.01
  Q 207.52 64.66 207.23 66.05
  A 0.59 0.58 86.1 0 0 208.00 66.73
  L 208.93 66.39
  A 0.67 0.66 73.2 0 0 209.35 65.60
  L 208.92 63.92
  Q 208.58 62.57 209.66 63.44
  L 210.89 64.44
  A 0.57 0.57 0.0 0 0 211.79 64.19
  L 212.14 63.23
  Q 212.29 62.82 212.71 62.95
  L 213.43 63.18
  Q 213.84 63.31 213.53 63.60
  Q 213.42 63.71 213.32 63.80
  Q 212.88 64.25 213.42 64.57
  L 213.70 64.74
  Q 213.90 64.86 213.92 64.62
  Q 214.00 63.12 215.38 62.42
  Q 216.40 61.89 216.89 62.68
  A 0.65 0.65 0.0 0 1 216.56 63.62
  Q 214.75 64.29 214.40 66.16
  A 0.57 0.56 24.0 0 1 213.50 66.50
  Q 213.19 66.27 212.81 66.25
  Q 212.31 66.22 212.46 66.70
  Z
  M 206.10 67.80
  A 0.70 0.70 0.0 0 0 205.58 68.89
  L 206.22 69.84
  A 0.81 0.81 0.0 0 0 207.69 69.51
  Q 207.97 67.66 206.10 67.80
  Z
  M 203.21 69.75
  Q 202.83 71.52 204.79 71.79
  A 0.61 0.61 0.0 0 0 205.40 70.88
  L 204.61 69.52
  A 0.76 0.76 0.0 0 0 203.21 69.75
  Z"
/>
<path fill="white" d="
  M 56.54 64.96
  Q 63.94 64.43 70.70 61.50
  A 0.32 0.32 0.0 0 1 71.01 62.06
  Q 66.71 65.07 61.43 66.05
  C 59.09 66.48 57.12 65.36 54.63 66.29
  A 0.75 0.75 0.0 0 1 53.79 65.11
  Q 54.54 64.20 55.55 64.75
  Q 56.01 65.00 56.54 64.96
  Z"
/>
<path fill="white" d="
  M 186.23 62.78
  Q 187.51 62.18 187.74 62.22
  A 1.39 1.21 38.5 0 1 188.20 64.72
  L 186.27 65.27
  Q 185.63 65.46 185.64 64.79
  Q 185.65 63.68 186.23 62.78
  Z"
/>
<path fill="white" d="
  M 51.49 70.48
  Q 51.70 69.24 50.77 68.39
  A 0.76 0.75 43.6 0 0 49.72 68.41
  L 48.91 69.21
  Q 48.63 69.49 48.29 69.29
  L 48.01 69.12
  Q 47.63 68.89 47.82 68.49
  L 48.57 66.88
  A 0.30 0.30 0.0 0 0 48.09 66.54
  L 47.82 66.81
  Q 47.52 67.11 47.13 66.95
  Q 46.16 66.58 46.25 65.50
  Q 46.30 64.93 45.75 64.74
  Q 44.68 64.37 44.14 63.31
  A 0.69 0.69 0.0 0 1 45.23 62.51
  Q 46.49 63.70 48.21 63.66
  Q 48.80 63.65 49.08 64.17
  L 49.43 64.83
  Q 49.74 65.41 50.06 64.84
  Q 50.62 63.86 51.69 64.04
  A 0.43 0.43 0.0 0 1 51.93 64.75
  Q 51.04 65.73 51.62 66.50
  Q 51.99 67.00 52.97 67.09
  Q 55.33 67.32 57.64 67.26
  A 0.69 0.69 0.0 0 1 58.33 67.76
  L 59.87 73.01
  Q 60.01 73.49 59.52 73.54
  L 54.98 74.05
  A 1.85 1.85 0.0 0 1 52.96 72.56
  Q 52.83 71.90 52.35 71.45
  A 0.51 0.50 -63.1 0 0 51.51 71.73
  Q 51.31 72.72 52.16 73.27
  Q 52.65 73.60 52.86 74.14
  Q 55.32 80.51 54.05 87.24
  A 0.33 0.33 0.0 0 1 53.40 87.20
  Q 53.07 80.15 51.14 73.38
  A 1.01 0.93 -79.4 0 0 50.86 72.93
  Q 49.98 72.18 50.01 71.13
  Q 50.03 70.60 50.50 70.35
  Q 51.10 70.03 51.25 70.50
  A 0.12 0.12 0.0 0 0 51.49 70.48
  Z
  M 53.20 69.17
  A 1.09 0.89 -89.8 0 0 54.45 70.72
  Q 54.93 70.16 55.31 69.55
  Q 55.64 69.02 55.11 68.70
  Q 54.06 68.07 53.20 69.17
  Z
  M 55.72 72.11
  L 57.36 71.86
  Q 58.36 71.71 57.77 70.89
  L 57.06 69.91
  Q 56.73 69.44 56.39 69.91
  L 55.30 71.43
  A 0.43 0.43 0.0 0 0 55.72 72.11
  Z"
/>
<path fill="white" d="
  M 190.00 67.00
  L 188.04 67.25
  Q 187.49 67.32 187.55 66.78
  Q 187.80 64.60 190.11 64.47
  Q 190.64 64.43 190.69 64.96
  Q 190.79 65.96 190.00 67.00
  Z"
/>
<path fill="white" d="
  M 190.00 67.00
  Q 191.19 66.54 192.19 66.79
  Q 192.77 66.93 192.59 67.50
  Q 191.96 69.51 189.79 69.44
  Q 189.22 69.43 189.40 68.89
  L 190.00 67.00
  Z"
/>
<path fill="white" d="
  M 199.68 70.63
  A 0.28 0.28 0.0 0 1 199.60 71.02
  L 199.44 71.13
  A 1.71 1.40 56.4 0 1 197.32 70.48
  L 196.27 68.90
  A 1.71 1.40 56.4 0 1 196.49 66.70
  L 196.66 66.59
  A 0.28 0.28 0.0 0 1 197.05 66.67
  L 199.68 70.63
  Z"
/>
<path fill="white" d="
  M 62.48 68.48
  Q 63.04 67.49 64.07 67.30
  A 0.62 0.62 0.0 0 1 64.69 68.27
  L 62.16 71.87
  A 0.54 0.54 0.0 0 1 61.22 71.77
  Q 60.57 70.19 61.97 69.07
  Q 62.28 68.82 62.48 68.48
  Z"
/>
<path fill="white" d="
  M 67.38 72.31
  L 67.52 73.34
  A 0.83 0.83 0.0 0 1 66.47 74.25
  Q 64.49 73.70 64.51 71.75
  Q 64.51 71.23 65.03 71.24
  L 66.52 71.28
  Q 67.00 71.29 66.79 70.86
  L 66.57 70.38
  A 1.01 1.01 0.0 0 1 67.80 68.99
  Q 69.30 69.50 69.38 71.12
  A 0.60 0.60 0.0 0 1 68.78 71.75
  L 67.86 71.75
  Q 67.30 71.75 67.38 72.31
  Z"
/>
<path fill="white" d="
  M 199.30 78.50
  L 200.04 78.50
  A 0.73 0.73 0.0 0 1 200.75 79.39
  Q 200.26 81.52 197.94 80.92
  Q 197.26 80.75 197.57 80.11
  L 198.05 79.13
  Q 198.46 78.30 197.57 78.53
  L 196.61 78.78
  A 0.53 0.53 0.0 0 1 195.99 78.08
  L 196.46 76.81
  Q 196.67 76.25 196.07 76.25
  L 194.98 76.25
  A 0.53 0.53 0.0 0 1 194.51 75.48
  L 194.95 74.62
  A 0.42 0.42 0.0 0 0 194.59 74.01
  L 193.57 73.98
  A 0.63 0.62 -81.8 0 1 192.99 73.20
  L 193.28 72.12
  A 0.52 0.52 0.0 0 0 192.56 71.52
  Q 191.25 72.11 191.26 70.79
  Q 191.28 68.28 193.95 69.17
  Q 194.41 69.32 194.27 69.79
  L 193.99 70.67
  Q 193.81 71.25 194.42 71.25
  L 195.58 71.25
  Q 196.37 71.25 196.12 72.00
  L 195.74 73.16
  Q 195.55 73.75 196.17 73.75
  L 197.31 73.75
  Q 197.89 73.75 197.78 74.32
  L 197.57 75.37
  Q 197.47 75.86 197.97 75.93
  L 198.93 76.06
  A 0.55 0.55 0.0 0 1 199.37 76.79
  L 198.93 77.98
  Q 198.75 78.50 199.30 78.50
  Z"
/>
<path fill="white" d="
  M 209.40 73.28
  L 207.13 87.25
  A 0.22 0.22 0.0 0 1 206.69 87.25
  C 205.92 82.75 206.06 76.87 208.72 73.13
  C 209.39 72.19 208.99 71.18 209.48 70.40
  Q 209.85 69.83 210.60 70.01
  A 0.93 0.93 0.0 0 1 210.94 71.66
  L 209.93 72.41
  Q 209.49 72.74 209.40 73.28
  Z"
/>
<path fill="white" d="
  M 63.83 73.73
  Q 65.04 73.69 65.64 74.54
  A 1.12 1.12 0.0 0 1 64.58 76.30
  Q 63.41 76.15 62.97 75.01
  Q 62.50 73.76 63.83 73.73
  Z"
/>
<path fill="white" d="
  M 201.17 75.15
  A 0.29 0.29 0.0 0 1 201.27 74.75
  L 201.39 74.67
  A 1.77 1.42 58.6 0 1 203.53 75.44
  L 204.52 77.07
  A 1.77 1.42 58.6 0 1 204.23 79.32
  L 204.10 79.40
  A 0.29 0.29 0.0 0 1 203.70 79.30
  L 201.17 75.15
  Z"
/>
<path fill="white" d="
  M 57.65 76.37
  Q 58.15 75.19 59.07 75.37
  A 0.81 0.80 -67.5 0 1 59.58 76.61
  L 57.51 79.63
  A 0.80 0.80 0.0 0 1 56.06 79.10
  Q 56.21 77.65 57.33 76.78
  A 1.07 1.00 85.0 0 0 57.65 76.37
  Z"
/>
<path fill="white" d="
  M 62.47 76.01
  Q 64.29 76.16 64.48 78.00
  A 0.59 0.58 81.5 0 1 64.01 78.64
  Q 62.04 79.01 61.42 77.40
  A 1.03 1.03 0.0 0 1 62.47 76.01
  Z"
/>
<path fill="white" d="
  M 60.96 81.20
  L 61.77 82.83
  A 0.47 0.46 -13.1 0 1 61.35 83.50
  L 60.52 83.50
  Q 60.08 83.50 60.00 83.93
  Q 59.84 84.70 60.24 85.13
  Q 60.80 85.74 60.00 85.98
  Q 57.75 86.66 57.01 84.45
  A 0.53 0.53 0.0 0 1 57.51 83.75
  L 58.47 83.75
  A 0.48 0.48 0.0 0 0 58.92 83.10
  L 58.42 81.74
  Q 58.17 81.07 58.89 81.03
  L 59.86 80.98
  A 0.45 0.45 0.0 0 0 60.25 80.35
  L 59.82 79.35
  A 0.56 0.56 0.0 0 1 60.27 78.58
  Q 62.38 78.33 63.17 80.32
  Q 63.43 81.00 62.71 81.00
  L 61.09 81.00
  Q 60.86 81.00 60.96 81.20
  Z"
/>
<path fill="white" d="
  M 204.96 148.53
  L 205.60 149.24
  Q 206.20 149.90 205.34 150.15
  L 204.13 150.51
  Q 203.47 150.70 203.92 151.22
  L 204.64 152.06
  A 0.53 0.52 65.5 0 1 204.32 152.93
  L 203.45 153.04
  A 0.55 0.55 0.0 0 0 202.99 153.70
  Q 203.04 153.95 203.14 154.05
  Q 204.80 155.66 202.21 155.85
  Q 200.36 155.99 200.23 153.99
  Q 200.20 153.53 200.65 153.41
  L 201.59 153.17
  A 0.48 0.48 0.0 0 0 201.87 152.44
  L 201.28 151.56
  A 0.48 0.47 -21.1 0 1 201.61 150.83
  L 202.69 150.69
  Q 203.35 150.60 202.98 150.03
  L 202.35 149.08
  A 0.60 0.60 0.0 0 1 202.68 148.17
  L 203.65 147.89
  A 0.43 0.42 -24.2 0 0 203.89 147.26
  L 203.32 146.35
  A 0.52 0.51 67.5 0 1 203.64 145.57
  L 204.66 145.33
  Q 205.50 145.13 204.89 144.51
  L 204.44 144.07
  Q 203.85 143.48 204.59 143.09
  L 205.51 142.61
  A 0.50 0.49 -31.1 0 0 205.69 141.89
  L 204.95 140.80
  Q 204.16 139.65 205.51 139.99
  Q 205.79 140.06 206.04 139.86
  A 0.47 0.46 57.7 0 0 206.16 139.29
  L 205.55 138.04
  Q 205.35 137.62 205.77 137.42
  L 206.47 137.10
  Q 207.16 136.78 206.71 136.16
  L 206.27 135.57
  Q 205.81 134.94 206.51 134.61
  L 207.21 134.27
  Q 207.84 133.97 207.35 133.47
  L 206.74 132.87
  A 0.48 0.47 49.5 0 1 206.79 132.16
  L 207.59 131.56
  Q 208.22 131.09 207.67 130.54
  L 207.08 129.95
  Q 206.64 129.51 207.17 129.19
  L 207.95 128.72
  Q 208.66 128.29 207.97 127.84
  Q 207.35 127.42 207.47 126.53
  Q 207.52 126.14 207.87 125.93
  Q 208.01 125.85 208.15 125.76
  Q 208.47 125.55 208.22 125.27
  L 207.33 124.29
  Q 206.81 123.73 207.47 123.33
  L 208.26 122.85
  A 0.36 0.36 0.0 0 0 208.31 122.27
  L 207.44 121.47
  Q 206.96 121.03 207.49 120.67
  L 208.26 120.14
  Q 208.82 119.76 208.30 119.33
  L 207.71 118.85
  Q 207.19 118.43 207.66 117.96
  L 208.34 117.29
  A 0.57 0.57 0.0 0 0 208.26 116.42
  L 207.65 116.01
  Q 207.16 115.67 207.58 115.24
  L 208.05 114.77
  Q 208.60 114.23 208.05 113.68
  L 207.48 113.10
  A 0.62 0.62 0.0 0 1 207.47 112.23
  Q 208.66 111.04 207.06 110.32
  A 0.53 0.52 -55.3 0 1 206.91 109.47
  L 207.65 108.73
  A 0.45 0.44 36.3 0 0 207.54 108.03
  L 206.87 107.67
  Q 206.18 107.30 206.64 106.67
  L 207.31 105.74
  Q 207.55 105.41 207.19 105.23
  L 206.52 104.88
  Q 206.06 104.64 206.29 104.17
  L 206.83 103.07
  Q 207.13 102.46 206.50 102.23
  L 205.86 101.99
  Q 205.29 101.78 205.66 101.29
  L 206.32 100.41
  Q 206.66 99.95 206.14 99.70
  L 205.01 99.14
  A 0.55 0.55 0.0 0 1 204.87 98.26
  L 205.41 97.72
  Q 205.84 97.28 205.29 97.02
  L 204.54 96.66
  A 0.68 0.67 -62.4 0 1 204.25 95.71
  L 204.79 94.77
  Q 205.05 94.32 204.55 94.15
  L 203.81 93.89
  A 0.67 0.67 0.0 0 1 203.47 92.89
  L 203.94 92.19
  Q 204.48 91.37 203.35 91.52
  Q 202.58 91.62 202.34 90.53
  A 0.37 0.35 61.2 0 1 202.43 90.19
  L 202.80 89.82
  Q 203.40 89.22 202.61 88.93
  L 201.85 88.65
  A 0.77 0.77 0.0 0 1 201.40 87.67
  L 201.73 86.74
  Q 201.87 86.37 201.50 86.23
  L 200.32 85.79
  A 0.50 0.49 32.7 0 1 200.14 84.98
  L 200.71 84.42
  Q 201.29 83.83 200.48 83.68
  L 199.27 83.44
  Q 198.71 83.34 198.86 82.78
  Q 199.46 80.55 201.72 81.04
  Q 202.38 81.18 202.16 81.80
  L 201.71 83.11
  Q 201.50 83.71 202.13 83.73
  L 203.26 83.77
  A 0.43 0.43 0.0 0 1 203.59 84.45
  L 202.82 85.51
  Q 202.29 86.25 203.20 86.25
  L 203.83 86.25
  A 0.84 0.84 0.0 0 1 204.67 87.09
  Q 204.67 87.76 203.95 88.23
  A 0.36 0.35 36.2 0 0 204.05 88.87
  L 205.40 89.24
  A 0.58 0.58 0.0 0 1 205.66 90.21
  L 204.92 90.95
  A 0.44 0.44 0.0 0 0 205.10 91.68
  L 206.51 92.12
  A 0.47 0.47 0.0 0 1 206.72 92.88
  L 206.01 93.67
  A 0.51 0.50 -73.0 0 0 206.45 94.51
  Q 207.14 94.41 207.61 94.84
  Q 207.98 95.18 207.63 95.53
  L 206.95 96.21
  A 0.54 0.54 0.0 0 0 207.09 97.08
  L 208.25 97.65
  A 0.50 0.50 0.0 0 1 208.41 98.42
  L 207.78 99.15
  A 0.53 0.53 0.0 0 0 207.93 99.96
  L 208.72 100.37
  Q 209.38 100.71 208.99 101.34
  L 208.51 102.13
  Q 208.21 102.63 208.74 102.88
  L 209.52 103.26
  Q 210.26 103.61 209.68 104.20
  L 209.00 104.87
  Q 208.48 105.40 209.12 105.77
  L 209.92 106.23
  A 0.50 0.50 0.0 0 1 210.07 106.97
  L 209.46 107.76
  A 0.69 0.68 -58.7 0 0 209.71 108.80
  L 210.49 109.16
  A 0.39 0.39 0.0 0 1 210.52 109.85
  L 209.99 110.16
  Q 209.54 110.43 209.67 110.94
  Q 209.89 111.85 210.69 112.07
  Q 211.52 112.30 210.80 112.78
  L 210.11 113.24
  A 0.85 0.84 -19.4 0 0 209.73 114.03
  Q 209.81 114.83 210.79 114.96
  Q 211.52 115.05 211.00 115.57
  L 210.23 116.35
  Q 209.89 116.68 210.07 117.12
  Q 210.28 117.63 210.95 117.82
  Q 211.85 118.07 211.08 118.60
  L 210.19 119.20
  A 0.49 0.49 0.0 0 0 210.11 119.94
  L 210.98 120.90
  Q 211.45 121.40 210.85 121.75
  L 210.28 122.08
  A 0.41 0.41 0.0 0 0 210.14 122.65
  L 211.04 124.06
  A 0.32 0.32 0.0 0 1 210.94 124.51
  L 210.29 124.89
  A 0.61 0.60 -38.3 0 0 210.17 125.85
  L 210.85 126.52
  A 0.51 0.51 0.0 0 1 210.84 127.27
  L 209.77 128.24
  Q 209.38 128.59 209.79 128.92
  L 210.38 129.40
  Q 210.79 129.73 210.52 130.19
  Q 210.20 130.76 209.46 130.75
  A 0.47 0.47 0.0 0 0 209.18 131.60
  L 210.25 132.35
  A 0.45 0.45 0.0 0 1 210.22 133.09
  L 208.95 133.89
  A 0.56 0.55 -45.9 0 0 208.96 134.84
  L 209.61 135.22
  A 0.53 0.52 -41.4 0 1 209.55 136.15
  L 208.27 136.72
  Q 207.53 137.05 208.20 137.52
  L 208.98 138.07
  A 0.50 0.50 0.0 0 1 208.90 138.94
  L 207.90 139.40
  Q 207.20 139.72 207.65 140.35
  L 208.27 141.20
  A 0.41 0.41 0.0 0 1 208.09 141.82
  L 207.22 142.18
  A 0.66 0.65 -43.2 0 0 207.18 143.38
  Q 208.09 143.82 207.54 144.74
  A 0.65 0.64 -64.9 0 1 206.79 145.02
  Q 206.54 144.94 206.34 145.05
  A 0.32 0.32 0.0 0 0 206.21 145.44
  L 206.79 146.82
  Q 207.07 147.51 206.34 147.65
  L 205.18 147.87
  Q 204.49 148.00 204.96 148.53
  Z"
/>
<path fill="white" d="
  M 56.00 148.02
  Q 54.88 148.12 54.00 147.45
  Q 53.61 147.16 53.86 146.74
  L 54.34 145.95
  Q 54.62 145.49 54.13 145.27
  L 53.10 144.81
  Q 52.52 144.56 52.90 144.05
  L 53.62 143.09
  Q 54.00 142.58 53.42 142.32
  L 52.69 141.98
  A 0.65 0.65 0.0 0 1 52.40 141.06
  L 52.86 140.30
  Q 53.25 139.67 52.55 139.40
  L 51.64 139.04
  A 0.41 0.41 0.0 0 1 51.50 138.37
  L 52.14 137.73
  Q 52.67 137.21 52.05 136.79
  L 51.06 136.13
  A 0.48 0.47 38.3 0 1 50.97 135.42
  L 51.67 134.67
  A 0.49 0.49 0.0 0 0 51.54 133.91
  L 50.59 133.39
  Q 49.88 132.99 50.46 132.42
  L 50.94 131.94
  Q 51.37 131.50 50.94 131.06
  L 50.35 130.48
  Q 49.83 129.96 50.30 129.39
  L 50.71 128.89
  A 0.57 0.56 -52.2 0 0 50.61 128.08
  L 49.91 127.56
  Q 49.28 127.09 49.84 126.54
  L 50.34 126.03
  Q 50.81 125.57 50.32 125.13
  L 49.52 124.41
  Q 49.10 124.04 49.58 123.75
  L 50.44 123.23
  Q 51.15 122.80 50.48 122.30
  L 49.58 121.62
  A 0.51 0.51 0.0 0 1 49.58 120.80
  L 50.53 120.09
  Q 51.09 119.67 50.49 119.30
  L 49.64 118.79
  A 0.48 0.48 0.0 0 1 49.59 118.00
  L 50.62 117.20
  Q 51.10 116.82 50.61 116.46
  L 49.84 115.88
  A 0.49 0.48 46.1 0 1 49.85 115.09
  L 50.60 114.58
  Q 51.30 114.11 50.68 113.53
  L 49.71 112.65
  Q 49.16 112.14 49.90 112.04
  L 50.37 111.97
  A 0.69 0.69 0.0 0 0 50.96 111.39
  Q 51.12 110.38 50.20 109.85
  A 0.37 0.37 0.0 0 1 50.16 109.23
  L 51.08 108.57
  A 0.51 0.51 0.0 0 0 51.15 107.81
  L 50.26 106.84
  Q 49.88 106.42 50.42 106.25
  L 51.30 105.96
  A 0.59 0.58 62.9 0 0 51.59 105.06
  L 50.80 103.96
  Q 50.47 103.49 51.00 103.30
  L 51.68 103.05
  Q 52.22 102.85 52.01 102.30
  L 51.50 101.04
  Q 51.31 100.58 51.76 100.36
  L 52.56 99.98
  A 0.54 0.53 57.7 0 0 52.74 99.16
  L 52.23 98.53
  Q 51.78 97.98 52.42 97.67
  L 53.39 97.19
  Q 53.88 96.95 53.56 96.51
  L 52.90 95.60
  Q 52.56 95.12 53.10 94.88
  L 54.21 94.40
  A 0.55 0.54 -34.3 0 0 54.38 93.51
  L 53.82 92.95
  Q 53.34 92.47 53.98 92.24
  L 55.02 91.86
  Q 55.55 91.67 55.39 91.13
  L 55.03 89.85
  A 0.58 0.58 0.0 0 1 55.41 89.14
  L 56.16 88.91
  Q 56.68 88.74 56.47 88.24
  L 56.05 87.27
  Q 55.74 86.56 56.49 86.36
  Q 58.76 85.74 59.37 87.87
  Q 59.57 88.56 58.86 88.69
  L 58.06 88.85
  Q 57.37 88.98 57.77 89.55
  L 58.23 90.23
  Q 58.66 90.86 57.94 91.13
  L 56.92 91.51
  Q 56.19 91.79 56.66 92.42
  L 57.21 93.15
  A 0.52 0.52 0.0 0 1 56.83 93.98
  L 56.23 94.03
  A 0.47 0.46 -17.1 0 0 55.86 94.72
  L 56.55 95.93
  A 0.55 0.55 0.0 0 1 56.00 96.75
  Q 55.44 96.68 54.92 97.03
  Q 54.42 97.38 54.91 97.75
  L 55.87 98.46
  A 0.41 0.41 0.0 0 1 55.77 99.17
  L 54.32 99.70
  A 0.51 0.51 0.0 0 0 54.19 100.58
  L 54.98 101.17
  A 0.43 0.42 -41.1 0 1 54.93 101.88
  L 53.71 102.54
  A 0.44 0.44 0.0 0 0 53.61 103.23
  L 54.42 104.04
  A 0.44 0.44 0.0 0 1 54.28 104.75
  L 53.45 105.09
  A 0.45 0.45 0.0 0 0 53.25 105.77
  L 53.89 106.65
  A 0.60 0.59 -37.6 0 1 53.78 107.47
  L 53.04 108.08
  Q 52.62 108.42 52.98 108.82
  L 53.57 109.48
  A 0.69 0.68 -35.5 0 1 53.39 110.54
  L 52.39 111.09
  A 0.38 0.38 0.0 0 0 52.35 111.73
  L 53.42 112.50
  A 0.39 0.39 0.0 0 1 53.23 113.20
  Q 52.43 113.27 52.27 113.86
  Q 52.15 114.32 52.49 114.66
  L 53.27 115.45
  Q 53.82 115.99 53.05 116.05
  Q 52.33 116.11 52.24 116.58
  Q 52.14 117.08 52.46 117.47
  L 53.09 118.25
  A 0.42 0.42 0.0 0 1 52.89 118.92
  L 52.32 119.10
  A 0.53 0.53 0.0 0 0 52.11 119.98
  L 53.21 121.09
  A 0.46 0.46 0.0 0 1 53.03 121.86
  L 52.18 122.15
  A 0.37 0.36 -40.9 0 0 52.13 122.82
  Q 54.33 123.95 52.42 125.25
  A 0.42 0.42 0.0 0 0 52.45 125.95
  L 53.28 126.42
  A 0.54 0.53 44.7 0 1 53.29 127.34
  L 52.54 127.78
  Q 51.74 128.26 52.55 128.73
  L 53.53 129.29
  A 0.47 0.47 0.0 0 1 53.52 130.11
  L 53.06 130.35
  A 0.59 0.59 0.0 0 0 52.77 131.02
  Q 53.01 131.96 53.68 132.06
  Q 56.61 132.49 53.77 133.01
  Q 53.31 133.10 53.17 133.61
  A 0.60 0.59 -67.2 0 0 53.44 134.28
  L 54.50 134.92
  Q 55.13 135.31 54.50 135.69
  L 53.62 136.23
  A 0.40 0.40 0.0 0 0 53.70 136.96
  L 54.70 137.29
  A 0.54 0.53 20.8 0 1 55.03 138.02
  L 54.37 139.45
  A 0.38 0.37 19.4 0 0 54.62 139.97
  L 55.52 140.21
  A 0.51 0.51 0.0 0 1 55.78 141.04
  L 55.05 141.85
  Q 54.62 142.33 55.10 142.75
  Q 55.52 143.11 56.09 143.02
  A 0.36 0.36 0.0 0 1 56.44 143.59
  L 55.81 144.47
  A 0.60 0.59 -61.8 0 0 56.08 145.38
  L 57.14 145.79
  Q 57.75 146.02 57.32 146.52
  L 56.00 148.02
  Z"
/>
<ellipse fill="white" cx="0.00" cy="0.00" transform="translate(298.55,93.67) rotate(123.0)" rx="5.32" ry="5.00"/>
<path fill="white" d="
  M 228.97 100.62
  C 229.41 99.26 230.75 98.24 232.02 99.31
  A 0.85 0.85 0.0 0 1 231.42 100.81
  Q 229.63 100.73 228.87 102.18
  Q 228.57 102.74 228.03 102.41
  L 227.21 101.91
  Q 226.54 101.51 226.48 102.29
  Q 226.45 102.64 226.74 102.89
  A 0.62 0.62 0.0 0 1 226.67 103.87
  L 226.38 104.06
  A 0.71 0.70 62.5 0 1 225.34 103.73
  L 224.74 102.28
  Q 224.43 101.52 223.83 102.07
  L 219.37 106.09
  A 0.63 0.63 0.0 0 1 218.67 106.18
  L 213.80 103.65
  A 0.49 0.49 0.0 0 1 213.65 102.90
  C 214.88 101.41 217.38 97.90 219.49 99.11
  Q 219.79 99.28 220.00 99.25
  Q 220.41 99.20 220.46 98.77
  A 0.43 0.43 0.0 0 0 220.14 98.31
  Q 212.23 96.15 207.71 89.23
  A 0.34 0.33 5.8 0 1 208.23 88.81
  Q 213.52 93.93 220.08 97.32
  Q 220.57 97.57 221.13 97.49
  Q 221.90 97.37 222.34 97.95
  Q 222.71 98.42 222.29 98.84
  L 221.79 99.34
  Q 221.01 100.11 222.10 100.26
  L 223.41 100.43
  A 0.63 0.63 0.0 0 0 224.11 99.92
  L 224.44 98.21
  A 0.59 0.59 0.0 0 1 225.54 98.05
  L 226.23 99.38
  A 0.29 0.28 -29.4 0 0 226.64 99.49
  L 228.22 98.50
  A 0.47 0.47 0.0 0 1 228.80 99.23
  Q 228.13 99.91 228.55 100.66
  Q 228.81 101.13 228.97 100.62
  Z
  M 220.19 100.81
  Q 220.03 100.73 219.69 100.72
  A 0.60 0.60 0.0 0 0 219.17 101.63
  Q 220.25 103.48 221.07 102.98
  A 1.02 1.02 0.0 0 0 221.40 101.53
  Q 221.10 101.08 220.52 100.97
  A 0.44 0.02 28.6 0 1 220.19 100.81
  Z
  M 218.27 104.08
  A 0.44 0.43 84.2 0 0 218.81 103.41
  Q 218.10 102.57 218.32 101.52
  Q 218.46 100.81 217.79 101.08
  Q 216.88 101.45 216.54 102.41
  Q 216.33 103.01 216.88 103.31
  L 218.27 104.08
  Z"
/>
<path fill="white" d="
  M 51.81 89.82
  Q 52.07 89.49 52.41 89.29
  A 0.42 0.42 0.0 0 1 52.96 89.90
  Q 50.42 93.34 46.98 95.85
  C 44.76 97.47 41.89 97.94 39.44 99.46
  A 0.82 0.81 1.6 0 1 38.34 98.30
  Q 38.82 97.61 39.72 97.72
  Q 40.25 97.78 40.73 97.55
  Q 46.59 94.69 51.42 90.30
  A 0.78 0.02 -52.3 0 0 51.81 89.82
  Z"
/>
<path fill="white" d="
  M 94.03 136.48
  C 98.86 121.44 106.21 105.80 110.18 89.99
  Q 110.30 89.50 110.81 89.50
  L 117.48 89.50
  Q 118.15 89.50 117.97 90.15
  C 112.59 109.19 101.50 126.35 96.09 145.41
  A 0.61 0.60 7.1 0 1 95.52 145.85
  L 91.10 145.89
  Q 90.64 145.89 90.51 145.46
  C 84.37 124.94 74.17 106.49 69.77 90.15
  Q 69.59 89.50 70.26 89.50
  L 77.48 89.50
  Q 77.98 89.50 78.09 89.98
  C 81.35 104.18 89.44 119.48 93.65 136.47
  Q 93.81 137.14 94.03 136.48
  Z"
/>
<path fill="white" d="
  M 159.88 135.71
  Q 163.71 122.43 170.49 106.45
  Q 173.33 99.77 175.64 90.02
  Q 175.76 89.50 176.29 89.50
  L 185.78 89.50
  Q 186.34 89.50 186.38 90.06
  L 190.59 144.98
  A 0.81 0.81 0.0 0 1 189.78 145.85
  L 183.33 145.81
  Q 182.84 145.81 182.81 145.32
  L 179.83 96.76
  A 0.36 0.36 0.0 0 0 179.12 96.67
  C 174.26 112.38 167.09 128.99 161.56 145.43
  Q 161.41 145.86 160.96 145.85
  L 156.72 145.79
  Q 156.16 145.78 155.99 145.24
  C 151.02 128.91 144.01 113.22 139.90 96.70
  A 0.33 0.33 0.0 0 0 139.25 96.75
  L 135.64 145.52
  A 0.56 0.55 -81.4 0 1 134.97 146.02
  Q 132.41 145.43 129.80 145.97
  Q 128.15 146.31 128.39 144.64
  Q 132.36 117.50 134.50 90.15
  Q 134.55 89.50 135.21 89.50
  L 144.97 89.50
  Q 145.54 89.50 145.66 90.06
  C 149.05 105.84 155.92 121.30 159.79 135.71
  Q 159.84 135.87 159.88 135.71
  Z"
/>
<path fill="white" d="
  M 260.30 138.32
  C 261.07 136.17 261.34 133.46 262.04 131.60
  C 266.93 118.50 272.79 105.21 276.24 91.67
  Q 276.38 91.15 276.91 91.14
  L 283.55 91.01
  Q 284.13 91.00 284.01 91.57
  Q 283.21 95.31 281.80 98.77
  C 275.89 113.21 267.14 130.54 262.14 146.99
  Q 261.98 147.50 261.45 147.50
  L 257.06 147.50
  Q 256.66 147.50 256.55 147.12
  C 251.17 128.12 240.91 110.69 235.78 91.65
  Q 235.64 91.13 236.18 91.12
  L 243.34 91.05
  A 0.81 0.81 0.0 0 1 244.14 91.67
  C 247.91 107.60 256.34 122.34 259.69 138.28
  Q 259.92 139.37 260.30 138.32
  Z"
/>
<path fill="white" d="
  M 453.83 137.54
  A 0.26 0.26 0.0 0 0 454.33 137.57
  C 458.89 120.72 466.31 107.32 470.05 91.67
  Q 470.15 91.24 470.60 91.23
  L 480.35 91.03
  Q 481.01 91.01 481.04 91.67
  Q 482.44 119.34 485.24 146.91
  Q 485.30 147.50 484.70 147.50
  L 477.59 147.50
  Q 477.15 147.50 477.13 147.07
  L 474.30 98.22
  A 0.34 0.34 0.0 0 0 473.64 98.14
  Q 467.31 117.87 459.21 137.27
  Q 457.90 140.40 456.17 146.96
  Q 456.03 147.50 455.47 147.50
  L 451.05 147.50
  Q 450.62 147.50 450.49 147.09
  C 445.43 130.63 438.28 114.71 434.20 98.02
  A 0.29 0.29 0.0 0 0 433.63 98.07
  L 430.07 147.10
  Q 430.04 147.50 429.64 147.50
  L 423.44 147.50
  Q 422.74 147.50 422.83 146.80
  C 425.19 128.47 427.85 110.03 428.75 91.59
  Q 428.77 91.20 429.16 91.20
  L 439.61 91.18
  Q 440.01 91.17 440.08 91.56
  C 442.97 107.31 451.60 121.88 453.83 137.54
  Z"
/>
<path fill="white" d="
  M 327.72 107.31
  L 338.79 106.74
  A 0.77 0.77 0.0 0 1 339.60 107.54
  L 339.45 112.81
  Q 339.44 113.32 338.93 113.31
  L 327.39 113.11
  A 0.47 0.47 0.0 0 0 326.91 113.55
  C 326.57 119.00 325.56 136.01 329.28 139.99
  C 332.14 143.04 336.07 142.50 339.98 141.32
  Q 340.62 141.12 340.57 141.78
  L 340.21 146.63
  A 0.78 0.78 0.0 0 1 339.70 147.30
  C 333.61 149.47 324.77 149.07 321.75 142.49
  C 318.86 136.18 320.08 121.03 320.36 113.86
  A 0.77 0.76 -0.0 0 0 319.55 113.06
  L 314.05 113.32
  Q 313.25 113.36 313.25 112.55
  L 313.25 107.40
  A 0.55 0.55 0.0 0 1 313.85 106.85
  L 320.00 107.33
  Q 320.64 107.38 320.66 106.74
  L 321.01 95.48
  A 0.61 0.60 -2.1 0 1 321.56 94.89
  L 327.31 94.32
  A 0.51 0.51 0.0 0 1 327.87 94.86
  L 327.13 106.71
  Q 327.09 107.34 327.72 107.31
  Z"
/>
<path fill="white" d="
  M 211.00 98.01
  A 2.12 0.24 -86.0 0 1 211.35 96.12
  Q 211.73 95.84 212.19 96.47
  C 212.58 97.01 212.56 97.72 212.97 98.39
  Q 213.39 99.10 213.44 99.50
  Q 213.59 100.91 212.58 101.55
  A 0.59 0.58 59.6 0 1 211.75 101.33
  Q 210.86 99.73 211.00 98.01
  Z"
/>
<path fill="white" d="
  M 49.42 99.23
  C 48.98 100.14 48.75 101.14 48.30 101.80
  A 0.75 0.75 0.0 0 1 46.96 101.20
  L 47.86 97.41
  A 0.77 0.77 0.0 0 1 49.22 97.12
  Q 49.97 98.11 49.42 99.23
  Z"
/>
<path fill="white" d="
  M 30.67 101.24
  Q 29.26 101.51 28.52 100.35
  A 0.74 0.73 -14.8 0 1 29.18 99.22
  Q 30.94 99.32 32.02 100.70
  A 0.27 0.27 0.0 0 0 32.45 100.38
  Q 32.19 100.01 31.96 99.57
  A 0.52 0.52 0.0 0 1 32.73 98.90
  L 34.24 99.99
  A 0.38 0.38 0.0 0 0 34.82 99.81
  L 35.26 98.60
  A 0.47 0.47 0.0 0 1 36.17 98.68
  L 36.44 100.35
  Q 36.51 100.74 36.89 100.88
  C 38.60 101.49 39.50 100.40 40.68 100.02
  Q 41.66 99.71 42.61 99.29
  A 0.85 0.83 -31.4 0 1 43.60 99.52
  L 46.94 103.66
  A 0.50 0.50 0.0 0 1 46.76 104.42
  L 41.89 106.74
  A 0.63 0.61 51.2 0 1 41.23 106.66
  L 38.33 104.34
  Q 38.02 104.09 37.87 103.72
  Q 37.43 102.61 36.33 102.78
  A 0.58 0.58 0.0 0 0 35.89 103.09
  L 35.12 104.56
  A 0.62 0.62 0.0 0 1 33.96 104.18
  L 34.19 102.68
  A 0.35 0.34 82.5 0 0 33.71 102.31
  L 32.52 102.84
  A 0.54 0.53 -24.3 0 1 31.82 102.58
  L 31.33 101.58
  A 0.62 0.61 -17.6 0 0 30.67 101.24
  Z
  M 43.04 101.75
  A 0.30 0.30 0.0 0 0 42.63 101.95
  L 42.06 103.96
  A 0.51 0.51 0.0 0 1 41.05 103.82
  L 41.05 101.80
  Q 41.05 101.33 40.61 101.49
  L 39.37 101.96
  A 0.62 0.62 0.0 0 0 39.13 102.96
  Q 40.87 104.87 43.35 104.31
  Q 43.89 104.19 43.99 103.65
  Q 44.26 102.30 43.04 101.75
  Z"
/>
<path fill="white" d="
  M 221.79 106.92
  Q 220.60 108.68 219.28 110.35
  C 217.18 113.01 216.12 116.31 214.24 119.19
  A 0.28 0.28 0.0 0 1 213.74 118.98
  Q 215.77 109.87 223.26 104.27
  A 0.31 0.31 0.0 0 1 223.76 104.50
  Q 223.86 105.86 222.56 106.32
  A 1.58 1.53 -82.0 0 0 221.79 106.92
  Z"
/>
<path fill="white" d="
  M 39.91 106.97
  Q 45.59 111.81 46.64 119.13
  A 0.37 0.37 0.0 0 1 45.93 119.32
  Q 43.24 112.59 38.63 107.03
  A 1.42 1.40 77.9 0 0 37.93 106.57
  Q 36.86 106.27 37.00 105.06
  A 0.61 0.61 0.0 0 1 38.09 104.76
  L 39.28 106.32
  Q 39.56 106.68 39.91 106.97
  Z"
/>
<path fill="white" d="
  M 505.63 111.89
  C 517.31 98.59 538.67 104.06 541.00 122.42
  C 542.93 137.59 532.72 150.91 516.59 148.74
  C 499.02 146.38 495.56 123.36 505.63 111.89
  Z
  M 521.0204 144.0662
  A 17.21 13.02 88.8 0 0 533.6771 126.5873
  A 17.21 13.02 88.8 0 0 520.2996 109.6538
  A 17.21 13.02 88.8 0 0 507.6429 127.1327
  A 17.21 13.02 88.8 0 0 521.0204 144.0662
  Z"
/>
<path fill="white" d="
  M 589.46 136.53
  C 583.57 118.35 598.04 98.77 617.43 106.08
  C 629.33 110.57 631.63 126.40 627.20 136.68
  C 620.47 152.29 595.10 153.94 589.46 136.53
  Z
  M 609.0604 144.0662
  A 17.21 13.03 88.8 0 0 621.7271 126.5871
  A 17.21 13.03 88.8 0 0 608.3396 109.6538
  A 17.21 13.03 88.8 0 0 595.6729 127.1329
  A 17.21 13.03 88.8 0 0 609.0604 144.0662
  Z"
/>
<path fill="white" d="
  M 749.58 148.93
  C 719.07 150.54 723.85 100.70 752.74 104.78
  C 778.21 108.37 774.38 147.62 749.58 148.93
  Z
  M 749.6904 144.0656
  A 17.21 13.03 88.7 0 0 762.3266 126.5644
  A 17.21 13.03 88.7 0 0 748.9096 109.6544
  A 17.21 13.03 88.7 0 0 736.2734 127.1556
  A 17.21 13.03 88.7 0 0 749.6904 144.0656
  Z"
/>
<path fill="white" d="
  M 377.03 143.93
  Q 369.01 149.67 359.77 148.21
  C 350.48 146.74 347.79 136.37 353.11 129.31
  C 357.48 123.51 368.84 122.04 375.46 122.66
  A 1.17 1.17 0.0 0 0 376.70 121.77
  C 380.14 107.66 359.99 110.94 353.03 112.67
  Q 352.33 112.84 352.40 112.13
  L 352.87 107.42
  A 0.90 0.89 86.0 0 1 353.55 106.63
  Q 361.93 104.52 370.30 105.16
  C 384.42 106.25 385.03 115.16 383.84 126.82
  Q 383.02 134.82 384.81 147.09
  A 0.58 0.58 0.0 0 1 384.24 147.75
  L 378.53 147.75
  A 0.77 0.77 0.0 0 1 377.76 147.02
  L 377.59 144.19
  Q 377.55 143.55 377.03 143.93
  Z
  M 358.94 132.19
  C 356.89 135.01 356.81 139.73 360.33 141.46
  C 365.35 143.92 372.59 142.22 376.81 139.42
  A 0.90 0.88 72.7 0 0 377.20 138.66
  L 376.92 127.94
  A 0.65 0.65 0.0 0 0 376.29 127.30
  C 370.97 127.08 362.36 127.46 358.94 132.19
  Z"
/>
<path fill="white" d="
  M 562.65 110.87
  Q 569.28 101.89 580.12 106.36
  Q 580.68 106.60 580.52 107.19
  L 578.91 112.91
  A 0.57 0.56 18.9 0 1 578.15 113.28
  C 573.13 111.22 566.54 111.73 563.47 116.56
  Q 561.99 118.90 561.97 124.24
  Q 561.93 135.62 562.21 147.00
  Q 562.23 147.50 561.73 147.50
  L 554.99 147.50
  Q 554.40 147.50 554.44 146.91
  C 555.26 132.28 555.70 120.46 553.20 107.12
  A 0.46 0.46 0.0 0 1 553.59 106.58
  L 559.92 105.65
  Q 560.55 105.56 560.75 106.16
  Q 561.44 108.20 561.23 110.32
  Q 560.95 113.16 562.65 110.87
  Z"
/>
<path fill="white" d="
  M 647.41 111.91
  C 653.80 104.81 663.05 103.96 671.99 105.73
  A 0.70 0.69 -79.8 0 1 672.54 106.53
  L 671.54 112.23
  Q 671.43 112.87 670.82 112.65
  C 665.76 110.84 659.32 110.23 654.79 113.32
  C 648.08 117.90 647.23 128.37 651.22 134.94
  C 656.13 143.03 665.13 143.36 673.62 140.76
  Q 674.37 140.53 674.32 141.31
  L 674.04 145.92
  A 0.84 0.84 0.0 0 1 673.62 146.61
  C 667.33 150.20 655.91 148.43 650.16 144.61
  C 639.16 137.30 638.99 121.29 647.41 111.91
  Z"
/>
<path fill="white" d="
  M 686.37 135.00
  C 682.23 123.61 687.74 110.56 699.26 106.26
  Q 706.23 103.67 715.60 105.89
  Q 716.07 106.00 716.00 106.48
  L 715.14 112.20
  A 0.54 0.53 13.2 0 1 714.44 112.63
  C 682.89 102.38 686.25 151.93 716.98 140.75
  A 0.67 0.67 0.0 0 1 717.87 141.44
  L 717.44 146.26
  A 0.77 0.76 -8.0 0 1 716.94 146.91
  C 705.24 151.26 690.78 147.14 686.37 135.00
  Z"
/>
<path fill="white" d="
  M 213.09 105.74
  A 0.17 0.17 0.0 0 1 213.23 105.55
  L 213.65 105.48
  A 2.42 1.35 80.5 0 1 215.38 107.64
  L 215.43 107.98
  A 2.42 1.35 80.5 0 1 214.50 110.59
  L 214.09 110.66
  A 0.17 0.17 0.0 0 1 213.89 110.52
  L 213.09 105.74
  Z"
/>
<path fill="white" d="
  M 293.99 146.96
  C 294.55 134.14 294.91 121.77 293.20 107.29
  Q 293.14 106.72 293.70 106.64
  L 301.12 105.62
  Q 301.80 105.52 301.77 106.21
  Q 300.68 126.55 301.81 146.89
  A 0.58 0.58 0.0 0 1 301.23 147.50
  L 294.50 147.50
  A 0.52 0.51 -88.9 0 1 293.99 146.96
  Z"
/>
<path fill="white" d="
  M 46.27 106.80
  A 0.98 0.87 86.4 0 1 46.41 106.62
  Q 47.25 105.82 47.75 106.68
  A 0.39 0.39 0.0 0 1 47.80 106.96
  L 47.14 110.82
  A 0.79 0.79 0.0 0 1 45.60 110.88
  Q 45.04 108.68 46.27 106.80
  Z"
/>
<path fill="white" d="
  M 223.63 134.03
  Q 224.00 134.15 224.00 134.54
  L 224.00 135.03
  Q 224.00 135.75 223.28 135.75
  Q 222.29 135.76 222.18 134.85
  A 0.96 0.95 15.7 0 0 221.83 134.23
  Q 215.59 129.28 214.18 121.39
  A 0.38 0.38 0.0 0 1 214.91 121.17
  C 216.26 124.37 220.46 133.00 223.63 134.03
  Z"
/>
<path fill="white" d="
  M 46.46 121.34
  A 0.41 0.41 0.0 0 1 47.23 121.59
  Q 45.57 129.20 39.57 134.16
  Q 39.22 134.46 39.05 134.89
  Q 38.66 135.92 37.56 136.02
  A 0.59 0.58 -84.5 0 1 36.95 135.27
  Q 37.22 134.36 38.13 133.99
  Q 38.60 133.79 38.93 133.41
  Q 43.58 127.94 46.46 121.34
  Z"
/>
<path fill="white" d="
  M 213.64 129.00
  A 0.18 0.18 0.0 0 1 213.85 128.85
  L 214.22 128.91
  A 2.52 1.70 -80.9 0 1 215.50 131.67
  L 215.45 132.03
  A 2.52 1.70 -80.9 0 1 213.37 134.25
  L 212.99 134.19
  A 0.18 0.18 0.0 0 1 212.85 133.98
  L 213.64 129.00
  Z"
/>
<path fill="white" d="
  M 47.74 134.56
  A 0.24 0.24 0.0 0 1 47.54 134.83
  L 47.22 134.87
  A 2.50 1.34 82.3 0 1 45.56 132.58
  L 45.52 132.28
  A 2.50 1.34 82.3 0 1 46.51 129.62
  L 46.83 129.58
  A 0.24 0.24 0.0 0 1 47.10 129.78
  L 47.74 134.56
  Z"
/>
<path fill="white" d="
  M 229.77 138.85
  L 232.07 139.40
  A 0.82 0.82 0.0 0 1 231.81 141.02
  L 229.65 140.84
  Q 229.20 140.80 228.84 141.06
  Q 227.65 141.91 226.85 140.11
  A 0.34 0.33 -58.9 0 0 226.21 140.27
  Q 226.28 141.32 225.57 141.89
  A 0.58 0.58 0.0 0 1 224.64 141.55
  L 224.30 139.76
  A 0.78 0.78 0.0 0 0 223.26 139.18
  L 218.33 141.06
  Q 217.81 141.25 217.46 140.82
  L 214.12 136.80
  A 0.54 0.54 0.0 0 1 214.29 135.97
  L 218.97 133.66
  A 0.89 0.88 52.8 0 1 219.96 133.80
  L 224.10 137.64
  A 0.45 0.45 0.0 0 0 224.78 137.55
  L 225.86 135.90
  Q 226.36 135.14 226.82 135.92
  L 226.99 136.21
  Q 227.20 136.57 227.02 136.95
  L 226.68 137.68
  Q 226.22 138.64 227.17 138.16
  L 228.69 137.41
  Q 229.25 137.13 229.25 137.76
  L 229.25 138.19
  A 0.68 0.67 -83.6 0 0 229.77 138.85
  Z
  M 221.33 136.84
  Q 219.63 135.89 218.13 135.96
  Q 217.00 136.02 216.86 136.77
  Q 216.74 137.48 217.67 138.47
  A 0.40 0.40 0.0 0 0 218.35 138.30
  L 218.87 136.43
  A 0.50 0.50 0.0 0 1 219.80 136.35
  Q 220.34 137.45 219.51 138.35
  A 0.40 0.39 -75.5 0 0 219.89 139.00
  L 221.07 138.72
  A 1.02 1.02 0.0 0 0 221.33 136.84
  Z"
/>
<path fill="white" d="
  M 38.54 139.93
  L 37.33 139.81
  A 0.64 0.63 8.4 0 0 36.64 140.32
  L 36.33 141.96
  A 0.56 0.56 0.0 0 1 35.24 142.01
  L 34.83 140.63
  A 0.40 0.39 50.8 0 0 34.11 140.55
  Q 33.39 141.88 32.18 141.22
  Q 31.75 140.99 31.26 140.99
  L 28.90 140.99
  A 0.52 0.52 0.0 0 1 28.49 140.15
  Q 29.41 138.94 30.91 139.00
  Q 31.41 139.02 31.67 138.59
  L 32.04 137.97
  Q 32.33 137.50 32.80 137.80
  L 33.91 138.52
  Q 34.73 139.04 34.42 138.12
  L 34.08 137.13
  A 0.40 0.34 40.3 0 1 34.06 137.01
  Q 34.11 135.50 35.34 136.17
  A 0.71 0.70 10.7 0 1 35.69 136.68
  Q 35.86 137.79 36.82 137.84
  Q 37.50 137.88 38.31 137.16
  Q 39.93 135.72 41.40 134.23
  A 0.76 0.76 0.0 0 1 42.30 134.10
  L 46.98 136.58
  A 0.54 0.54 0.0 0 1 47.12 137.43
  L 43.27 141.58
  A 0.64 0.63 -45.9 0 1 42.36 141.60
  Q 41.30 140.54 40.29 141.54
  A 0.21 0.20 -59.3 0 0 40.37 141.88
  Q 48.30 144.00 52.79 150.98
  A 0.33 0.32 58.6 0 1 52.68 151.44
  Q 52.38 151.61 52.13 151.36
  Q 47.00 146.26 40.54 142.92
  Q 40.06 142.68 39.56 142.85
  Q 39.03 143.03 38.51 142.33
  Q 38.20 141.91 38.46 141.46
  L 38.92 140.69
  Q 39.33 140.01 38.54 139.93
  Z
  M 42.26 139.29
  Q 40.78 138.77 40.99 137.20
  Q 41.12 136.18 40.36 136.87
  L 39.36 137.78
  Q 38.83 138.25 39.39 138.69
  Q 41.22 140.15 42.26 139.29
  Q 43.08 139.32 43.69 138.90
  Q 44.36 138.44 44.21 137.73
  Q 44.04 136.84 42.76 136.35
  A 0.40 0.40 0.0 0 0 42.30 136.96
  Q 42.91 137.77 42.26 139.29
  Z"
/>
<path fill="white" d="
  M 213.03 141.00
  Q 213.21 141.03 213.40 141.05
  Q 213.75 141.09 213.60 141.41
  L 212.73 143.24
  A 0.63 0.63 0.0 0 1 211.54 143.08
  Q 211.12 140.56 212.63 138.49
  Q 212.98 138.00 213.46 138.37
  Q 213.99 138.79 213.97 139.58
  Q 213.96 140.02 213.67 140.31
  Q 213.40 140.60 212.99 140.78
  Q 212.62 140.95 213.03 141.00
  Z"
/>
<path fill="white" d="
  M 47.58 140.19
  Q 47.44 139.80 47.51 139.29
  A 0.84 0.84 0.0 0 1 49.17 139.24
  L 50.01 143.53
  A 0.52 0.52 0.0 0 1 49.23 144.08
  Q 47.37 142.93 47.66 140.93
  Q 47.72 140.55 47.58 140.19
  Z"
/>
<path fill="white" d="
  M 220.21 142.74
  Q 213.77 146.02 208.61 151.08
  Q 208.24 151.43 208.00 150.99
  Q 207.88 150.76 208.05 150.52
  C 210.67 146.92 213.94 143.98 218.19 142.50
  Q 219.89 141.91 221.42 141.04
  A 0.85 0.85 0.0 0 1 222.49 142.33
  Q 222.08 142.81 221.22 142.62
  Q 220.69 142.50 220.21 142.74
  Z"
/>
<path fill="white" d="
  M 56.00 148.02
  Q 57.34 147.76 58.20 148.36
  Q 58.58 148.62 58.35 149.03
  L 57.72 150.14
  A 0.56 0.56 0.0 0 0 58.18 150.98
  L 58.99 151.02
  A 0.43 0.43 0.0 0 1 59.33 151.69
  L 58.80 152.49
  A 0.65 0.65 0.0 0 0 59.34 153.50
  L 60.00 153.50
  A 0.50 0.50 0.0 0 1 60.44 154.24
  L 59.50 156.00
  Q 58.19 156.22 57.34 155.76
  A 0.68 0.67 -62.5 0 1 57.06 154.86
  L 57.42 154.17
  Q 57.70 153.62 57.16 153.34
  L 56.31 152.90
  Q 55.73 152.60 56.12 152.07
  L 56.54 151.48
  Q 56.98 150.90 56.29 150.65
  L 55.20 150.25
  Q 54.49 150.00 54.95 149.40
  L 56.00 148.02
  Z"
/>
<path fill="white" d="
  M 212.57 173.75
  Q 212.90 173.77 213.19 173.76
  Q 213.58 173.75 213.79 173.91
  Q 214.29 174.29 214.27 174.98
  Q 214.24 175.53 214.75 175.74
  Q 216.12 176.30 216.48 177.81
  Q 216.69 178.71 215.86 178.31
  L 213.53 177.21
  Q 213.17 177.04 212.78 177.12
  Q 211.43 177.38 211.33 175.73
  A 0.53 0.53 0.0 0 0 210.38 175.44
  L 209.50 176.59
  A 0.43 0.43 0.0 0 1 208.74 176.23
  L 209.15 174.45
  A 0.69 0.68 -72.3 0 0 208.74 173.65
  Q 206.48 172.72 204.03 173.02
  A 1.65 1.65 0.0 0 1 202.25 171.86
  L 200.81 167.09
  Q 200.67 166.64 201.15 166.62
  L 206.48 166.48
  Q 207.08 166.46 207.37 166.98
  L 208.47 168.98
  Q 208.72 169.43 209.07 169.06
  Q 209.45 168.66 209.21 168.24
  Q 205.34 161.50 207.06 153.26
  A 0.20 0.20 0.0 0 1 207.45 153.27
  L 209.51 167.45
  A 0.81 0.78 8.2 0 0 209.99 168.07
  Q 211.52 168.68 210.66 169.90
  Q 210.37 170.30 209.92 170.07
  Q 209.79 170.00 209.64 169.98
  Q 209.37 169.93 209.30 170.20
  Q 209.04 171.31 209.76 171.94
  Q 210.14 172.28 210.60 172.03
  L 212.24 171.14
  A 0.60 0.60 0.0 0 1 213.07 171.91
  L 212.38 173.44
  Q 212.25 173.73 212.57 173.75
  Z
  M 204.69 170.35
  L 205.43 168.76
  A 0.50 0.49 7.2 0 0 204.89 168.07
  L 203.98 168.24
  A 1.00 1.00 0.0 0 0 203.18 169.38
  Q 203.37 170.57 204.45 170.51
  A 0.31 0.29 -76.7 0 0 204.69 170.35
  Z
  M 206.15 170.01
  L 205.69 170.84
  A 0.93 0.93 0.0 0 0 207.09 172.00
  Q 208.00 171.26 207.62 170.14
  A 0.81 0.81 0.0 0 0 206.15 170.01
  Z"
/>
<path fill="white" d="
  M 56.75 174.58
  Q 64.48 173.40 70.91 178.00
  A 0.38 0.38 0.0 0 1 70.55 178.66
  Q 64.01 175.95 56.94 175.62
  Q 56.38 175.59 55.87 175.83
  L 54.99 176.26
  A 0.67 0.67 0.0 0 1 54.03 175.68
  L 53.98 174.30
  A 0.61 0.60 -7.1 0 0 53.24 173.73
  L 52.23 173.97
  Q 51.59 174.11 51.79 174.75
  L 52.31 176.30
  A 0.46 0.46 0.0 0 1 52.01 176.88
  L 51.68 176.98
  Q 51.25 177.12 51.01 176.72
  L 50.71 176.20
  Q 50.15 175.26 49.64 176.23
  L 49.09 177.29
  Q 48.86 177.73 48.43 177.47
  L 48.12 177.29
  Q 47.84 177.12 47.85 176.79
  Q 47.87 176.42 47.77 176.09
  Q 47.63 175.66 47.52 176.10
  Q 46.97 178.24 44.70 178.49
  A 0.46 0.46 0.0 0 1 44.31 177.71
  L 46.28 175.65
  Q 46.60 175.31 46.54 174.85
  L 46.49 174.51
  Q 46.41 173.92 47.00 173.97
  L 48.60 174.09
  Q 49.33 174.15 48.89 173.57
  L 48.10 172.54
  Q 47.58 171.86 48.42 171.75
  Q 49.63 171.58 50.21 172.65
  A 0.49 0.48 46.2 0 0 51.06 172.67
  L 52.17 170.75
  Q 52.48 170.21 51.88 170.03
  Q 51.38 169.88 51.11 170.27
  Q 50.63 170.95 50.22 170.22
  Q 49.58 169.05 50.55 168.33
  A 1.60 1.56 80.4 0 0 51.11 167.52
  Q 53.06 160.69 53.15 153.51
  A 0.32 0.32 0.0 0 1 53.78 153.44
  Q 55.70 161.17 51.97 168.02
  Q 51.64 168.63 51.74 169.04
  Q 51.81 169.37 52.05 169.62
  A 0.51 0.51 0.0 0 0 52.89 169.45
  L 53.72 167.30
  A 0.93 0.92 13.3 0 1 54.69 166.71
  L 59.79 167.33
  Q 60.32 167.40 60.19 167.92
  C 59.64 170.05 59.17 173.91 56.26 173.48
  A 0.65 0.62 -56.9 0 0 55.83 173.58
  Q 55.03 174.13 56.11 174.52
  Q 56.43 174.63 56.75 174.58
  Z
  M 56.31 170.40
  L 56.58 170.86
  Q 56.83 171.28 57.26 171.06
  Q 57.83 170.77 57.95 170.15
  C 58.15 169.08 57.03 168.40 56.09 168.56
  A 0.67 0.67 0.0 0 0 55.57 169.04
  Q 55.38 169.74 55.84 169.97
  Q 56.14 170.11 56.31 170.40
  Z
  M 55.12 170.35
  A 1.15 0.96 4.5 0 0 53.39 171.57
  Q 54.01 172.20 54.75 172.51
  A 0.65 0.65 0.0 0 0 55.62 172.08
  Q 55.88 171.04 55.12 170.35
  Z"
/>
<path fill="white" d="
  M 59.50 156.00
  L 61.39 156.08
  A 0.45 0.45 0.0 0 1 61.77 156.73
  L 61.26 157.73
  A 0.53 0.53 0.0 0 0 61.73 158.50
  L 62.74 158.50
  A 0.52 0.52 0.0 0 1 63.22 159.21
  Q 62.82 160.19 61.98 160.99
  Q 60.91 161.19 60.15 160.93
  A 0.57 0.56 -69.5 0 1 59.81 160.17
  L 60.27 159.12
  Q 60.53 158.50 59.86 158.50
  L 58.76 158.50
  A 0.52 0.52 0.0 0 1 58.26 157.84
  Q 58.55 156.77 59.50 156.00
  Z"
/>
<path fill="white" d="
  M 200.30 159.13
  L 200.77 160.02
  Q 201.05 160.57 200.48 160.78
  L 199.41 161.17
  Q 198.87 161.37 199.03 161.93
  L 199.18 162.46
  Q 199.35 163.09 198.71 163.24
  Q 196.75 163.70 196.16 161.68
  Q 195.94 160.92 196.73 160.96
  L 197.74 161.01
  Q 198.43 161.04 198.10 160.43
  L 197.44 159.21
  A 0.48 0.48 0.0 0 1 197.86 158.50
  L 199.00 158.50
  Q 199.74 158.50 199.41 157.83
  L 198.93 156.85
  Q 198.63 156.23 199.30 156.07
  Q 201.45 155.56 202.22 157.52
  Q 202.44 158.07 201.86 158.21
  L 200.57 158.54
  Q 200.06 158.66 200.30 159.13
  Z"
/>
<path fill="white" d="
  M 203.71 160.22
  A 0.28 0.28 0.0 0 1 204.10 160.14
  L 204.25 160.24
  A 1.59 1.32 -55.9 0 1 204.45 162.30
  L 203.20 164.14
  A 1.59 1.32 -55.9 0 1 201.22 164.71
  L 201.07 164.61
  A 0.28 0.28 0.0 0 1 201.00 164.22
  L 203.71 160.22
  Z"
/>
<path fill="white" d="
  M 58.84 165.84
  Q 56.36 164.46 55.98 161.61
  A 0.80 0.79 27.1 0 1 57.47 161.13
  L 59.60 165.09
  A 0.56 0.56 0.0 0 1 58.84 165.84
  Z"
/>
<path fill="white" d="
  M 61.98 160.99
  L 64.12 161.04
  Q 64.86 161.06 64.52 161.72
  L 64.05 162.65
  A 0.41 0.41 0.0 0 0 64.42 163.25
  L 65.45 163.25
  A 0.66 0.66 0.0 0 1 66.03 164.21
  L 65.58 165.07
  A 0.47 0.47 0.0 0 0 66.00 165.75
  L 67.21 165.75
  Q 67.77 165.75 67.64 166.29
  Q 67.06 168.66 64.75 168.32
  Q 64.23 168.24 64.42 167.75
  L 64.79 166.77
  A 0.57 0.56 10.6 0 0 64.26 166.00
  L 63.27 166.00
  A 0.54 0.54 0.0 0 1 62.76 165.27
  L 63.21 164.06
  Q 63.42 163.50 62.82 163.50
  L 61.75 163.50
  Q 61.03 163.50 61.29 162.82
  L 61.98 160.99
  Z"
/>
<path fill="white" d="
  M 196.19 163.20
  Q 197.69 163.58 197.73 165.27
  Q 197.74 165.75 197.25 165.75
  L 195.74 165.75
  Q 195.19 165.75 195.03 165.23
  L 194.84 164.63
  A 1.13 1.12 88.4 0 1 196.19 163.20
  Z"
/>
<path fill="white" d="
  M 194.23 165.68
  Q 196.08 165.92 196.24 167.82
  A 0.44 0.43 -85.6 0 1 195.71 168.28
  L 194.30 167.97
  Q 193.74 167.85 193.44 167.35
  L 193.29 167.10
  Q 192.30 165.42 194.23 165.68
  Z"
/>
<path fill="white" d="
  M 71.10 172.49
  L 72.13 172.22
  Q 72.57 172.11 72.68 172.55
  Q 73.04 173.95 72.30 174.68
  A 1.54 0.98 -13.2 0 1 69.86 173.83
  Q 70.21 173.46 70.23 173.25
  Q 70.29 172.66 70.00 172.72
  L 68.62 173.00
  A 0.57 0.57 0.0 0 1 67.96 172.28
  L 68.34 171.02
  Q 68.49 170.50 67.95 170.50
  L 66.81 170.50
  Q 66.23 170.50 66.25 169.92
  Q 66.32 167.84 68.31 167.84
  Q 69.05 167.84 69.27 168.34
  Q 69.48 168.81 69.00 169.46
  A 0.53 0.53 0.0 0 0 69.55 170.29
  L 70.75 169.99
  A 0.38 0.37 -87.0 0 1 71.19 170.48
  L 70.67 172.03
  Q 70.46 172.66 71.10 172.49
  Z"
/>
<path fill="white" d="
  M 192.23 170.53
  L 191.15 168.23
  Q 190.84 167.57 191.55 167.72
  L 193.69 168.18
  A 1.17 1.17 0.0 0 1 193.47 170.50
  L 192.23 170.53
  Z"
/>
<path fill="white" d="
  M 198.50 171.40
  Q 198.11 172.33 197.10 172.82
  A 0.86 0.86 0.0 0 1 196.06 171.50
  L 198.83 168.21
  A 0.51 0.50 57.0 0 1 199.70 168.40
  Q 200.11 169.80 199.08 170.63
  Q 198.70 170.94 198.50 171.40
  Z"
/>
<path fill="white" d="
  M 62.87 168.88
  Q 64.68 170.42 65.29 172.39
  A 0.74 0.73 -72.0 0 1 64.00 173.05
  L 61.41 169.57
  A 0.82 0.68 -1.9 0 1 62.50 168.60
  Q 62.59 168.64 62.87 168.88
  Z"
/>
<path fill="white" d="
  M 192.23 170.53
  Q 192.52 171.36 192.45 172.11
  Q 192.40 172.76 191.75 172.75
  Q 191.59 172.75 191.42 172.75
  Q 190.84 172.74 190.73 173.31
  C 190.46 174.63 189.48 174.79 188.79 175.51
  Q 183.20 181.31 176.80 186.20
  C 175.85 186.92 175.32 188.43 173.54 188.27
  Q 173.05 188.23 172.91 188.69
  Q 172.58 189.79 171.22 189.89
  A 1.65 1.40 -45.0 0 1 171.46 186.84
  Q 172.09 186.79 172.89 186.03
  C 177.59 181.55 183.99 178.63 187.67 172.83
  Q 188.25 171.91 189.42 172.32
  Q 189.94 172.51 189.80 171.97
  L 189.52 170.88
  Q 189.31 170.08 190.14 170.00
  Q 191.15 169.91 192.23 170.53
  Z"
/>
<path fill="white" d="
  M 186.24 203.23
  Q 188.44 203.54 188.54 205.78
  Q 188.56 206.42 187.94 206.27
  Q 186.53 205.93 186.28 204.40
  A 0.50 0.49 78.5 0 0 185.68 204.00
  Q 184.58 204.25 183.90 203.22
  A 0.46 0.45 -34.0 0 1 184.03 202.58
  Q 184.34 202.37 184.25 201.99
  Q 184.08 201.32 183.51 201.71
  L 182.35 202.49
  A 0.22 0.22 0.0 0 1 182.06 202.45
  Q 181.92 202.29 181.80 202.16
  Q 181.37 201.73 181.90 201.43
  Q 182.92 200.85 182.74 199.68
  Q 182.67 199.19 182.23 198.97
  L 177.81 196.63
  Q 177.16 196.29 177.21 195.55
  L 177.56 190.59
  A 0.51 0.51 0.0 0 1 178.23 190.14
  C 180.99 191.06 183.70 191.41 184.20 194.79
  A 0.28 0.27 63.3 0 0 184.67 194.95
  L 184.93 194.70
  Q 185.05 194.57 184.98 194.41
  C 183.37 190.63 185.89 184.00 187.87 180.75
  C 191.31 175.13 197.92 173.45 204.11 174.31
  Q 204.63 174.38 205.06 174.07
  Q 205.93 173.43 206.81 174.20
  A 0.62 0.62 0.0 0 1 206.89 175.07
  L 206.17 175.96
  A 0.52 0.52 0.0 0 1 205.36 175.95
  Q 204.73 175.17 204.21 175.22
  C 200.61 175.62 191.21 176.07 189.10 180.50
  Q 186.01 186.96 185.77 194.21
  Q 185.75 194.66 186.07 194.99
  Q 186.57 195.48 186.24 196.02
  Q 185.61 197.06 185.02 196.47
  A 0.61 0.61 0.0 0 0 183.98 196.92
  Q 184.00 198.31 184.73 198.67
  Q 185.07 198.84 185.74 198.58
  Q 186.10 198.45 186.45 198.36
  Q 187.03 198.21 187.01 198.80
  Q 187.00 199.65 186.25 200.12
  A 0.33 0.32 -43.2 0 0 186.23 200.66
  L 187.52 201.59
  A 0.48 0.47 58.8 0 1 187.31 202.45
  L 186.25 202.60
  A 0.32 0.32 0.0 0 0 186.24 203.23
  Z
  M 181.54 193.48
  Q 180.05 192.23 179.46 192.93
  Q 178.59 193.96 179.28 194.68
  Q 179.72 195.13 179.97 194.55
  Q 180.32 193.71 181.16 194.08
  A 0.36 0.36 0.0 0 0 181.54 193.48
  Z
  M 180.52 196.67
  Q 181.20 196.99 181.72 197.01
  Q 182.20 197.03 182.49 196.56
  Q 182.82 196.04 182.75 195.43
  A 0.74 0.74 0.0 0 0 181.57 194.93
  L 180.42 195.80
  A 0.51 0.51 0.0 0 0 180.52 196.67
  Z"
/>
<path fill="white" d="
  M 72.20 175.81
  Q 73.44 174.21 73.88 174.24
  A 1.31 1.24 38.0 0 1 74.25 176.74
  L 73.01 177.05
  Q 70.81 177.60 72.20 175.81
  Z"
/>
<path fill="white" d="
  M 75.55 176.66
  A 0.96 0.96 0.0 0 1 76.81 177.74
  Q 76.51 179.31 74.43 179.16
  Q 73.99 179.13 74.02 178.69
  Q 74.11 177.17 75.55 176.66
  Z"
/>
<path fill="white" d="
  M 76.21 180.36
  Q 76.54 178.74 78.11 178.34
  Q 78.81 178.15 78.89 178.88
  Q 79.15 181.22 76.89 181.20
  A 0.70 0.69 6.0 0 1 76.21 180.36
  Z"
/>
<path fill="white" d="
  M 78.37 182.32
  Q 78.76 180.52 80.52 180.05
  Q 81.11 179.89 81.16 180.51
  Q 81.32 182.87 79.10 183.13
  Q 78.17 183.24 78.37 182.32
  Z"
/>
<path fill="white" d="
  M 75.30 197.09
  Q 74.30 196.08 74.97 194.90
  Q 75.20 194.51 75.15 194.05
  Q 74.42 187.09 71.61 180.64
  A 0.38 0.38 0.0 0 1 72.26 180.26
  Q 76.89 186.44 76.14 194.15
  Q 76.08 194.68 76.36 195.14
  Q 77.09 196.34 75.99 197.14
  A 0.54 0.53 -40.5 0 1 75.30 197.09
  Z"
/>
<path fill="white" d="
  M 83.79 184.01
  L 84.94 183.95
  Q 85.80 183.91 85.67 184.75
  Q 85.43 186.41 83.62 186.74
  Q 82.92 186.87 82.95 186.16
  L 83.01 185.09
  A 0.39 0.39 0.0 0 0 82.51 184.70
  L 81.38 185.03
  Q 80.70 185.23 80.67 184.52
  Q 80.58 181.95 83.09 181.96
  Q 83.75 181.96 83.52 182.58
  L 83.26 183.29
  Q 82.97 184.05 83.79 184.01
  Z"
/>
<path fill="white" d="
  M 183.54 185.47
  Q 182.40 188.21 179.53 189.02
  A 0.62 0.62 0.0 0 1 179.00 187.93
  L 182.98 185.03
  A 0.37 0.37 0.0 0 1 183.54 185.47
  Z"
/>
<path fill="white" d="
  M 88.59 187.26
  L 89.09 187.10
  A 0.88 0.88 0.0 0 1 90.24 187.95
  Q 90.23 189.75 88.40 190.03
  A 0.58 0.57 87.6 0 1 87.74 189.42
  L 87.80 188.68
  A 0.51 0.50 -6.6 0 0 87.14 188.16
  L 86.06 188.52
  Q 85.58 188.68 85.50 188.18
  Q 85.12 185.78 87.50 185.32
  Q 88.00 185.22 88.00 185.73
  L 88.00 186.83
  Q 88.00 187.44 88.59 187.26
  Z"
/>
<rect fill="white" x="-2.63" y="-0.88" transform="translate(79.64,188.01) rotate(36.0)" width="5.26" height="1.76" rx="0.81"/>
<path fill="white" d="
  M 92.39 191.04
  L 90.69 191.64
  A 0.33 0.33 0.0 0 1 90.25 191.33
  L 90.25 189.33
  A 0.33 0.33 0.0 0 1 90.45 189.03
  L 92.27 188.27
  A 0.33 0.33 0.0 0 1 92.73 188.56
  L 92.79 190.14
  A 0.33 0.33 0.0 0 0 93.30 190.40
  L 94.70 189.46
  A 0.33 0.33 0.0 0 1 95.21 189.65
  L 95.66 191.40
  A 0.33 0.33 0.0 0 1 95.52 191.76
  L 93.45 193.10
  A 0.33 0.33 0.0 0 1 92.94 192.84
  L 92.83 191.33
  A 0.33 0.33 0.0 0 0 92.39 191.04
  Z"
/>
<path fill="white" d="
  M 157.21 195.49
  Q 157.15 194.29 157.68 193.22
  A 0.58 0.57 29.1 0 1 158.49 192.99
  Q 159.91 193.84 160.28 192.41
  A 0.57 0.56 -72.8 0 1 161.01 192.02
  L 162.11 192.42
  Q 162.42 192.53 162.50 192.21
  L 162.78 191.10
  Q 162.91 190.59 163.41 190.75
  L 164.48 191.10
  Q 164.97 191.26 165.12 190.77
  L 165.31 190.17
  Q 165.51 189.54 166.16 189.69
  L 167.35 189.97
  Q 167.75 190.06 167.75 189.66
  L 167.75 188.99
  A 0.76 0.76 0.0 0 1 168.75 188.27
  Q 170.65 188.88 170.23 190.99
  Q 170.08 191.78 169.36 191.43
  L 168.32 190.92
  Q 167.78 190.65 167.76 191.25
  L 167.73 192.26
  A 0.61 0.60 12.9 0 1 166.88 192.79
  L 165.63 192.23
  Q 165.00 191.95 165.00 192.64
  L 165.00 193.52
  A 0.53 0.53 0.0 0 1 164.23 193.99
  L 163.37 193.56
  A 0.58 0.57 -67.4 0 0 162.56 193.90
  L 162.23 194.97
  Q 162.05 195.54 161.52 195.27
  L 160.61 194.79
  A 0.56 0.56 0.0 0 0 159.81 195.16
  L 159.57 196.21
  Q 159.44 196.72 158.98 196.46
  L 157.21 195.49
  Z"
/>
<path fill="white" d="
  M 81.55 198.54
  A 0.55 0.39 2.1 0 0 82.31 199.12
  Q 89.30 194.60 97.50 196.57
  A 0.32 0.32 0.0 0 1 97.43 197.21
  Q 90.32 197.34 83.56 199.55
  Q 83.00 199.74 82.66 200.22
  Q 82.21 200.87 81.45 201.04
  A 0.57 0.57 0.0 0 1 80.75 200.48
  L 80.75 199.38
  Q 80.75 198.65 80.11 199.01
  L 78.81 199.75
  Q 78.05 200.18 78.67 200.80
  L 79.63 201.76
  Q 80.17 202.30 79.48 202.63
  L 78.98 202.87
  Q 78.51 203.09 78.08 202.80
  L 77.52 202.42
  Q 76.90 202.00 76.95 202.74
  Q 76.98 203.12 77.29 203.48
  Q 77.78 204.05 77.04 204.15
  L 75.92 204.30
  Q 75.52 204.35 75.38 204.73
  Q 74.77 206.36 73.08 206.72
  A 0.40 0.40 0.0 0 1 72.72 206.04
  Q 74.17 204.62 73.86 202.82
  Q 73.74 202.12 74.42 201.94
  Q 75.24 201.73 75.28 200.85
  A 0.53 0.52 -82.5 0 0 74.86 200.30
  Q 74.19 200.15 74.25 199.43
  Q 74.29 198.79 74.92 198.94
  L 76.57 199.33
  Q 77.25 199.50 77.29 198.80
  L 77.65 193.06
  A 0.81 0.81 0.0 0 1 78.20 192.35
  L 82.96 190.76
  A 0.55 0.55 0.0 0 1 83.68 191.22
  L 84.24 196.20
  A 0.87 0.86 70.3 0 1 83.86 197.02
  L 81.55 198.54
  Z
  M 80.11 194.51
  L 81.59 195.38
  A 0.44 0.44 0.0 0 0 82.25 195.00
  L 82.25 193.71
  A 1.01 1.01 0.0 0 0 80.29 193.35
  L 79.98 194.16
  A 0.29 0.29 0.0 0 0 80.11 194.51
  Z
  M 79.47 195.51
  A 0.61 0.61 0.0 0 0 78.73 196.08
  Q 78.69 197.14 79.59 197.71
  A 0.98 0.98 0.0 0 0 80.72 196.11
  Q 80.15 195.66 79.47 195.51
  Z"
/>
<rect fill="white" x="-2.69" y="-0.86" transform="translate(87.81,192.72) rotate(30.5)" width="5.38" height="1.72" rx="0.82"/>
<ellipse fill="white" cx="0.00" cy="0.00" transform="translate(96.72,192.55) rotate(119.1)" rx="1.87" ry="1.14"/>
<path fill="white" d="
  M 175.53 192.61
  L 172.03 194.52
  A 0.62 0.61 -82.8 0 1 171.29 193.56
  Q 172.72 192.00 174.81 191.13
  A 0.83 0.82 19.2 0 1 175.53 192.61
  Z"
/>
<path fill="white" d="
  M 104.74 197.27
  Q 104.74 197.48 104.46 197.63
  Q 103.94 197.91 103.82 197.32
  L 103.58 196.07
  A 0.47 0.47 0.0 0 0 102.86 195.77
  L 101.84 196.45
  A 0.51 0.51 0.0 0 1 101.04 196.08
  L 100.95 195.32
  Q 100.89 194.77 100.34 194.87
  L 99.46 195.05
  A 1.13 1.12 84.5 0 1 98.13 193.94
  Q 98.14 192.23 99.93 191.99
  A 0.50 0.48 -4.8 0 1 100.49 192.45
  L 100.52 193.52
  A 0.42 0.42 0.0 0 0 101.20 193.83
  L 102.33 192.96
  A 0.57 0.57 0.0 0 1 103.25 193.41
  L 103.25 194.53
  Q 103.25 195.31 103.87 194.84
  L 104.89 194.09
  A 0.60 0.59 -25.7 0 1 105.82 194.41
  L 106.06 195.30
  A 0.36 0.36 0.0 0 0 106.62 195.49
  L 107.43 194.89
  Q 108.06 194.41 108.39 195.13
  Q 109.34 197.20 107.49 198.25
  Q 106.86 198.61 106.61 197.93
  L 106.27 196.99
  A 0.79 0.79 0.0 0 0 104.74 197.27
  Z"
/>
<path fill="white" d="
  M 157.21 195.49
  L 156.82 197.02
  A 0.52 0.51 -67.3 0 1 156.05 197.34
  L 155.28 196.88
  Q 154.65 196.49 154.31 197.15
  L 153.85 198.03
  A 0.49 0.48 -57.3 0 1 153.12 198.19
  L 152.12 197.39
  Q 151.49 196.89 151.50 197.70
  Q 151.51 198.60 150.80 198.93
  Q 150.44 199.10 150.15 198.81
  L 149.35 198.01
  Q 148.91 197.57 148.74 198.17
  L 148.30 199.71
  A 0.49 0.48 34.8 0 1 147.44 199.86
  L 146.73 198.91
  A 0.51 0.51 0.0 0 0 145.84 199.03
  L 145.35 200.29
  A 0.47 0.47 0.0 0 1 144.54 200.41
  L 143.65 199.29
  A 0.33 0.33 0.0 0 0 143.09 199.38
  L 142.65 200.49
  A 0.63 0.63 0.0 0 1 141.64 200.73
  L 140.86 200.04
  Q 140.39 199.61 140.07 200.17
  L 139.58 201.03
  Q 139.19 201.70 138.67 201.12
  L 137.94 200.30
  Q 137.48 199.80 137.12 200.37
  L 136.39 201.54
  Q 135.94 202.24 135.60 201.49
  L 135.20 200.62
  A 0.47 0.47 0.0 0 0 134.38 200.55
  L 133.60 201.70
  Q 133.12 202.41 132.72 201.66
  L 132.26 200.81
  Q 131.96 200.24 131.54 200.73
  L 130.83 201.54
  Q 130.28 202.17 129.78 201.51
  L 129.32 200.88
  Q 128.97 200.41 128.55 200.83
  L 127.59 201.78
  Q 127.15 202.22 126.86 201.67
  L 126.15 200.32
  Q 125.99 200.01 125.77 200.28
  L 124.53 201.74
  A 0.47 0.47 0.0 0 1 123.72 201.30
  Q 123.93 200.63 123.33 200.24
  Q 122.84 199.91 122.47 200.38
  L 121.87 201.15
  A 0.49 0.48 49.1 0 1 121.07 201.09
  L 120.52 200.12
  Q 120.15 199.48 119.62 200.00
  L 118.82 200.81
  A 0.46 0.46 0.0 0 1 118.08 200.69
  L 117.63 199.76
  A 0.39 0.39 0.0 0 0 117.20 199.55
  Q 116.21 199.76 116.18 200.57
  Q 116.11 202.19 115.40 200.55
  L 114.89 199.35
  A 0.55 0.54 62.4 0 0 114.10 199.10
  L 113.15 199.70
  Q 112.54 200.08 112.28 199.40
  L 111.96 198.52
  Q 111.77 198.00 111.31 198.31
  L 110.31 198.97
  Q 109.77 199.34 109.43 198.78
  Q 108.28 196.90 110.28 195.73
  A 0.64 0.63 -19.1 0 1 111.23 196.19
  L 111.32 196.81
  Q 111.44 197.69 112.13 197.13
  L 113.08 196.35
  A 0.44 0.44 0.0 0 1 113.75 196.50
  L 114.34 197.70
  Q 114.64 198.31 115.09 197.80
  L 115.81 197.01
  A 0.53 0.53 0.0 0 1 116.67 197.11
  L 117.09 197.86
  Q 117.33 198.31 117.75 198.01
  L 118.85 197.21
  A 0.57 0.57 0.0 0 1 119.75 197.67
  L 119.75 198.24
  A 0.47 0.47 0.0 0 0 120.55 198.57
  L 121.41 197.72
  A 0.49 0.49 0.0 0 1 122.16 197.78
  L 123.05 199.04
  A 0.50 0.50 0.0 0 0 123.95 198.70
  Q 123.88 197.89 124.68 197.69
  A 0.42 0.42 0.0 0 1 125.20 198.03
  L 125.28 198.64
  Q 125.35 199.13 125.84 199.14
  Q 126.60 199.15 126.93 198.37
  A 0.52 0.51 -52.0 0 1 127.82 198.26
  L 128.49 199.16
  A 0.57 0.56 -67.5 0 0 129.50 198.74
  Q 129.43 198.22 129.97 197.99
  Q 130.58 197.72 130.90 198.31
  L 131.23 198.92
  Q 131.83 200.05 132.29 198.86
  L 132.57 198.14
  A 0.51 0.51 0.0 0 1 133.43 197.99
  L 134.00 198.64
  Q 134.26 198.95 134.67 198.91
  Q 135.39 198.84 135.24 198.19
  A 0.50 0.50 0.0 0 1 136.09 197.74
  L 137.12 198.84
  A 0.47 0.47 0.0 0 0 137.90 198.69
  L 138.20 197.91
  Q 138.50 197.13 139.09 197.72
  L 139.79 198.41
  Q 140.35 198.98 140.73 198.28
  L 141.05 197.67
  Q 141.49 196.86 142.13 197.51
  L 142.65 198.03
  Q 143.23 198.61 143.54 197.85
  L 143.94 196.88
  A 0.41 0.41 0.0 0 1 144.60 196.74
  L 145.62 197.71
  A 0.52 0.52 0.0 0 0 146.50 197.33
  L 146.50 196.42
  A 0.52 0.52 0.0 0 1 147.38 196.04
  L 148.50 197.10
  Q 148.92 197.50 149.06 196.94
  L 149.36 195.81
  Q 149.49 195.30 149.97 195.52
  L 151.32 196.15
  Q 151.94 196.43 151.99 195.76
  L 152.03 195.20
  A 0.52 0.52 0.0 0 1 152.82 194.80
  L 153.93 195.50
  A 0.54 0.53 16.0 0 0 154.75 195.05
  L 154.75 194.28
  A 0.47 0.47 0.0 0 1 155.40 193.84
  Q 156.54 194.32 157.21 195.49
  Z"
/>
<path fill="white" d="
  M 179.85 198.87
  Q 180.12 199.00 180.20 199.02
  A 0.69 0.63 -50.5 0 1 180.26 200.28
  Q 179.06 200.86 178.40 199.78
  Q 178.13 199.32 177.60 199.20
  C 174.60 198.52 171.91 197.63 168.78 197.44
  Q 166.24 197.28 163.63 197.09
  A 0.30 0.30 0.0 0 1 163.57 196.50
  Q 166.52 195.69 168.27 195.78
  Q 174.36 196.08 179.85 198.87
  Z"
/>
<path fill="white" d="
  M 109.62 211.34
  A 0.71 0.71 0.0 0 1 108.80 212.25
  L 108.39 212.17
  Q 107.66 212.02 107.83 211.31
  Q 107.93 210.91 107.97 210.50
  Q 107.99 210.28 107.88 210.06
  Q 104.68 203.53 99.61 198.28
  Q 99.29 197.95 99.56 197.59
  Q 99.79 197.29 100.19 197.59
  Q 106.87 202.54 109.62 211.34
  Z"
/>
<path fill="white" d="
  M 150.97 216.37
  Q 152.04 217.08 151.42 217.95
  Q 151.09 218.42 151.12 218.99
  L 151.29 221.89
  Q 151.35 222.88 150.66 222.16
  Q 149.75 221.22 149.42 219.95
  Q 149.31 219.50 148.99 219.16
  L 148.09 218.17
  Q 147.71 217.76 148.08 217.34
  L 148.67 216.66
  A 0.36 0.36 0.0 0 0 148.34 216.07
  L 146.87 216.29
  A 0.46 0.46 0.0 0 1 146.59 215.43
  Q 148.79 214.27 147.78 212.92
  Q 146.22 210.85 144.56 208.84
  Q 144.23 208.44 144.49 207.99
  L 146.96 203.63
  Q 147.32 203.01 147.84 203.49
  L 151.96 207.26
  A 0.62 0.61 45.9 0 1 151.95 208.18
  Q 151.12 208.90 151.26 210.01
  A 0.44 0.43 -40.6 0 0 152.11 210.07
  Q 154.36 202.29 161.10 197.76
  A 0.45 0.45 0.0 0 1 161.67 198.46
  Q 156.67 203.36 153.35 209.54
  A 1.26 1.25 -38.3 0 0 153.24 210.44
  Q 153.41 211.15 152.95 211.76
  Q 152.50 212.34 151.89 211.94
  L 150.90 211.28
  A 0.41 0.41 0.0 0 0 150.27 211.62
  L 150.24 213.25
  A 0.55 0.54 8.7 0 0 150.63 213.77
  L 152.45 214.33
  A 0.45 0.44 -48.6 0 1 152.50 215.16
  L 151.02 215.81
  Q 150.49 216.05 150.97 216.37
  Z
  M 148.59 209.31
  L 148.02 209.00
  A 0.39 0.39 0.0 0 0 147.49 209.18
  Q 146.87 210.57 148.50 211.07
  A 1.09 1.09 0.0 0 0 149.87 209.74
  L 148.96 206.40
  A 0.88 0.88 0.0 0 0 147.29 206.31
  L 146.71 207.82
  A 0.48 0.47 89.0 0 0 147.34 208.43
  L 148.56 207.91
  A 0.55 0.54 5.2 0 1 149.23 208.71
  L 148.88 209.23
  A 0.23 0.22 -60.2 0 1 148.59 209.31
  Z"
/>
<path fill="white" d="
  M 149.16 202.17
  C 150.10 200.32 152.11 200.83 153.75 200.45
  A 0.77 0.77 0.0 0 1 154.12 201.94
  L 149.86 203.04
  A 0.61 0.61 0.0 0 1 149.16 202.17
  Z"
/>
<path fill="white" d="
  M 111.61 201.84
  Q 112.20 201.74 112.25 202.69
  A 0.70 0.69 84.0 0 1 111.67 203.41
  Q 109.31 203.78 107.52 202.46
  A 0.83 0.83 0.0 0 1 108.25 200.99
  L 111.09 201.81
  Q 111.35 201.89 111.61 201.84
  Z"
/>
<path fill="white" d="
  M 120.56 203.19
  Q 121.35 203.17 121.63 203.92
  A 0.89 0.88 86.0 0 1 120.61 205.10
  L 116.60 204.19
  A 0.64 0.64 0.0 0 1 116.50 202.97
  Q 118.69 202.10 120.56 203.19
  Z"
/>
<path fill="white" d="
  M 142.28 204.52
  L 140.84 205.02
  A 0.81 0.81 0.0 0 1 140.25 203.51
  Q 142.32 202.59 144.69 202.84
  A 0.63 0.63 0.0 0 1 145.00 203.97
  Q 143.87 204.81 143.07 204.52
  Q 142.67 204.38 142.28 204.52
  Z"
/>
<path fill="white" d="
  M 145.91 212.43
  A 0.65 0.65 0.0 0 1 144.99 213.34
  Q 144.39 212.90 144.07 212.16
  A 2.36 2.25 9.3 0 0 143.41 211.29
  Q 138.12 206.92 131.78 204.12
  A 0.41 0.41 0.0 0 1 132.04 203.34
  Q 140.64 205.32 145.91 212.43
  Z"
/>
<path fill="white" d="
  M 112.24 216.55
  L 112.76 217.15
  A 0.60 0.59 -52.3 0 1 112.84 217.81
  L 110.82 221.92
  A 0.56 0.55 -65.7 0 1 110.12 222.19
  Q 109.55 221.95 109.67 221.47
  Q 110.14 219.49 109.55 217.92
  Q 109.40 217.52 109.69 217.21
  L 110.42 216.42
  A 0.31 0.31 0.0 0 0 110.30 215.92
  L 109.02 215.42
  Q 108.20 215.10 108.73 214.40
  Q 109.21 213.77 109.98 214.06
  A 1.04 1.03 0.2 0 0 111.31 212.74
  L 109.59 207.85
  Q 109.41 207.33 109.83 206.98
  L 113.91 203.62
  A 0.54 0.53 -32.1 0 1 114.74 203.81
  L 116.91 208.60
  A 0.87 0.86 53.8 0 1 116.77 209.54
  L 115.13 211.35
  Q 114.65 211.87 115.34 212.01
  Q 115.81 212.11 116.16 211.67
  Q 121.41 205.12 129.46 203.74
  A 0.33 0.33 0.0 0 1 129.64 204.37
  C 125.73 206.07 118.34 209.65 116.32 213.58
  A 0.60 0.59 44.3 0 1 115.27 213.59
  L 114.80 212.72
  Q 114.55 212.27 114.09 212.50
  Q 113.09 213.00 113.01 214.17
  A 0.65 0.65 0.0 0 0 113.41 214.81
  L 114.64 215.34
  A 0.63 0.63 0.0 0 1 114.65 216.49
  Q 113.55 216.98 112.62 216.17
  A 0.27 0.27 0.0 0 0 112.24 216.55
  Z
  M 113.45 208.18
  L 114.32 208.50
  Q 115.47 208.93 114.81 207.89
  L 113.91 206.48
  A 0.61 0.61 0.0 0 0 112.98 206.37
  Q 111.28 207.98 111.81 210.35
  A 1.14 1.14 0.0 0 0 113.93 210.62
  L 114.42 209.67
  Q 114.56 209.40 114.26 209.42
  L 112.43 209.50
  A 0.56 0.56 0.0 0 1 112.12 208.46
  L 112.43 208.27
  Q 112.92 207.99 113.45 208.18
  Z"
/>
</svg>
