<?xml version="1.0" encoding="UTF-8" standalone="no"?>
<!DOCTYPE svg PUBLIC "-//W3C//DTD SVG 1.1//EN" "http://www.w3.org/Graphics/SVG/1.1/DTD/svg11.dtd">
<svg xmlns="http://www.w3.org/2000/svg" version="1.1" viewBox="0.00 0.00 214.00 236.00">
<path stroke="white" stroke-width="2.00" fill="none" stroke-linecap="butt" vector-effect="non-scaling-stroke" d="
  M 100.84 199.91
  Q 100.59 199.62 100.95 199.08"
/>
<path fill="white" d="
  M 124.04 28.01
  Q 125.43 28.23 125.81 26.22
  A 0.15 0.15 0.0 0 0 125.76 26.07
  L 124.16 24.72
  A 0.55 0.55 0.0 0 1 124.66 23.77
  L 126.07 24.15
  A 0.38 0.38 0.0 0 0 126.47 23.56
  Q 125.34 22.08 126.82 21.29
  A 0.81 0.81 0.0 0 0 127.25 20.47
  Q 127.09 19.03 128.38 18.50
  Q 128.91 18.27 129.08 18.82
  Q 129.48 20.11 128.74 21.23
  A 0.46 0.46 0.0 0 0 128.93 21.90
  L 129.52 22.17
  A 0.33 0.33 0.0 0 1 129.63 22.69
  L 128.36 24.13
  Q 127.72 24.86 128.69 24.76
  Q 129.84 24.64 130.21 25.64
  Q 130.43 26.25 129.78 26.25
  L 128.97 26.25
  A 1.34 1.34 0.0 0 0 127.71 28.05
  L 129.30 32.41
  A 0.92 0.89 60.7 0 1 129.03 33.42
  L 125.01 36.75
  A 0.53 0.53 0.0 0 1 124.19 36.57
  L 122.16 32.24
  A 1.68 1.67 -32.9 0 1 122.59 30.26
  Q 123.71 29.30 124.04 28.01
  Z
  M 126.66 31.14
  A 0.19 0.19 0.0 0 0 126.85 31.02
  Q 127.45 29.68 126.23 28.92
  A 0.60 0.59 -60.0 0 0 125.39 29.15
  L 124.59 30.67
  Q 124.42 31.01 124.80 31.03
  L 126.66 31.14
  Z
  M 126.24 32.20
  L 125.27 31.95
  A 0.93 0.93 0.0 0 0 124.52 33.62
  Q 125.87 34.55 126.66 33.25
  A 0.71 0.70 -67.0 0 0 126.24 32.20
  Z"
/>
<path fill="white" d="
  M 88.18 24.15
  L 87.17 23.35
  A 0.44 0.43 -45.3 0 1 87.17 22.68
  L 87.82 22.14
  Q 88.22 21.82 88.05 21.34
  Q 87.70 20.38 87.69 19.20
  A 0.92 0.81 48.0 0 1 89.42 19.40
  Q 89.44 21.08 90.62 22.19
  Q 90.99 22.55 90.76 23.00
  L 90.25 23.99
  Q 89.74 24.98 90.74 24.50
  L 91.54 24.12
  Q 92.05 23.88 92.28 24.39
  L 92.53 24.92
  Q 92.93 25.78 91.98 25.80
  Q 90.78 25.84 90.73 26.92
  Q 90.71 27.40 91.02 27.77
  L 94.41 31.75
  A 0.56 0.55 -49.8 0 1 94.46 32.39
  L 91.75 37.04
  A 0.43 0.43 0.0 0 1 91.08 37.14
  L 87.13 33.46
  A 1.00 0.99 -57.7 0 1 86.89 32.37
  L 88.65 28.05
  A 1.13 1.12 -78.9 0 0 87.61 26.50
  L 86.81 26.50
  Q 85.72 26.50 86.43 25.67
  Q 87.06 24.95 88.02 24.78
  A 0.36 0.36 0.0 0 0 88.18 24.15
  Z
  M 91.50 30.57
  L 91.00 29.53
  Q 90.55 28.61 89.90 29.41
  L 89.05 30.45
  A 0.57 0.56 16.5 0 0 89.55 31.36
  L 91.15 31.20
  Q 91.78 31.14 91.50 30.57
  Z
  M 89.50 32.69
  A 0.21 0.21 0.0 0 0 89.35 33.03
  L 90.38 34.29
  Q 91.12 35.20 91.58 34.12
  L 92.00 33.16
  A 0.41 0.41 0.0 0 0 91.60 32.59
  L 89.50 32.69
  Z"
/>
<path fill="white" d="
  M 124.04 28.01
  C 123.24 28.49 122.67 28.68 122.06 29.42
  Q 117.09 35.33 109.56 36.61
  A 0.41 0.41 0.0 0 1 109.34 35.83
  Q 115.99 33.22 121.44 28.64
  Q 121.83 28.32 122.05 27.86
  L 122.56 26.82
  A 0.59 0.59 0.0 0 1 123.54 26.69
  Q 124.09 27.33 124.04 28.01
  Z"
/>
<path fill="white" d="
  M 107.29 36.76
  A 0.30 0.29 62.1 0 1 107.12 37.32
  Q 99.39 36.09 94.49 30.00
  Q 94.15 29.57 93.64 29.36
  Q 92.77 29.02 92.70 27.96
  A 0.69 0.69 0.0 0 1 94.00 27.59
  C 95.97 31.34 103.04 34.73 107.29 36.76
  Z"
/>
<path fill="white" d="
  M 138.70 42.67
  C 134.53 39.76 131.35 35.84 130.21 30.82
  A 1.42 1.40 -80.7 0 0 129.58 29.93
  Q 128.56 29.28 129.36 28.29
  A 0.70 0.69 -42.2 0 1 130.48 28.34
  Q 130.98 29.09 131.01 30.00
  Q 131.03 30.50 131.26 30.94
  Q 134.45 37.06 139.23 42.05
  A 0.41 0.41 0.0 0 1 138.70 42.67
  Z"
/>
<path fill="white" d="
  M 85.53 28.83
  A 0.67 0.67 0.0 0 1 86.77 28.73
  Q 87.41 30.00 86.40 30.76
  Q 86.01 31.06 85.86 31.52
  Q 83.51 38.77 77.02 42.81
  A 0.37 0.37 0.0 0 1 76.57 42.23
  C 80.43 38.40 83.84 34.13 85.53 28.83
  Z"
/>
<path fill="white" d="
  M 163.74 39.63
  Q 164.47 39.94 164.94 40.59
  Q 165.69 41.62 164.46 41.30
  L 163.35 41.01
  Q 161.87 40.62 161.72 42.14
  L 161.24 47.21
  A 0.74 0.73 84.3 0 1 160.71 47.86
  L 155.76 49.32
  Q 155.26 49.47 155.23 48.95
  L 154.89 43.68
  Q 154.86 43.12 155.35 42.83
  L 157.20 41.77
  Q 157.77 41.44 157.25 41.03
  Q 156.94 40.79 156.34 41.14
  Q 149.12 45.35 141.34 43.20
  A 0.34 0.34 0.0 0 1 141.43 42.53
  Q 147.83 42.51 153.94 40.95
  C 155.46 40.57 156.30 39.55 157.94 39.26
  Q 158.60 39.14 158.43 39.79
  L 158.31 40.28
  A 0.57 0.57 0.0 0 0 158.77 40.99
  Q 160.10 41.18 160.52 39.80
  A 0.64 0.64 0.0 0 0 160.23 39.07
  Q 159.28 38.51 159.53 37.37
  A 0.54 0.54 0.0 0 1 160.35 37.02
  L 161.58 37.80
  A 0.35 0.34 -83.0 0 0 162.09 37.40
  L 161.88 36.73
  A 0.66 0.66 0.0 0 1 162.31 35.89
  L 163.54 35.51
  A 0.56 0.54 4.0 0 0 163.84 35.26
  Q 164.45 34.12 165.60 33.55
  Q 166.35 33.18 166.33 34.02
  Q 166.29 35.33 165.25 36.10
  Q 164.81 36.43 165.07 36.92
  L 165.36 37.46
  A 0.63 0.63 0.0 0 1 165.03 38.35
  L 163.75 38.85
  A 0.42 0.42 0.0 0 0 163.74 39.63
  Z
  M 158.83 44.21
  L 159.44 44.82
  Q 159.66 45.03 159.83 44.78
  Q 160.51 43.74 159.78 42.59
  A 1.19 1.19 0.0 0 0 157.63 43.52
  Q 157.77 44.10 158.18 44.01
  Q 158.56 43.93 158.83 44.21
  Z
  M 158.32 45.45
  L 157.64 44.77
  A 0.63 0.63 0.0 0 0 156.57 45.12
  Q 156.25 47.26 158.23 46.97
  A 0.81 0.79 -83.2 0 0 158.88 46.45
  Q 159.20 45.61 158.41 45.49
  A 0.23 0.22 -19.7 0 1 158.32 45.45
  Z"
/>
<path fill="white" d="
  M 54.76 43.34
  L 54.37 41.90
  Q 54.16 41.15 53.45 41.45
  L 52.37 41.92
  A 0.54 0.53 -19.0 0 1 51.64 41.57
  Q 51.34 40.48 52.35 39.81
  A 0.42 0.41 31.8 0 0 52.17 39.06
  Q 50.53 38.84 51.27 37.28
  A 0.72 0.71 -56.8 0 0 51.10 36.45
  Q 50.26 35.70 50.20 34.52
  A 0.65 0.65 0.0 0 1 51.45 34.23
  Q 52.22 36.00 54.11 36.44
  Q 54.67 36.58 54.52 37.13
  L 54.28 38.07
  A 0.45 0.45 0.0 0 0 55.06 38.48
  Q 55.75 37.69 56.76 37.86
  A 0.31 0.31 0.0 0 1 56.94 38.37
  L 55.71 39.80
  Q 55.11 40.49 55.93 40.90
  L 61.22 43.52
  A 0.61 0.60 -74.9 0 1 61.55 44.11
  L 61.19 49.41
  Q 61.15 50.05 60.54 49.84
  L 55.25 48.02
  A 0.82 0.81 -74.9 0 1 54.72 47.09
  Q 54.90 46.19 54.47 45.36
  A 0.49 0.48 26.1 0 0 53.56 45.67
  Q 55.14 53.93 50.08 60.61
  A 0.34 0.34 0.0 0 1 49.51 60.26
  Q 53.18 52.47 52.51 43.92
  A 0.42 0.41 -83.7 0 1 53.04 43.49
  L 54.25 43.85
  Q 54.96 44.05 54.76 43.34
  Z
  M 56.13 43.66
  Q 55.92 44.11 55.79 44.40
  A 0.70 0.70 0.0 0 0 56.93 45.19
  L 58.05 44.07
  A 0.64 0.64 0.0 0 0 57.61 42.98
  Q 56.46 42.97 56.13 43.66
  Z
  M 59.40 47.16
  Q 60.16 45.75 59.84 45.53
  A 1.52 1.52 0.0 0 0 57.51 47.18
  Q 57.71 47.89 59.24 47.30
  A 0.30 0.28 1.9 0 0 59.40 47.16
  Z"
/>
<path fill="white" d="
  M 95.86 36.82
  Q 95.59 37.56 94.74 37.85
  A 0.87 0.87 0.0 0 1 94.06 36.25
  Q 96.13 35.16 98.39 35.87
  A 0.63 0.63 0.0 0 1 98.54 37.00
  Q 97.32 37.80 96.33 36.73
  Q 96.01 36.39 95.86 36.82
  Z"
/>
<path fill="white" d="
  M 119.66 36.85
  Q 119.77 36.96 119.78 37.16
  A 0.16 0.16 0.0 0 1 119.58 37.32
  L 117.41 36.80
  A 0.56 0.56 0.0 0 1 117.40 35.72
  Q 119.82 35.06 121.98 36.16
  Q 122.40 36.37 122.38 36.85
  Q 122.33 37.82 121.80 37.90
  Q 121.52 37.94 121.16 37.60
  Q 120.56 37.03 119.92 36.56
  A 0.20 0.20 0.0 0 0 119.66 36.85
  Z"
/>
<path fill="white" d="
  M 128.50 38.71
  Q 127.50 38.80 126.68 38.09
  A 0.56 0.56 0.0 0 1 126.93 37.12
  Q 129.57 36.53 131.71 38.36
  A 0.51 0.51 0.0 0 1 131.46 39.25
  Q 130.33 39.44 129.37 38.90
  Q 128.97 38.67 128.50 38.71
  Z"
/>
<path fill="white" d="
  M 87.32 39.57
  A 0.90 0.90 0.0 0 1 87.46 37.78
  L 89.00 37.71
  Q 89.74 37.68 89.46 38.37
  Q 88.85 39.88 87.32 39.57
  Z"
/>
<path fill="white" d="
  M 137.77 45.52
  L 136.21 46.53
  Q 135.70 46.86 135.56 46.27
  L 135.24 45.00
  Q 135.07 44.31 134.56 44.81
  L 133.66 45.71
  A 0.51 0.51 0.0 0 1 132.79 45.39
  L 132.73 44.61
  Q 132.67 43.83 131.90 44.00
  Q 131.30 44.13 130.95 44.70
  A 0.44 0.44 0.0 0 1 130.14 44.57
  L 129.87 43.44
  Q 129.72 42.84 129.21 43.19
  L 128.04 44.00
  Q 127.41 44.43 127.33 43.67
  L 127.21 42.46
  A 0.36 0.35 64.7 0 0 126.61 42.24
  L 125.46 43.39
  A 0.53 0.53 0.0 0 1 124.56 43.12
  L 124.38 42.20
  Q 124.18 41.19 123.46 41.92
  L 122.62 42.75
  A 0.47 0.47 0.0 0 1 121.83 42.55
  L 121.48 41.34
  Q 121.12 40.12 120.59 41.28
  L 120.15 42.25
  A 0.46 0.46 0.0 0 1 119.32 42.26
  L 118.83 41.24
  A 0.62 0.61 -33.6 0 0 117.87 41.05
  L 117.06 41.78
  Q 116.50 42.28 116.24 41.58
  L 115.99 40.94
  A 0.52 0.51 -31.9 0 0 115.15 40.75
  L 114.23 41.61
  A 0.54 0.53 59.6 0 1 113.36 41.38
  L 113.07 40.44
  Q 112.81 39.61 112.30 40.32
  L 111.48 41.45
  Q 110.90 42.26 110.53 41.33
  Q 110.33 40.83 109.98 40.36
  Q 109.54 39.79 109.19 40.42
  L 108.64 41.45
  A 0.50 0.50 0.0 0 1 107.75 41.42
  L 107.29 40.40
  A 0.46 0.46 0.0 0 0 106.48 40.36
  L 106.05 41.06
  Q 105.63 41.76 105.06 41.18
  L 104.33 40.45
  A 0.46 0.46 0.0 0 0 103.60 40.56
  L 103.00 41.68
  A 0.45 0.45 0.0 0 1 102.16 41.56
  Q 102.01 40.84 101.31 40.74
  Q 100.77 40.66 100.58 41.17
  L 100.23 42.09
  A 0.43 0.43 0.0 0 1 99.45 42.13
  L 98.79 40.85
  A 0.47 0.47 0.0 0 0 97.94 40.90
  L 97.42 42.31
  A 0.44 0.44 0.0 0 1 96.67 42.43
  L 95.88 41.47
  A 0.35 0.34 42.0 0 0 95.33 41.49
  L 94.50 42.73
  A 0.44 0.44 0.0 0 1 93.73 42.68
  Q 93.35 41.90 92.50 42.00
  Q 92.05 42.05 92.01 42.51
  L 91.97 43.10
  Q 91.90 44.02 91.25 43.37
  L 90.42 42.55
  A 0.54 0.54 0.0 0 0 89.52 42.78
  L 89.18 43.90
  A 0.43 0.43 0.0 0 1 88.46 44.08
  L 87.57 43.20
  A 0.44 0.44 0.0 0 0 86.83 43.40
  L 86.54 44.54
  Q 86.31 45.40 85.62 44.85
  L 84.65 44.08
  A 0.38 0.38 0.0 0 0 84.05 44.28
  L 83.81 45.20
  Q 83.64 45.84 83.06 45.54
  L 81.96 44.97
  Q 81.40 44.69 81.25 45.30
  L 80.94 46.52
  A 0.27 0.26 24.3 0 1 80.53 46.67
  L 79.29 45.82
  A 0.45 0.45 0.0 0 0 78.59 46.11
  L 78.39 47.30
  A 0.49 0.49 0.0 0 1 77.63 47.62
  L 76.69 47.00
  Q 76.08 46.60 76.02 47.33
  L 75.97 48.06
  A 0.67 0.67 0.0 0 1 75.03 48.62
  L 74.08 48.18
  Q 73.46 47.90 73.50 48.58
  Q 73.50 48.72 73.50 48.85
  Q 73.49 50.16 72.26 49.71
  Q 70.20 48.95 71.12 47.08
  Q 71.38 46.55 71.90 46.82
  L 72.65 47.21
  A 0.54 0.54 0.0 0 0 73.43 46.83
  L 73.67 45.58
  Q 73.79 44.93 74.34 45.30
  L 75.84 46.31
  Q 76.25 46.58 76.25 46.09
  L 76.25 44.90
  Q 76.25 44.26 76.87 44.43
  L 78.53 44.90
  Q 78.89 45.00 78.92 44.63
  L 79.03 43.58
  A 0.48 0.48 0.0 0 1 79.73 43.20
  L 80.94 43.85
  Q 81.68 44.25 81.72 43.42
  L 81.76 42.45
  Q 81.79 41.95 82.28 41.99
  Q 83.03 42.05 83.28 42.87
  A 0.48 0.48 0.0 0 0 84.20 42.87
  L 84.65 41.39
  A 0.47 0.47 0.0 0 1 85.40 41.17
  L 86.58 42.14
  Q 86.88 42.39 87.01 42.02
  L 87.42 40.89
  A 0.56 0.56 0.0 0 1 88.21 40.59
  L 88.60 40.81
  Q 89.40 41.23 89.86 40.46
  L 90.14 39.98
  A 0.67 0.67 0.0 0 1 91.12 39.80
  L 92.10 40.59
  Q 92.62 41.00 92.83 40.37
  L 93.12 39.54
  Q 93.31 38.98 93.81 39.29
  L 94.85 39.95
  Q 95.43 40.31 95.75 39.71
  L 96.20 38.88
  Q 96.57 38.19 96.99 38.84
  L 97.52 39.66
  A 0.55 0.55 0.0 0 0 98.50 39.55
  L 98.90 38.46
  A 0.46 0.46 0.0 0 1 99.66 38.29
  L 100.54 39.17
  Q 100.97 39.59 101.32 39.11
  L 101.95 38.28
  Q 102.42 37.64 102.90 38.28
  L 103.46 39.04
  A 0.53 0.53 0.0 0 0 104.35 38.98
  L 104.83 38.15
  A 0.51 0.51 0.0 0 1 105.68 38.09
  L 106.42 39.07
  A 0.49 0.48 39.9 0 0 107.24 39.00
  L 107.76 38.00
  A 0.49 0.48 39.9 0 1 108.58 37.93
  L 109.42 39.03
  Q 109.84 39.59 110.16 38.96
  L 110.68 37.89
  Q 111.02 37.19 111.49 37.82
  L 112.25 38.84
  A 0.52 0.52 0.0 0 0 113.05 38.88
  L 113.84 38.04
  Q 114.18 37.68 114.48 38.07
  L 115.17 38.94
  A 0.63 0.63 0.0 0 0 116.12 39.00
  L 116.80 38.33
  Q 117.24 37.89 117.56 38.42
  L 118.07 39.27
  Q 118.46 39.91 118.99 39.38
  L 119.59 38.78
  Q 120.23 38.14 120.58 38.98
  L 120.94 39.86
  A 0.44 0.44 0.0 0 0 121.72 39.92
  Q 122.15 39.21 122.97 39.24
  Q 123.48 39.26 123.63 39.74
  L 123.80 40.27
  A 0.45 0.45 0.0 0 0 124.50 40.50
  L 125.46 39.81
  A 0.59 0.59 0.0 0 1 126.37 40.13
  L 126.62 40.99
  Q 126.81 41.69 127.39 41.26
  L 128.32 40.56
  Q 128.79 40.21 128.97 40.77
  L 129.22 41.55
  Q 129.48 42.40 130.25 41.95
  L 131.09 41.47
  A 0.61 0.61 0.0 0 1 131.98 41.82
  L 132.12 42.25
  A 0.70 0.69 68.3 0 0 133.09 42.67
  L 134.14 42.16
  A 0.52 0.51 -18.6 0 1 134.87 42.52
  L 135.03 43.37
  A 0.41 0.40 73.2 0 0 135.57 43.67
  L 136.81 43.19
  Q 137.37 42.97 137.62 43.51
  Q 137.94 44.20 137.77 45.52
  Z"
/>
<ellipse fill="white" cx="0.00" cy="0.00" transform="translate(85.51,39.08) rotate(132.3)" rx="1.28" ry="0.85"/>
<path fill="white" d="
  M 59.94 41.56
  A 1.18 1.13 -29.5 0 0 59.47 41.44
  Q 58.54 41.42 58.07 40.64
  A 0.57 0.57 0.0 0 1 58.39 39.80
  Q 59.42 39.49 60.06 40.16
  Q 60.46 40.57 61.00 40.75
  Q 67.77 42.93 74.89 42.74
  A 0.37 0.37 0.0 0 1 74.99 43.47
  Q 67.22 45.32 59.94 41.56
  Z"
/>
<path fill="white" d="
  M 162.68 47.19
  Q 162.79 45.38 162.45 43.85
  A 0.78 0.78 0.0 0 1 163.77 43.14
  Q 164.69 44.10 163.87 45.03
  A 0.96 0.94 -29.2 0 0 163.64 45.81
  Q 164.09 48.37 164.43 50.89
  C 164.86 54.01 166.27 56.87 167.00 59.99
  A 0.26 0.26 0.0 0 1 166.54 60.20
  Q 162.23 54.43 162.68 47.19
  Z"
/>
<path fill="white" d="
  M 137.77 45.52
  Q 138.61 44.50 139.59 44.25
  Q 140.25 44.09 140.25 44.77
  L 140.25 45.54
  Q 140.25 46.46 141.07 46.05
  L 142.34 45.44
  A 0.44 0.44 0.0 0 1 142.96 45.73
  L 143.23 46.91
  Q 143.36 47.44 143.85 47.20
  L 144.93 46.67
  Q 145.42 46.43 145.60 46.95
  Q 146.41 49.27 143.97 49.95
  Q 143.28 50.14 143.26 49.43
  L 143.22 48.36
  Q 143.20 47.67 142.61 48.04
  L 141.22 48.92
  A 0.42 0.42 0.0 0 1 140.58 48.47
  L 140.78 47.56
  A 0.52 0.52 0.0 0 0 140.04 46.98
  L 138.82 47.58
  Q 138.24 47.86 138.12 47.23
  L 137.77 45.52
  Z"
/>
<path fill="white" d="
  M 66.81 45.47
  A 0.59 0.59 0.0 0 1 67.52 46.39
  Q 66.11 47.96 64.15 48.91
  A 0.91 0.91 0.0 0 1 63.33 47.28
  L 66.81 45.47
  Z"
/>
<path fill="white" d="
  M 153.30 47.84
  A 0.51 0.51 0.0 0 1 153.31 48.57
  L 153.08 48.80
  A 0.51 0.50 38.3 0 1 152.46 48.87
  L 149.21 46.94
  A 0.76 0.76 0.0 0 1 149.77 45.54
  Q 151.22 45.87 153.30 47.84
  Z"
/>
<path fill="white" d="
  M 148.67 50.00
  L 149.50 49.84
  A 1.11 1.11 0.0 0 1 150.72 51.39
  Q 150.20 52.55 148.78 52.74
  Q 148.25 52.81 148.25 52.27
  L 148.25 51.13
  Q 148.25 50.35 147.56 50.72
  L 146.48 51.30
  Q 145.85 51.64 145.75 50.94
  Q 145.46 49.09 147.04 48.13
  A 0.79 0.79 0.0 0 1 148.24 48.84
  L 148.21 49.60
  Q 148.18 50.10 148.67 50.00
  Z"
/>
<path fill="white" d="
  M 52.28 62.71
  L 52.24 60.96
  Q 52.22 60.14 53.04 60.25
  L 53.59 60.32
  A 0.56 0.55 -82.1 0 0 54.21 59.85
  L 54.41 58.54
  Q 54.48 58.05 54.96 58.20
  L 55.62 58.41
  Q 56.16 58.58 56.24 58.02
  Q 56.43 56.57 57.90 56.32
  Q 58.42 56.23 58.61 55.74
  Q 59.06 54.65 60.29 54.62
  Q 60.68 54.61 60.79 54.23
  Q 61.15 52.87 62.56 52.71
  A 0.83 0.83 0.0 0 0 63.25 52.16
  Q 63.70 50.81 65.07 51.41
  Q 65.70 51.70 65.74 51.00
  L 65.78 50.16
  Q 65.81 49.51 66.46 49.58
  Q 67.14 49.66 67.76 49.64
  Q 68.75 49.62 68.64 49.07
  A 0.90 0.89 20.1 0 1 70.22 48.34
  Q 71.11 49.46 70.63 51.13
  A 0.44 0.44 0.0 0 1 69.83 51.22
  Q 69.61 50.81 68.92 51.13
  A 1.00 0.94 -86.1 0 0 68.47 51.55
  Q 68.00 52.40 66.99 52.50
  A 0.95 0.94 -84.5 0 0 66.17 53.18
  Q 65.82 54.33 64.63 54.26
  A 0.82 0.81 -79.0 0 0 63.82 54.81
  Q 63.44 56.00 62.18 55.73
  A 0.56 0.56 0.0 0 0 61.50 56.28
  L 61.50 56.97
  A 0.57 0.57 0.0 0 1 60.82 57.53
  Q 58.97 57.16 59.27 59.05
  A 0.44 0.44 0.0 0 1 58.71 59.54
  Q 56.96 59.03 56.72 60.71
  Q 56.63 61.30 56.03 61.25
  Q 54.60 61.13 54.60 62.64
  Q 54.60 63.25 54.00 63.25
  L 53.25 63.25
  Q 52.75 63.25 52.75 63.75
  L 52.75 64.27
  A 0.76 0.76 0.0 0 1 51.99 65.03
  Q 49.56 65.05 50.38 62.74
  Q 50.52 62.33 50.94 62.47
  L 52.07 62.86
  Q 52.28 62.94 52.28 62.71
  Z"
/>
<path fill="white" d="
  M 157.55 49.99
  A 0.19 0.19 0.0 0 1 157.81 49.96
  L 159.64 51.35
  A 2.75 0.75 37.4 0 1 161.37 53.62
  L 161.15 53.90
  A 2.75 0.75 37.4 0 1 158.51 52.83
  L 156.68 51.43
  A 0.19 0.19 0.0 0 1 156.65 51.17
  L 157.55 49.99
  Z"
/>
<path fill="white" d="
  M 152.60 53.74
  L 151.13 54.34
  Q 150.60 54.56 150.56 53.99
  Q 150.37 51.64 152.58 51.01
  A 0.63 0.63 0.0 0 1 153.21 52.06
  Q 152.92 52.36 153.11 52.72
  Q 153.38 53.23 153.93 53.05
  L 154.77 52.77
  Q 155.66 52.48 155.67 53.41
  Q 155.70 55.48 153.65 55.85
  Q 152.96 55.97 153.01 55.27
  L 153.10 54.10
  Q 153.14 53.52 152.60 53.74
  Z"
/>
<path fill="white" d="
  M 55.85 55.30
  A 0.20 0.20 0.0 0 1 55.57 55.26
  L 55.53 55.21
  A 1.84 1.45 -37.4 0 1 56.11 52.94
  L 57.68 51.74
  A 1.84 1.45 -37.4 0 1 60.03 51.77
  L 60.07 51.83
  A 0.20 0.20 0.0 0 1 60.03 52.11
  L 55.85 55.30
  Z"
/>
<path fill="white" d="
  M 157.89 55.16
  Q 158.12 57.09 156.06 57.51
  A 1.09 1.09 0.0 0 1 155.34 55.48
  L 156.92 54.66
  Q 157.77 54.22 157.89 55.16
  Z"
/>
<path fill="white" d="
  M 157.22 58.82
  Q 157.56 56.67 159.73 56.33
  Q 160.19 56.26 160.24 56.72
  C 160.44 58.45 159.52 59.38 157.83 59.48
  Q 157.11 59.53 157.22 58.82
  Z"
/>
<path fill="white" d="
  M 159.51 60.63
  Q 160.03 58.28 161.27 58.20
  A 1.33 1.32 -56.0 0 1 161.76 60.78
  L 160.25 61.29
  A 0.57 0.57 0.0 0 1 159.51 60.63
  Z"
/>
<path fill="white" d="
  M 164.23 62.76
  L 162.04 63.21
  Q 161.51 63.33 161.54 62.78
  Q 161.65 60.38 164.00 60.24
  Q 164.58 60.20 164.50 60.78
  L 164.23 62.76
  Z"
/>
<path fill="white" d="
  M 190.50 66.66
  L 190.97 68.52
  A 0.50 0.50 0.0 0 1 190.13 69.00
  L 188.90 67.78
  Q 188.26 67.14 187.83 67.93
  L 185.11 73.04
  A 0.82 0.82 0.0 0 1 184.30 73.47
  L 179.22 72.91
  A 0.51 0.51 0.0 0 1 178.79 72.23
  L 180.47 67.50
  Q 180.70 66.87 181.36 66.82
  L 182.77 66.71
  A 0.61 0.61 0.0 0 0 183.30 65.91
  L 183.20 65.59
  A 0.48 0.48 0.0 0 0 182.52 65.32
  C 179.18 67.06 172.26 64.49 169.96 62.60
  Q 167.54 60.62 170.44 61.79
  Q 176.47 64.24 183.03 64.64
  A 0.45 0.42 -65.0 0 0 183.36 64.51
  L 183.79 64.08
  A 0.44 0.44 0.0 0 1 184.30 64.01
  Q 185.52 64.66 185.23 66.05
  A 0.59 0.58 86.1 0 0 186.00 66.73
  L 186.93 66.39
  A 0.67 0.66 73.2 0 0 187.35 65.60
  L 186.93 63.94
  A 0.47 0.46 11.8 0 1 187.67 63.46
  L 188.91 64.42
  A 0.54 0.54 0.0 0 0 189.73 64.23
  L 190.19 63.29
  A 0.50 0.50 0.0 0 1 190.66 63.00
  Q 190.82 63.00 190.97 63.00
  Q 191.55 63.00 191.40 63.56
  Q 191.31 63.88 191.30 64.20
  Q 191.28 64.47 191.44 64.61
  Q 191.56 64.72 191.71 64.72
  Q 191.93 64.73 191.92 64.51
  Q 191.86 63.22 193.22 62.47
  Q 194.26 61.89 194.88 62.63
  A 0.61 0.61 0.0 0 1 194.61 63.61
  Q 192.71 64.25 192.39 66.15
  A 0.56 0.56 0.0 0 1 191.50 66.50
  Q 191.20 66.28 190.84 66.25
  Q 190.38 66.22 190.50 66.66
  Z
  M 185.09 68.02
  Q 183.80 67.52 183.61 67.84
  A 1.51 1.51 0.0 0 0 185.46 70.00
  Q 186.07 69.77 185.56 68.49
  A 0.89 0.89 0.0 0 0 185.09 68.02
  Z
  M 181.21 69.75
  Q 180.83 71.52 182.79 71.79
  A 0.61 0.61 0.0 0 0 183.40 70.88
  L 182.61 69.52
  A 0.76 0.76 0.0 0 0 181.21 69.75
  Z"
/>
<path fill="white" d="
  M 34.65 64.99
  Q 41.87 64.37 48.54 61.55
  A 0.32 0.32 0.0 0 1 48.86 62.10
  Q 42.41 67.10 34.24 65.83
  Q 33.70 65.75 33.25 66.39
  Q 32.82 67.01 32.37 66.41
  L 31.78 65.63
  A 0.68 0.68 0.0 0 1 32.20 64.55
  Q 33.04 64.40 33.87 64.84
  Q 34.24 65.03 34.65 64.99
  Z"
/>
<path fill="white" d="
  M 164.23 62.76
  L 165.85 62.26
  Q 166.45 62.07 166.57 62.69
  Q 166.89 64.36 165.53 64.98
  A 1.17 1.17 0.0 0 1 163.95 63.49
  L 164.23 62.76
  Z"
/>
<path fill="white" d="
  M 29.03 68.86
  A 0.91 0.91 0.0 0 0 27.69 68.54
  L 26.61 69.32
  A 0.56 0.55 86.5 0 1 25.80 68.60
  L 26.54 67.25
  A 0.38 0.37 9.5 0 0 26.14 66.70
  L 25.31 66.85
  Q 24.58 66.98 24.39 66.26
  L 24.12 65.21
  A 0.74 0.73 -87.7 0 0 23.66 64.71
  Q 22.69 64.35 22.16 63.37
  A 0.73 0.73 0.0 0 1 23.33 62.53
  Q 24.58 63.86 26.34 63.61
  Q 26.85 63.54 27.03 64.02
  L 27.30 64.77
  Q 27.52 65.36 27.96 64.91
  L 28.81 64.06
  A 0.34 0.34 0.0 0 1 29.16 63.98
  L 29.56 64.10
  A 0.44 0.44 0.0 0 1 29.84 64.67
  L 29.35 66.03
  A 0.78 0.78 0.0 0 0 30.05 67.07
  L 35.67 67.32
  A 0.72 0.70 82.4 0 1 36.32 67.83
  L 37.98 73.12
  A 0.35 0.34 -11.0 0 1 37.68 73.56
  L 32.45 74.06
  A 1.09 1.08 -15.7 0 1 31.37 73.46
  L 29.03 68.86
  Z
  M 31.21 69.05
  A 0.99 0.99 0.0 0 0 32.25 70.69
  Q 32.97 70.42 33.29 69.31
  Q 33.44 68.77 32.91 68.61
  Q 31.96 68.31 31.21 69.05
  Z
  M 34.75 69.78
  Q 34.45 69.54 34.25 69.88
  L 33.34 71.46
  Q 33.09 71.90 33.59 72.02
  Q 34.46 72.23 35.31 71.87
  A 0.88 0.88 0.0 0 0 35.51 70.36
  L 34.75 69.78
  Z"
/>
<path fill="white" d="
  M 167.99 67.03
  L 166.03 67.24
  Q 165.49 67.30 165.56 66.77
  Q 165.81 64.60 168.12 64.46
  Q 168.65 64.43 168.70 64.96
  Q 168.79 65.95 167.99 67.03
  Z"
/>
<path fill="white" d="
  M 49.17 64.70
  Q 50.82 64.77 50.93 66.86
  A 1.88 0.36 6.2 0 1 48.96 67.02
  Q 48.24 66.94 48.05 66.00
  Q 47.78 64.64 49.17 64.70
  Z"
/>
<path fill="white" d="
  M 47.42 66.97
  Q 49.13 67.13 49.22 68.84
  Q 49.24 69.41 48.68 69.46
  Q 47.16 69.59 46.47 68.64
  A 1.06 1.06 0.0 0 1 47.42 66.97
  Z"
/>
<path fill="white" d="
  M 167.99 67.03
  Q 169.30 66.64 170.23 66.79
  Q 170.76 66.88 170.62 67.40
  Q 170.05 69.48 167.90 69.42
  Q 167.20 69.41 167.42 68.74
  L 167.99 67.03
  Z"
/>
<path fill="white" d="
  M 177.17 69.85
  Q 177.88 70.27 177.31 71.27
  A 0.70 0.70 0.0 0 1 176.13 71.32
  L 173.65 67.77
  A 0.68 0.68 0.0 0 1 174.42 66.73
  Q 176.12 67.30 176.59 69.08
  Q 176.72 69.59 177.17 69.85
  Z"
/>
<path fill="white" d="
  M 42.73 67.80
  A 0.40 0.40 0.0 0 1 42.81 68.36
  L 41.12 70.66
  A 2.02 0.47 -53.7 0 1 39.54 72.01
  L 38.77 71.44
  A 2.02 0.47 -53.7 0 1 39.59 69.54
  L 41.28 67.23
  A 0.40 0.40 0.0 0 1 41.84 67.15
  L 42.73 67.80
  Z"
/>
<path fill="white" d="
  M 43.48 73.99
  Q 42.64 73.07 42.45 71.83
  Q 42.36 71.25 42.95 71.25
  L 43.93 71.25
  Q 44.64 71.25 44.50 70.56
  L 44.35 69.77
  A 0.83 0.83 0.0 0 1 45.35 68.80
  Q 47.31 69.23 47.43 71.29
  Q 47.45 71.75 46.99 71.75
  L 45.66 71.75
  Q 45.02 71.75 45.24 72.35
  L 45.53 73.13
  A 0.62 0.60 -21.7 0 1 45.19 73.90
  Q 44.52 74.17 43.48 73.99
  Z"
/>
<path fill="white" d="
  M 171.52 71.51
  L 170.06 71.67
  Q 169.31 71.75 169.30 70.99
  Q 169.26 68.47 171.82 69.05
  Q 172.28 69.16 172.25 69.62
  Q 172.19 70.61 171.52 71.51
  Z"
/>
<path fill="white" d="
  M 187.44 73.06
  L 185.15 87.07
  Q 184.96 88.22 184.73 87.08
  Q 183.12 79.27 186.97 72.39
  Q 187.23 71.94 187.23 71.42
  Q 187.25 70.81 187.61 70.26
  Q 188.00 69.68 188.59 70.04
  Q 189.09 70.35 189.24 71.04
  A 0.72 0.71 71.5 0 1 188.85 71.84
  L 188.08 72.21
  Q 187.54 72.47 187.44 73.06
  Z"
/>
<path fill="white" d="
  M 32.04 87.37
  A 0.23 0.23 0.0 0 1 31.58 87.37
  Q 30.91 83.73 30.55 79.99
  Q 30.17 76.02 28.13 71.71
  Q 27.65 70.68 28.68 70.34
  Q 29.35 70.11 29.42 70.82
  L 29.55 72.16
  Q 29.60 72.62 29.90 72.96
  C 32.82 76.29 32.78 83.20 32.04 87.37
  Z"
/>
<path fill="white" d="
  M 171.52 71.51
  Q 172.62 71.05 173.66 71.28
  Q 174.27 71.42 174.09 72.01
  L 173.75 73.17
  Q 173.58 73.75 174.18 73.75
  L 175.31 73.75
  Q 175.89 73.75 175.78 74.32
  L 175.57 75.37
  Q 175.47 75.86 175.97 75.93
  L 176.95 76.07
  A 0.57 0.57 0.0 0 1 177.38 76.91
  L 176.83 77.94
  A 0.38 0.38 0.0 0 0 177.17 78.50
  L 178.25 78.50
  A 0.90 0.89 18.9 0 1 178.96 79.94
  Q 177.88 81.33 175.88 80.95
  Q 175.20 80.82 175.52 80.20
  L 176.16 78.94
  Q 176.52 78.23 175.76 78.47
  L 174.76 78.78
  A 0.60 0.59 1.2 0 1 174.02 78.01
  L 174.42 76.89
  Q 174.65 76.25 173.97 76.25
  L 172.88 76.25
  Q 172.18 76.25 172.48 75.61
  L 173.17 74.13
  Q 173.31 73.82 172.97 73.86
  L 171.49 74.01
  A 0.52 0.52 0.0 0 1 170.94 73.34
  L 171.52 71.51
  Z"
/>
<path fill="white" d="
  M 43.48 73.99
  L 43.85 75.07
  A 0.90 0.90 0.0 0 1 43.00 76.26
  Q 40.96 76.26 40.77 74.23
  Q 40.72 73.69 41.26 73.75
  L 43.48 73.99
  Z"
/>
<path fill="white" d="
  M 179.09 75.06
  A 0.17 0.17 0.0 0 1 179.14 74.83
  L 179.59 74.56
  A 2.60 1.33 58.5 0 1 182.08 76.08
  L 182.20 76.28
  A 2.60 1.33 58.5 0 1 182.43 79.20
  L 181.98 79.47
  A 0.17 0.17 0.0 0 1 181.75 79.41
  L 179.09 75.06
  Z"
/>
<path fill="white" d="
  M 35.72 76.28
  Q 36.24 75.00 37.35 75.44
  A 0.72 0.71 28.7 0 1 37.67 76.51
  L 35.30 79.85
  A 0.64 0.64 0.0 0 1 34.14 79.54
  Q 33.96 77.80 35.30 76.82
  A 1.23 1.21 -7.6 0 0 35.72 76.28
  Z"
/>
<path fill="white" d="
  M 40.47 76.01
  Q 42.29 76.16 42.48 78.00
  A 0.59 0.58 81.5 0 1 42.01 78.64
  Q 40.04 79.01 39.42 77.40
  A 1.03 1.03 0.0 0 1 40.47 76.01
  Z"
/>
<path fill="white" d="
  M 38.23 80.30
  L 37.83 79.60
  A 0.72 0.72 0.0 0 1 38.42 78.52
  Q 40.33 78.45 41.08 80.18
  Q 41.44 81.00 40.55 81.00
  L 39.51 81.00
  A 0.39 0.39 0.0 0 0 39.16 81.56
  L 39.73 82.72
  A 0.53 0.53 0.0 0 1 39.28 83.49
  L 38.29 83.54
  Q 37.64 83.57 37.85 84.19
  L 38.22 85.29
  Q 38.42 85.86 37.83 86.02
  Q 35.83 86.55 35.02 84.55
  A 0.58 0.58 0.0 0 1 35.56 83.75
  L 36.47 83.75
  A 0.48 0.48 0.0 0 0 36.92 83.10
  L 36.41 81.71
  Q 36.21 81.17 36.78 81.09
  L 37.92 80.94
  Q 38.55 80.85 38.23 80.30
  Z"
/>
<path fill="white" d="
  M 183.01 148.58
  L 183.61 149.25
  Q 184.23 149.94 183.33 150.17
  L 182.23 150.46
  Q 181.44 150.66 181.97 151.28
  L 182.64 152.06
  A 0.53 0.52 65.5 0 1 182.32 152.93
  L 181.46 153.04
  A 0.54 0.54 0.0 0 0 181.04 153.79
  L 181.51 154.86
  Q 181.72 155.34 181.24 155.56
  Q 178.87 156.64 178.17 154.25
  Q 177.98 153.59 178.65 153.41
  L 179.59 153.17
  A 0.48 0.48 0.0 0 0 179.87 152.44
  L 179.42 151.78
  Q 178.95 151.07 179.79 150.90
  L 180.76 150.71
  A 0.46 0.46 0.0 0 0 181.02 149.96
  L 180.28 149.11
  Q 179.72 148.45 180.55 148.21
  L 181.61 147.90
  Q 182.21 147.72 181.87 147.20
  L 181.33 146.39
  A 0.53 0.53 0.0 0 1 181.64 145.59
  L 182.65 145.32
  A 0.49 0.49 0.0 0 0 182.87 144.50
  L 182.44 144.07
  Q 181.85 143.48 182.59 143.09
  L 183.51 142.61
  A 0.50 0.49 -31.1 0 0 183.69 141.89
  L 182.92 140.76
  A 0.49 0.49 0.0 0 1 183.32 140.00
  L 183.80 140.00
  A 0.52 0.52 0.0 0 0 184.23 139.20
  L 183.82 138.59
  Q 183.37 137.93 184.02 137.45
  L 184.35 137.21
  Q 184.89 136.81 184.60 136.21
  L 184.18 135.34
  Q 183.98 134.90 184.41 134.68
  L 185.21 134.26
  A 0.50 0.50 0.0 0 0 185.34 133.46
  L 184.74 132.87
  A 0.48 0.47 49.5 0 1 184.79 132.16
  L 185.59 131.56
  Q 186.22 131.09 185.67 130.54
  L 185.08 129.95
  Q 184.64 129.51 185.17 129.19
  L 185.95 128.72
  Q 186.66 128.29 185.97 127.84
  Q 185.35 127.42 185.47 126.53
  Q 185.52 126.14 185.87 125.93
  Q 186.00 125.86 186.13 125.77
  Q 186.43 125.58 186.20 125.30
  L 185.29 124.18
  Q 184.90 123.71 185.41 123.38
  L 186.37 122.76
  Q 186.74 122.52 186.38 122.26
  L 185.45 121.59
  A 0.55 0.55 0.0 0 1 185.47 120.69
  L 186.26 120.14
  Q 186.82 119.76 186.30 119.33
  L 185.71 118.85
  Q 185.19 118.43 185.66 117.96
  L 186.34 117.29
  A 0.57 0.57 0.0 0 0 186.26 116.42
  L 185.65 116.01
  Q 185.16 115.67 185.58 115.24
  L 186.05 114.77
  Q 186.60 114.23 186.05 113.68
  L 185.48 113.10
  A 0.62 0.62 0.0 0 1 185.47 112.23
  Q 186.66 111.04 185.06 110.32
  A 0.53 0.52 -55.3 0 1 184.91 109.47
  L 185.65 108.73
  A 0.45 0.44 36.3 0 0 185.54 108.03
  L 184.87 107.67
  Q 184.18 107.30 184.64 106.67
  L 185.31 105.74
  Q 185.55 105.41 185.19 105.23
  L 184.40 104.81
  Q 183.96 104.59 184.23 104.17
  L 184.85 103.21
  Q 185.24 102.60 184.58 102.28
  L 183.91 101.96
  Q 183.24 101.64 183.76 101.11
  L 184.34 100.53
  Q 184.84 100.04 184.21 99.73
  L 183.01 99.14
  A 0.55 0.55 0.0 0 1 182.87 98.26
  L 183.41 97.72
  Q 183.84 97.28 183.29 97.02
  L 182.54 96.66
  A 0.68 0.67 -62.4 0 1 182.25 95.71
  L 182.79 94.77
  Q 183.05 94.32 182.55 94.15
  L 181.80 93.89
  Q 180.99 93.61 181.47 92.90
  L 181.92 92.21
  Q 182.39 91.50 181.53 91.50
  L 180.85 91.50
  A 0.66 0.66 0.0 0 1 180.28 90.52
  L 180.88 89.47
  Q 181.13 89.05 180.65 88.93
  L 179.68 88.68
  A 0.58 0.57 -72.5 0 1 179.29 87.92
  L 179.75 86.70
  Q 179.95 86.17 179.39 86.06
  L 178.45 85.88
  A 0.54 0.54 0.0 0 1 178.17 84.96
  L 178.70 84.43
  Q 179.23 83.89 178.50 83.70
  L 177.30 83.39
  Q 176.71 83.24 176.88 82.65
  Q 177.45 80.64 179.66 81.03
  Q 180.38 81.15 180.14 81.85
  L 179.71 83.11
  Q 179.50 83.71 180.13 83.73
  L 181.26 83.77
  A 0.43 0.43 0.0 0 1 181.59 84.45
  L 180.82 85.51
  Q 180.29 86.25 181.20 86.25
  L 182.16 86.25
  A 0.65 0.65 0.0 0 1 182.69 87.27
  L 181.99 88.30
  A 0.38 0.37 -63.9 0 0 182.18 88.87
  L 183.45 89.27
  Q 184.33 89.54 183.68 90.20
  L 183.03 90.85
  Q 182.50 91.38 183.19 91.67
  L 184.39 92.17
  A 0.53 0.52 31.7 0 1 184.59 93.00
  L 184.15 93.51
  A 0.56 0.56 0.0 0 0 184.59 94.44
  Q 185.24 94.42 185.61 94.91
  Q 185.88 95.28 185.56 95.60
  L 184.93 96.23
  A 0.55 0.55 0.0 0 0 185.10 97.12
  L 186.18 97.58
  A 0.56 0.56 0.0 0 1 186.38 98.46
  L 185.77 99.16
  Q 185.35 99.65 185.93 99.95
  L 186.81 100.42
  Q 187.41 100.73 187.05 101.29
  L 186.49 102.15
  Q 186.24 102.54 186.64 102.79
  L 187.37 103.23
  A 0.73 0.73 0.0 0 1 187.50 104.37
  L 187.00 104.87
  Q 186.48 105.40 187.12 105.77
  L 187.97 106.26
  A 0.50 0.50 0.0 0 1 188.08 107.05
  L 187.27 107.86
  A 0.61 0.60 -57.6 0 0 187.49 108.86
  L 188.50 109.23
  A 0.32 0.32 0.0 0 1 188.57 109.80
  L 187.57 110.47
  Q 186.90 110.91 187.57 111.36
  L 188.70 112.13
  A 0.42 0.42 0.0 0 1 188.73 112.81
  L 187.76 113.56
  A 0.56 0.56 0.0 0 0 187.83 114.49
  L 188.86 115.09
  Q 189.26 115.32 188.94 115.64
  L 188.18 116.39
  A 0.60 0.60 0.0 0 0 188.03 116.98
  Q 188.22 117.65 188.96 117.82
  Q 189.89 118.04 189.10 118.58
  L 188.24 119.17
  A 0.56 0.56 0.0 0 0 188.16 120.03
  L 189.00 120.87
  Q 189.52 121.39 188.85 121.71
  L 188.25 122.00
  A 0.49 0.48 -38.9 0 0 188.16 122.82
  Q 189.76 124.05 188.21 125.03
  Q 187.70 125.36 188.13 125.79
  L 188.97 126.63
  A 0.43 0.43 0.0 0 1 188.91 127.29
  L 187.75 128.08
  Q 187.22 128.45 187.72 128.86
  L 188.38 129.40
  Q 188.79 129.73 188.52 130.19
  Q 188.20 130.76 187.46 130.75
  A 0.47 0.47 0.0 0 0 187.18 131.60
  L 188.25 132.35
  A 0.45 0.45 0.0 0 1 188.22 133.09
  L 186.95 133.89
  A 0.56 0.55 -45.9 0 0 186.96 134.84
  L 187.61 135.22
  A 0.53 0.52 -41.4 0 1 187.55 136.15
  L 186.27 136.72
  Q 185.53 137.05 186.19 137.52
  L 186.99 138.08
  A 0.51 0.51 0.0 0 1 186.88 138.97
  L 185.85 139.36
  A 0.57 0.57 0.0 0 0 185.58 140.21
  L 186.25 141.20
  A 0.40 0.40 0.0 0 1 186.08 141.79
  L 185.20 142.18
  A 0.66 0.66 0.0 0 0 185.18 143.38
  Q 186.09 143.81 185.54 144.74
  A 0.65 0.64 -64.9 0 1 184.79 145.02
  Q 184.60 144.96 184.45 145.01
  Q 184.08 145.11 184.23 145.47
  L 184.81 146.88
  Q 185.06 147.49 184.41 147.61
  L 183.26 147.83
  A 0.45 0.45 0.0 0 0 183.01 148.58
  Z"
/>
<path fill="white" d="
  M 34.01 148.01
  Q 32.88 148.13 32.00 147.45
  Q 31.61 147.16 31.86 146.74
  L 32.32 145.98
  Q 32.70 145.36 32.01 145.13
  L 31.21 144.86
  A 0.56 0.56 0.0 0 1 30.95 143.99
  L 31.62 143.09
  Q 32.00 142.58 31.42 142.32
  L 30.69 141.98
  A 0.65 0.65 0.0 0 1 30.40 141.06
  L 30.86 140.30
  Q 31.25 139.67 30.55 139.40
  L 29.64 139.04
  A 0.41 0.41 0.0 0 1 29.50 138.37
  L 29.91 137.96
  Q 30.27 137.61 30.07 137.14
  Q 29.74 136.35 29.04 136.18
  Q 28.19 135.97 28.85 135.39
  L 29.59 134.75
  A 0.53 0.52 -51.2 0 0 29.50 133.89
  L 28.56 133.37
  A 0.62 0.62 0.0 0 1 28.54 132.30
  Q 29.95 131.44 28.35 130.56
  A 0.61 0.61 0.0 0 1 28.14 129.69
  L 28.71 128.83
  A 0.57 0.56 -54.8 0 0 28.58 128.06
  L 27.84 127.50
  Q 27.28 127.09 27.77 126.60
  L 28.51 125.87
  A 0.48 0.48 0.0 0 0 28.46 125.15
  L 27.88 124.72
  A 0.63 0.62 41.1 0 1 27.81 123.77
  L 28.42 123.15
  Q 28.98 122.60 28.33 122.14
  L 27.52 121.57
  A 0.45 0.44 -46.0 0 1 27.51 120.85
  L 28.47 120.13
  A 0.54 0.54 0.0 0 0 28.40 119.22
  L 27.64 118.81
  A 0.48 0.47 40.3 0 1 27.57 118.02
  L 28.62 117.20
  Q 29.10 116.82 28.61 116.46
  L 27.84 115.88
  A 0.49 0.48 46.1 0 1 27.85 115.09
  L 28.60 114.58
  Q 29.30 114.11 28.68 113.53
  L 27.71 112.65
  Q 27.16 112.14 27.90 112.04
  L 28.37 111.97
  A 0.69 0.69 0.0 0 0 28.96 111.39
  Q 29.12 110.38 28.20 109.85
  A 0.37 0.37 0.0 0 1 28.16 109.23
  L 29.08 108.57
  A 0.51 0.51 0.0 0 0 29.15 107.81
  L 28.26 106.84
  Q 27.88 106.42 28.42 106.25
  L 29.30 105.96
  A 0.59 0.58 62.9 0 0 29.59 105.06
  L 28.80 103.96
  Q 28.47 103.49 29.01 103.30
  L 29.68 103.05
  Q 30.22 102.85 30.01 102.30
  L 29.50 101.04
  Q 29.31 100.58 29.76 100.36
  L 30.56 99.98
  A 0.54 0.53 57.7 0 0 30.74 99.16
  L 30.23 98.53
  Q 29.78 97.98 30.42 97.67
  L 31.39 97.19
  Q 31.88 96.95 31.56 96.50
  L 30.90 95.60
  Q 30.56 95.12 31.10 94.88
  L 32.21 94.40
  A 0.55 0.54 -34.3 0 0 32.38 93.51
  L 31.82 92.95
  A 0.43 0.43 0.0 0 1 31.98 92.24
  L 33.02 91.86
  Q 33.55 91.67 33.39 91.13
  L 32.99 89.72
  A 0.48 0.48 0.0 0 1 33.31 89.13
  L 34.37 88.80
  Q 35.00 88.60 34.54 88.13
  Q 33.76 87.35 34.20 86.70
  Q 34.48 86.29 35.10 86.24
  Q 37.00 86.09 37.42 88.02
  Q 37.53 88.51 37.05 88.62
  L 36.05 88.86
  Q 35.40 89.01 35.77 89.56
  L 36.23 90.23
  Q 36.66 90.87 35.94 91.13
  L 35.02 91.47
  Q 34.19 91.78 34.71 92.49
  L 35.20 93.15
  Q 35.57 93.66 34.97 93.85
  L 34.10 94.12
  A 0.42 0.42 0.0 0 0 33.86 94.73
  L 34.25 95.41
  A 0.89 0.88 -25.3 0 1 33.79 96.68
  L 33.08 96.96
  A 0.49 0.49 0.0 0 0 32.97 97.82
  L 33.81 98.39
  Q 34.52 98.88 33.72 99.18
  L 32.19 99.76
  Q 31.46 100.03 32.09 100.50
  L 32.99 101.18
  A 0.43 0.43 0.0 0 1 32.93 101.91
  L 31.71 102.53
  Q 31.17 102.80 31.60 103.22
  L 32.26 103.89
  Q 32.81 104.43 32.13 104.80
  L 31.59 105.09
  Q 31.05 105.37 31.39 105.88
  L 31.91 106.67
  A 0.60 0.60 0.0 0 1 31.78 107.47
  L 31.04 108.08
  Q 30.62 108.42 30.98 108.82
  L 31.60 109.51
  A 0.69 0.68 -33.2 0 1 31.37 110.59
  L 30.55 110.97
  A 0.49 0.49 0.0 0 0 30.47 111.82
  L 31.09 112.24
  A 0.52 0.52 0.0 0 1 31.11 113.09
  L 30.28 113.73
  Q 29.67 114.21 30.29 114.67
  L 31.27 115.41
  A 0.31 0.31 0.0 0 1 31.13 115.96
  Q 30.14 116.11 30.23 117.09
  Q 30.26 117.42 30.50 117.66
  L 31.06 118.22
  A 0.43 0.42 -31.0 0 1 30.88 118.92
  L 30.32 119.10
  A 0.53 0.53 0.0 0 0 30.11 119.98
  L 31.15 121.02
  A 0.44 0.44 0.0 0 1 31.04 121.72
  L 30.19 122.16
  A 0.44 0.44 0.0 0 0 30.28 122.97
  Q 31.08 123.19 31.23 123.87
  Q 31.34 124.34 31.00 124.68
  L 30.42 125.25
  Q 30.09 125.59 30.47 125.87
  L 31.33 126.51
  A 0.48 0.48 0.0 0 1 31.31 127.29
  L 30.48 127.86
  Q 29.58 128.47 30.61 128.82
  L 31.60 129.16
  A 0.46 0.45 -51.4 0 1 31.69 129.98
  L 31.05 130.36
  A 0.63 0.62 -22.9 0 0 30.77 131.04
  Q 31.02 131.96 31.68 132.06
  Q 34.61 132.49 31.77 133.01
  Q 31.31 133.10 31.17 133.61
  A 0.60 0.59 -67.2 0 0 31.44 134.28
  L 32.50 134.92
  Q 33.13 135.31 32.50 135.69
  L 31.61 136.23
  A 0.41 0.40 38.4 0 0 31.70 136.96
  L 32.70 137.29
  A 0.54 0.53 20.8 0 1 33.03 138.02
  L 32.37 139.45
  A 0.38 0.37 19.4 0 0 32.62 139.97
  L 33.52 140.21
  A 0.51 0.51 0.0 0 1 33.78 141.04
  L 33.05 141.85
  Q 32.62 142.33 33.10 142.75
  Q 33.51 143.10 34.05 143.03
  A 0.35 0.35 0.0 0 1 34.40 143.55
  L 33.87 144.47
  A 0.57 0.56 27.2 0 0 34.13 145.26
  L 35.05 145.69
  Q 35.77 146.02 35.24 146.62
  L 34.01 148.01
  Z"
/>
<path fill="white" d="
  M 206.99 100.56
  Q 207.63 98.59 209.80 99.08
  A 0.70 0.70 0.0 0 1 209.81 100.45
  Q 207.94 100.88 206.72 102.17
  Q 206.30 102.62 205.80 102.27
  L 205.15 101.83
  A 0.42 0.42 0.0 0 0 204.50 102.28
  L 204.78 103.43
  A 0.46 0.45 68.0 0 1 204.57 103.94
  L 204.12 104.21
  A 0.40 0.40 0.0 0 1 203.56 104.04
  L 202.75 102.34
  Q 202.38 101.58 201.75 102.14
  L 197.33 106.09
  A 0.60 0.59 -51.5 0 1 196.66 106.17
  L 191.93 103.72
  A 0.64 0.64 0.0 0 1 191.77 102.70
  L 195.45 98.90
  Q 195.78 98.56 196.24 98.70
  L 197.84 99.20
  A 0.31 0.31 0.0 0 0 198.25 98.90
  L 198.25 98.50
  Q 198.25 98.32 198.07 98.27
  Q 190.17 96.13 185.73 89.21
  A 0.33 0.32 -84.3 0 1 186.23 88.80
  Q 191.48 93.94 198.03 97.24
  Q 198.48 97.46 198.98 97.38
  Q 199.83 97.25 200.35 97.96
  Q 200.69 98.43 200.28 98.84
  L 199.96 99.17
  Q 199.57 99.56 199.97 99.93
  Q 200.80 100.70 201.60 100.40
  Q 202.00 100.25 202.10 99.83
  L 202.44 98.34
  A 0.63 0.63 0.0 0 1 203.61 98.20
  L 204.25 99.50
  Q 204.57 100.15 204.86 99.49
  Q 205.27 98.53 206.45 98.57
  A 0.48 0.48 0.0 0 1 206.70 99.45
  Q 205.85 100.00 206.55 100.68
  Q 206.86 100.98 206.99 100.56
  Z
  M 198.19 100.81
  Q 198.03 100.73 197.69 100.72
  A 0.60 0.60 0.0 0 0 197.17 101.63
  Q 198.25 103.48 199.07 102.98
  A 1.02 1.02 0.0 0 0 199.40 101.53
  Q 199.10 101.08 198.52 100.97
  A 0.44 0.02 28.6 0 1 198.19 100.81
  Z
  M 194.61 102.64
  Q 195.29 104.14 196.30 103.94
  Q 196.80 103.85 196.64 103.36
  L 196.07 101.51
  Q 195.93 101.07 195.50 101.26
  Q 194.92 101.51 194.63 102.06
  A 0.68 0.65 48.0 0 0 194.61 102.64
  Z"
/>
<path fill="white" d="
  M 30.47 89.43
  A 0.32 0.31 87.2 0 1 30.93 89.85
  Q 28.46 93.49 24.75 96.02
  C 22.72 97.40 20.06 97.97 17.69 99.29
  Q 17.29 99.52 16.86 99.35
  Q 16.02 99.04 16.35 98.25
  Q 16.56 97.74 17.12 97.75
  C 20.70 97.83 27.22 92.20 30.47 89.43
  Z"
/>
<path fill="white" d="
  M 71.74 136.87
  A 0.26 0.26 0.0 0 0 72.24 136.86
  C 75.80 120.79 84.97 106.10 88.08 90.06
  Q 88.19 89.50 88.76 89.50
  L 95.48 89.50
  A 0.51 0.51 0.0 0 1 95.97 90.15
  C 90.57 109.16 79.49 126.30 74.11 145.33
  Q 73.98 145.80 73.49 145.81
  L 69.07 145.90
  Q 68.61 145.91 68.49 145.47
  C 62.97 126.55 53.01 109.15 47.72 90.19
  A 0.55 0.55 0.0 0 1 48.25 89.50
  L 55.49 89.50
  Q 55.95 89.50 56.05 89.95
  C 59.67 105.99 67.79 120.81 71.74 136.87
  Z"
/>
<path fill="white" d="
  M 138.16 135.75
  C 141.56 119.90 150.28 105.90 153.57 90.07
  Q 153.69 89.50 154.27 89.50
  L 163.65 89.50
  Q 164.34 89.50 164.39 90.18
  L 168.60 145.10
  A 0.70 0.70 0.0 0 1 167.90 145.85
  L 161.46 145.81
  Q 160.84 145.81 160.81 145.19
  L 157.84 96.75
  A 0.32 0.32 0.0 0 0 157.22 96.67
  C 151.85 113.14 144.59 129.01 139.69 145.52
  A 0.54 0.54 0.0 0 1 139.16 145.90
  L 134.72 145.73
  Q 134.20 145.71 134.04 145.21
  C 128.94 128.94 121.86 112.67 117.93 96.70
  A 0.35 0.34 -49.9 0 0 117.25 96.76
  L 113.65 145.36
  A 0.51 0.51 0.0 0 1 113.14 145.83
  L 107.31 145.83
  A 0.92 0.92 0.0 0 1 106.40 144.78
  Q 110.33 117.47 112.51 89.97
  Q 112.54 89.50 113.02 89.50
  L 122.99 89.50
  Q 123.56 89.50 123.68 90.06
  C 126.97 105.67 133.73 120.25 137.67 135.76
  Q 137.93 136.81 138.16 135.75
  Z"
/>
<path fill="white" d="
  M 189.32 98.35
  Q 188.74 97.75 188.74 96.81
  A 0.71 0.71 0.0 0 1 190.02 96.40
  Q 191.50 98.44 191.22 100.82
  A 0.86 0.86 0.0 0 1 189.53 100.94
  Q 189.23 99.81 189.45 98.80
  Q 189.50 98.54 189.32 98.35
  Z"
/>
<path fill="white" d="
  M 26.31 99.64
  Q 27.26 100.73 26.25 101.91
  A 0.76 0.76 0.0 0 1 24.94 101.24
  L 25.93 97.16
  A 0.74 0.74 0.0 0 1 27.39 97.28
  L 27.52 99.26
  A 0.31 0.30 12.0 0 1 27.07 99.55
  L 26.50 99.24
  Q 25.48 98.70 26.31 99.64
  Z"
/>
<path fill="white" d="
  M 12.84 99.76
  L 13.26 98.60
  A 0.47 0.47 0.0 0 1 14.17 98.68
  L 14.44 100.35
  Q 14.51 100.74 14.89 100.88
  C 16.60 101.49 17.50 100.40 18.68 100.02
  Q 19.66 99.71 20.61 99.29
  A 0.85 0.83 -31.4 0 1 21.60 99.52
  L 24.94 103.66
  A 0.50 0.50 0.0 0 1 24.76 104.42
  L 19.89 106.74
  A 0.63 0.61 51.2 0 1 19.23 106.66
  L 16.35 104.35
  Q 16.02 104.09 15.87 103.70
  Q 15.51 102.75 14.47 102.77
  Q 13.91 102.78 13.72 103.29
  L 13.43 104.06
  A 0.75 0.75 0.0 0 1 11.99 103.95
  Q 11.85 103.30 12.33 102.78
  A 0.36 0.36 0.0 0 0 11.92 102.21
  L 10.52 102.83
  Q 10.04 103.05 9.81 102.57
  L 9.32 101.56
  A 0.50 0.49 -15.9 0 0 8.82 101.29
  Q 7.36 101.47 6.51 100.31
  A 0.65 0.64 71.9 0 1 7.03 99.28
  Q 8.72 99.30 9.93 100.47
  A 0.25 0.25 0.0 0 0 10.33 100.18
  L 10.02 99.55
  Q 9.67 98.82 10.47 98.95
  Q 11.44 99.11 12.11 99.90
  A 0.43 0.43 0.0 0 0 12.84 99.76
  Z
  M 17.25 102.98
  C 17.97 104.00 21.04 105.39 21.90 103.78
  Q 22.24 103.13 21.65 102.08
  A 0.57 0.56 39.2 0 0 20.62 102.18
  L 20.05 103.91
  A 0.54 0.54 0.0 0 1 18.99 103.72
  L 19.08 101.81
  Q 19.10 101.27 18.61 101.49
  L 17.53 101.97
  A 0.68 0.68 0.0 0 0 17.25 102.98
  Z"
/>
<path fill="white" d="
  M 200.89 104.56
  A 0.58 0.58 0.0 0 1 201.72 105.35
  Q 201.18 106.14 200.26 106.50
  A 1.00 0.93 4.6 0 0 199.83 106.84
  Q 198.51 108.76 197.10 110.59
  C 195.20 113.06 194.27 116.33 192.31 119.00
  A 0.27 0.27 0.0 0 1 191.83 118.79
  Q 193.76 110.02 200.89 104.56
  Z"
/>
<path fill="white" d="
  M 15.87 106.56
  Q 15.06 106.30 14.97 105.43
  A 0.64 0.63 -3.9 0 1 15.58 104.74
  Q 16.44 104.70 16.77 105.52
  Q 16.99 106.05 17.42 106.42
  Q 23.32 111.38 24.70 119.05
  A 0.41 0.41 0.0 0 1 23.91 119.28
  Q 21.27 112.60 16.68 107.10
  Q 16.36 106.71 15.87 106.56
  Z"
/>
<path fill="white" d="
  M 191.09 105.74
  A 0.17 0.17 0.0 0 1 191.23 105.55
  L 191.65 105.48
  A 2.42 1.35 80.5 0 1 193.38 107.64
  L 193.43 107.98
  A 2.42 1.35 80.5 0 1 192.50 110.59
  L 192.09 110.66
  A 0.17 0.17 0.0 0 1 191.89 110.52
  L 191.09 105.74
  Z"
/>
<path fill="white" d="
  M 24.27 106.80
  A 0.98 0.87 86.4 0 1 24.41 106.62
  Q 25.25 105.82 25.75 106.68
  A 0.39 0.39 0.0 0 1 25.80 106.96
  L 25.14 110.82
  A 0.79 0.79 0.0 0 1 23.60 110.88
  Q 23.04 108.68 24.27 106.80
  Z"
/>
<path fill="white" d="
  M 201.98 134.48
  A 0.05 0.03 -80.8 0 1 202.00 134.52
  L 202.00 135.10
  Q 202.00 135.71 201.39 135.74
  Q 200.30 135.81 200.18 134.85
  A 0.93 0.90 15.8 0 0 199.84 134.26
  Q 193.62 129.28 192.16 121.41
  A 0.40 0.39 27.8 0 1 192.91 121.18
  C 195.22 126.32 197.42 130.81 201.98 134.48
  Z"
/>
<path fill="white" d="
  M 24.19 122.19
  Q 24.11 121.17 25.21 121.24
  A 0.40 0.39 23.9 0 1 25.47 121.91
  L 25.10 122.27
  A 1.15 1.15 0.0 0 0 24.81 122.81
  C 23.32 129.31 19.85 131.42 16.26 135.84
  A 0.77 0.77 0.0 0 1 15.01 134.95
  Q 15.48 134.20 16.28 133.84
  Q 16.78 133.62 17.12 133.20
  Q 21.29 128.11 24.19 122.19
  Z"
/>
<path fill="white" d="
  M 191.64 128.91
  A 0.18 0.18 0.0 0 1 191.85 128.76
  L 191.94 128.77
  A 2.57 1.91 -81.9 0 1 193.47 131.59
  L 193.41 131.96
  A 2.57 1.91 -81.9 0 1 191.16 134.24
  L 191.07 134.22
  A 0.18 0.18 0.0 0 1 190.92 134.02
  L 191.64 128.91
  Z"
/>
<path fill="white" d="
  M 23.52 131.10
  Q 23.37 130.75 23.47 130.46
  Q 23.78 129.48 24.82 129.79
  Q 25.19 129.90 25.23 130.29
  L 25.66 134.27
  A 0.59 0.59 0.0 0 1 24.67 134.77
  Q 23.37 133.60 23.63 132.01
  Q 23.71 131.54 23.52 131.10
  Z"
/>
<path fill="white" d="
  M 207.84 138.86
  L 209.94 139.37
  A 0.78 0.78 0.0 0 1 210.04 140.85
  Q 209.01 141.25 208.03 140.78
  Q 207.51 140.54 207.05 140.88
  L 206.50 141.28
  Q 206.09 141.58 205.75 141.22
  L 204.79 140.19
  A 0.36 0.35 -68.7 0 0 204.18 140.46
  Q 204.25 141.56 203.45 141.98
  A 0.59 0.59 0.0 0 1 202.59 141.53
  L 202.38 139.87
  A 0.84 0.84 0.0 0 0 201.26 139.19
  L 196.30 141.04
  Q 195.79 141.23 195.44 140.81
  L 192.12 136.80
  A 0.54 0.54 0.0 0 1 192.29 135.97
  L 196.97 133.65
  A 0.89 0.89 0.0 0 1 197.97 133.80
  L 202.12 137.69
  A 0.50 0.50 0.0 0 0 202.95 137.43
  Q 203.21 136.27 204.37 135.83
  Q 205.25 135.49 205.04 136.42
  L 204.73 137.75
  A 0.36 0.35 -7.1 0 0 205.24 138.14
  L 206.45 137.52
  Q 206.97 137.25 207.15 137.81
  L 207.33 138.39
  Q 207.45 138.77 207.84 138.86
  Z
  M 199.33 136.84
  Q 197.63 135.89 196.13 135.96
  Q 195.00 136.02 194.86 136.77
  Q 194.74 137.48 195.67 138.47
  A 0.40 0.40 0.0 0 0 196.35 138.30
  L 196.87 136.43
  A 0.50 0.50 0.0 0 1 197.80 136.35
  Q 198.34 137.45 197.51 138.35
  A 0.40 0.39 -75.5 0 0 197.89 139.00
  L 199.07 138.72
  A 1.02 1.02 0.0 0 0 199.33 136.84
  Z"
/>
<path fill="white" d="
  M 16.89 140.82
  Q 17.11 140.51 16.84 140.25
  Q 16.04 139.45 15.08 139.87
  A 0.91 0.90 80.2 0 0 14.53 140.66
  L 14.47 141.94
  A 0.59 0.59 0.0 0 1 13.33 142.11
  L 12.81 140.66
  Q 12.65 140.21 12.30 140.54
  Q 11.86 140.95 11.44 141.23
  Q 10.93 141.58 10.51 141.47
  Q 10.23 141.39 10.05 141.12
  Q 9.79 140.75 9.34 140.80
  L 7.07 141.06
  A 0.60 0.60 0.0 0 1 6.54 140.09
  Q 7.48 138.89 9.05 139.01
  Q 9.66 139.05 9.77 138.45
  Q 9.89 137.83 10.48 137.73
  A 1.02 1.02 0.0 0 1 11.39 138.01
  L 11.95 138.57
  A 0.32 0.31 -77.2 0 0 12.47 138.24
  L 11.96 136.76
  Q 11.70 136.00 12.50 136.00
  L 13.00 136.00
  A 0.70 0.70 0.0 0 1 13.70 136.63
  Q 13.83 137.94 14.88 137.89
  Q 15.50 137.85 16.26 137.19
  Q 17.90 135.76 19.39 134.24
  A 0.79 0.78 -53.5 0 1 20.31 134.10
  L 25.05 136.63
  A 0.48 0.47 -55.3 0 1 25.18 137.37
  L 21.54 141.33
  A 0.67 0.63 25.5 0 1 20.93 141.53
  L 18.90 141.12
  A 0.46 0.46 0.0 0 0 18.69 142.01
  Q 26.46 144.13 30.80 151.01
  A 0.39 0.39 0.0 0 1 30.19 151.50
  Q 25.03 146.29 18.54 142.86
  A 0.89 0.87 -39.1 0 0 17.89 142.80
  Q 16.97 143.05 16.46 142.33
  Q 16.14 141.89 16.46 141.44
  L 16.89 140.82
  Z
  M 19.50 136.74
  Q 17.81 136.74 17.33 137.91
  Q 17.14 138.39 17.51 138.75
  Q 18.94 140.11 20.28 139.31
  Q 21.44 139.31 21.96 138.71
  A 1.34 1.34 0.0 0 0 21.13 136.51
  Q 19.91 136.35 19.50 136.74
  Z"
/>
<path fill="white" d="
  M 19.50 136.74
  Q 19.92 136.67 20.20 136.84
  Q 20.44 136.99 20.50 137.39
  Q 20.62 138.34 20.28 139.31
  Q 19.79 139.07 19.43 138.78
  C 18.74 138.23 18.80 137.23 19.50 136.74
  Z"
/>
<path fill="white" d="
  M 190.89 143.39
  A 0.24 0.24 0.0 0 1 190.60 143.57
  L 189.89 143.39
  A 2.55 0.94 -76.3 0 1 189.58 140.69
  L 189.62 140.52
  A 2.55 0.94 -76.3 0 1 191.14 138.26
  L 191.85 138.44
  A 0.24 0.24 0.0 0 1 192.03 138.73
  L 190.89 143.39
  Z"
/>
<path fill="white" d="
  M 28.11 143.65
  A 0.22 0.22 0.0 0 1 27.94 143.91
  L 27.67 143.96
  A 2.55 1.61 78.5 0 1 25.59 141.79
  L 25.54 141.53
  A 2.55 1.61 78.5 0 1 26.60 138.71
  L 26.87 138.66
  A 0.22 0.22 0.0 0 1 27.13 138.83
  L 28.11 143.65
  Z"
/>
<path fill="white" d="
  M 198.16 142.77
  Q 191.76 146.03 186.61 151.07
  Q 186.26 151.42 186.00 150.99
  Q 185.87 150.75 186.04 150.51
  C 188.64 146.88 191.93 143.99 196.19 142.50
  Q 197.88 141.91 199.41 141.04
  A 0.85 0.85 0.0 0 1 200.37 142.43
  Q 199.94 142.80 199.16 142.63
  Q 198.63 142.53 198.16 142.77
  Z"
/>
<path fill="white" d="
  M 34.01 148.01
  Q 35.20 147.83 36.11 148.34
  Q 36.56 148.60 36.33 149.07
  L 35.80 150.14
  A 0.56 0.56 0.0 0 0 36.16 150.92
  L 36.97 151.13
  Q 37.37 151.24 37.21 151.62
  L 36.78 152.66
  A 0.59 0.59 0.0 0 0 37.29 153.47
  L 38.17 153.54
  Q 38.95 153.60 38.54 154.26
  L 37.86 155.33
  A 0.44 0.44 0.0 0 0 38.23 156.00
  L 39.00 156.00
  Q 40.49 156.00 39.46 157.12
  Q 39.13 157.48 39.33 158.14
  Q 39.45 158.50 39.82 158.50
  L 40.75 158.50
  A 0.51 0.51 0.0 0 1 41.22 159.20
  Q 40.82 160.19 39.98 160.98
  Q 38.91 161.19 38.15 160.93
  A 0.57 0.57 0.0 0 1 37.81 160.17
  L 38.26 159.13
  Q 38.52 158.54 37.87 158.52
  L 36.73 158.48
  A 0.52 0.51 -73.6 0 1 36.31 157.70
  L 37.06 156.42
  Q 37.29 156.03 36.84 156.01
  L 35.63 155.97
  Q 34.78 155.94 35.07 155.14
  L 35.50 153.95
  Q 35.67 153.46 35.19 153.28
  L 34.46 153.00
  Q 33.76 152.73 34.14 152.09
  L 34.58 151.34
  Q 34.87 150.86 34.34 150.66
  L 33.20 150.25
  Q 32.49 149.99 32.95 149.39
  L 34.01 148.01
  Z"
/>
<path fill="white" d="
  M 190.69 173.74
  Q 192.19 173.48 192.28 175.03
  Q 192.31 175.56 192.79 175.76
  Q 194.12 176.32 194.52 177.76
  A 0.46 0.46 0.0 0 1 193.89 178.31
  L 191.60 177.30
  Q 191.17 177.11 190.70 177.15
  Q 189.41 177.28 189.33 175.73
  A 0.53 0.53 0.0 0 0 188.38 175.44
  L 187.50 176.59
  A 0.43 0.43 0.0 0 1 186.74 176.23
  L 187.15 174.45
  A 0.69 0.68 -72.3 0 0 186.74 173.65
  Q 184.48 172.72 182.01 173.02
  A 1.68 1.68 0.0 0 1 180.18 171.79
  L 179.06 167.51
  Q 178.90 166.91 179.52 166.82
  L 184.22 166.15
  A 0.59 0.59 0.0 0 1 184.80 166.40
  L 186.57 168.97
  Q 186.82 169.33 187.12 169.01
  Q 187.41 168.70 187.17 168.26
  Q 183.32 161.15 185.11 153.14
  A 0.28 0.28 0.0 0 1 185.66 153.19
  C 185.85 156.27 186.40 166.66 188.73 168.59
  A 0.73 0.73 0.0 0 1 188.93 169.44
  Q 188.55 170.33 187.46 169.96
  Q 186.57 169.65 187.01 170.48
  L 187.79 171.96
  Q 188.03 172.43 188.48 172.16
  L 190.22 171.13
  A 0.55 0.55 0.0 0 1 191.02 171.79
  L 190.43 173.44
  A 0.23 0.23 0.0 0 0 190.69 173.74
  Z
  M 182.74 170.27
  L 183.54 168.69
  A 0.54 0.54 0.0 0 0 182.87 167.94
  L 181.57 168.43
  A 0.88 0.88 0.0 0 0 181.26 169.88
  L 181.80 170.42
  A 0.59 0.59 0.0 0 0 182.74 170.27
  Z
  M 184.26 169.85
  L 183.54 171.12
  Q 183.15 171.80 183.92 171.95
  Q 186.04 172.36 185.70 170.12
  A 0.78 0.77 55.5 0 0 184.26 169.85
  Z"
/>
<path fill="white" d="
  M 31.78 153.43
  C 33.00 157.81 32.59 164.15 29.88 167.90
  A 1.10 1.09 -39.1 0 0 29.77 168.96
  Q 30.21 169.98 28.91 170.38
  A 0.62 0.62 0.0 0 1 28.17 170.08
  Q 27.63 169.05 28.48 168.38
  Q 28.93 168.03 29.09 167.48
  Q 31.10 160.67 31.12 153.51
  A 0.34 0.33 37.7 0 1 31.78 153.43
  Z"
/>
<path fill="white" d="
  M 177.66 158.14
  L 176.93 156.89
  Q 176.55 156.25 177.27 156.08
  Q 179.43 155.55 180.21 157.49
  Q 180.43 158.03 179.86 158.17
  L 178.72 158.45
  Q 178.19 158.59 178.37 159.10
  L 178.66 159.99
  Q 178.85 160.55 178.31 160.77
  L 177.34 161.17
  A 0.57 0.57 0.0 0 0 177.05 161.95
  Q 177.70 163.28 176.02 163.44
  A 0.64 0.63 -10.5 0 0 175.47 164.23
  Q 175.86 165.67 174.46 165.99
  Q 173.95 166.11 174.01 166.62
  Q 174.16 168.11 172.61 168.29
  Q 172.15 168.34 172.24 168.80
  Q 172.57 170.40 170.92 170.50
  A 0.49 0.49 0.0 0 0 170.48 171.11
  Q 170.93 172.86 169.09 172.79
  A 0.61 0.60 86.1 0 0 168.48 173.50
  Q 168.71 174.74 167.51 174.99
  Q 167.11 175.07 166.86 175.38
  Q 165.12 177.52 162.99 179.30
  Q 162.58 179.64 162.33 180.12
  Q 161.85 181.05 160.78 181.00
  Q 160.24 180.98 160.27 181.51
  Q 160.35 183.07 158.60 182.94
  Q 158.11 182.91 158.06 183.40
  Q 157.91 184.92 156.42 184.76
  Q 155.98 184.71 155.85 185.14
  L 155.47 186.44
  Q 155.26 187.15 154.45 186.57
  Q 154.17 186.38 153.64 186.63
  Q 153.25 186.81 153.25 187.24
  L 153.25 188.06
  Q 153.25 188.64 152.70 188.45
  L 151.23 187.95
  A 0.36 0.36 0.0 0 0 150.75 188.29
  L 150.75 188.82
  A 1.06 1.06 0.0 0 1 149.06 189.68
  Q 148.02 188.93 148.30 187.67
  Q 148.43 187.10 148.98 186.90
  L 149.76 186.61
  Q 150.29 186.41 150.61 185.96
  Q 151.14 185.22 152.06 185.29
  Q 152.49 185.32 152.64 184.92
  L 152.91 184.20
  Q 153.10 183.67 153.65 183.75
  Q 155.31 183.96 155.25 182.49
  A 0.70 0.69 4.3 0 1 156.08 181.78
  Q 157.46 182.06 157.51 180.67
  A 0.67 0.66 -89.1 0 1 158.17 180.02
  L 159.21 180.02
  Q 159.50 180.02 159.50 179.73
  L 159.50 179.38
  Q 159.50 179.10 159.70 178.90
  L 166.88 171.93
  Q 167.34 171.49 167.52 170.89
  Q 167.83 169.91 168.80 169.94
  A 0.60 0.59 -4.2 0 0 169.41 169.24
  L 169.20 168.19
  Q 169.04 167.35 169.79 167.75
  Q 170.55 168.14 171.14 167.40
  Q 171.42 167.05 171.21 166.66
  L 171.01 166.29
  A 0.51 0.50 78.7 0 1 171.50 165.55
  Q 173.36 165.73 172.68 163.76
  Q 172.51 163.25 173.05 163.25
  L 174.11 163.25
  Q 174.47 163.25 174.44 162.89
  L 174.27 160.93
  A 0.45 0.44 -60.8 0 1 175.11 160.69
  Q 175.32 161.10 175.78 160.99
  Q 176.33 160.86 176.06 160.36
  L 175.44 159.21
  A 0.48 0.48 0.0 0 1 175.86 158.50
  L 177.45 158.50
  Q 177.87 158.50 177.66 158.14
  Z"
/>
<path fill="white" d="
  M 181.73 159.99
  A 0.16 0.16 0.0 0 1 181.95 159.93
  L 182.01 159.97
  A 2.58 1.69 -58.1 0 1 182.08 163.05
  L 181.89 163.36
  A 2.58 1.69 -58.1 0 1 179.09 164.66
  L 179.03 164.62
  A 0.16 0.16 0.0 0 1 178.98 164.40
  L 181.73 159.99
  Z"
/>
<path fill="white" d="
  M 36.84 165.84
  Q 34.36 164.46 33.98 161.61
  A 0.80 0.79 27.1 0 1 35.47 161.13
  L 37.60 165.09
  A 0.56 0.56 0.0 0 1 36.84 165.84
  Z"
/>
<path fill="white" d="
  M 39.98 160.98
  L 42.12 161.04
  Q 42.86 161.06 42.52 161.72
  L 42.05 162.65
  A 0.41 0.41 0.0 0 0 42.42 163.25
  L 43.45 163.25
  A 0.66 0.66 0.0 0 1 44.03 164.21
  L 43.58 165.07
  Q 43.23 165.75 44.00 165.75
  L 45.15 165.75
  Q 45.97 165.75 45.62 166.48
  L 45.28 167.18
  A 0.60 0.59 -83.0 0 0 45.93 168.02
  L 47.07 167.81
  A 0.39 0.39 0.0 0 1 47.51 168.33
  L 46.90 169.91
  Q 46.71 170.42 47.25 170.31
  L 48.76 170.01
  A 0.37 0.37 0.0 0 1 49.19 170.49
  L 48.63 172.15
  Q 48.45 172.69 48.99 172.53
  L 50.13 172.19
  Q 50.65 172.04 50.73 172.57
  Q 51.06 174.67 49.31 175.72
  A 1.05 1.05 0.0 0 1 47.79 174.44
  L 48.31 173.07
  Q 48.48 172.61 48.00 172.71
  L 46.51 173.04
  A 0.46 0.46 0.0 0 1 45.96 172.49
  L 46.27 171.07
  Q 46.40 170.50 45.81 170.50
  L 44.70 170.50
  A 0.45 0.45 0.0 0 1 44.26 169.94
  L 44.53 168.84
  Q 44.68 168.25 44.08 168.25
  L 42.92 168.25
  A 0.49 0.49 0.0 0 1 42.46 167.58
  L 42.81 166.67
  Q 43.07 166.00 42.35 166.00
  L 41.27 166.00
  A 0.54 0.54 0.0 0 1 40.76 165.27
  L 41.21 164.06
  Q 41.42 163.50 40.82 163.50
  L 39.75 163.50
  Q 39.03 163.50 39.29 162.82
  L 39.98 160.98
  Z"
/>
<path fill="white" d="
  M 25.35 176.55
  Q 24.75 178.23 22.79 178.48
  A 0.49 0.49 0.0 0 1 22.37 177.65
  L 24.22 175.71
  Q 24.53 175.38 24.53 174.93
  L 24.53 174.36
  A 0.40 0.40 0.0 0 1 24.96 173.96
  L 26.60 174.09
  Q 27.33 174.15 26.89 173.57
  L 26.10 172.54
  Q 25.65 171.95 26.38 171.78
  Q 27.48 171.52 28.05 172.46
  A 0.72 0.72 0.0 0 0 29.31 172.41
  L 31.93 167.12
  A 0.70 0.70 0.0 0 1 32.63 166.74
  L 37.88 167.33
  Q 38.41 167.39 38.24 167.89
  L 36.59 172.80
  Q 36.40 173.37 35.80 173.41
  L 34.10 173.55
  Q 33.50 173.59 33.57 174.19
  Q 33.61 174.49 33.89 174.65
  Q 34.10 174.76 34.46 174.69
  Q 42.52 173.21 48.91 178.04
  A 0.36 0.35 -15.3 0 1 48.56 178.65
  Q 41.97 175.97 34.87 175.58
  Q 34.35 175.55 33.89 175.79
  L 33.08 176.22
  A 0.68 0.68 0.0 0 1 32.08 175.69
  L 31.94 174.26
  A 0.61 0.60 -10.8 0 0 31.17 173.74
  L 30.16 174.02
  A 0.53 0.52 74.5 0 0 29.80 174.67
  L 30.33 176.52
  A 0.54 0.54 0.0 0 1 29.40 177.02
  L 28.54 176.03
  A 0.52 0.52 0.0 0 0 27.68 176.14
  L 27.12 177.28
  A 0.54 0.54 0.0 0 1 26.18 177.34
  L 25.63 176.51
  A 0.16 0.16 0.0 0 0 25.35 176.55
  Z
  M 34.29 170.38
  L 34.48 170.69
  A 0.83 0.83 0.0 0 0 36.02 170.27
  Q 36.02 169.17 35.26 168.73
  A 0.92 0.91 39.3 0 0 34.20 168.83
  Q 33.18 169.72 33.83 169.98
  Q 34.13 170.10 34.29 170.38
  Z
  M 32.17 170.14
  L 31.47 170.66
  Q 30.74 171.20 31.50 171.71
  L 32.51 172.40
  A 0.79 0.79 0.0 0 0 33.58 171.28
  L 32.80 170.23
  Q 32.53 169.87 32.17 170.14
  Z"
/>
<path fill="white" d="
  M 174.07 171.73
  L 176.79 168.23
  A 0.58 0.58 0.0 0 1 177.81 168.76
  Q 177.07 171.10 175.23 172.80
  A 0.79 0.79 0.0 0 1 174.07 171.73
  Z"
/>
<path fill="white" d="
  M 40.34 168.41
  A 0.28 0.28 0.0 0 1 40.73 168.46
  L 42.38 170.66
  A 2.25 0.73 53.0 0 1 43.15 172.90
  L 42.88 173.10
  A 2.25 0.73 53.0 0 1 40.95 171.74
  L 39.29 169.55
  A 0.28 0.28 0.0 0 1 39.35 169.15
  L 40.34 168.41
  Z"
/>
<path fill="white" d="
  M 164.49 203.16
  Q 166.22 203.76 166.58 205.56
  A 0.59 0.59 0.0 0 1 165.83 206.24
  Q 164.54 205.86 164.29 204.46
  A 0.56 0.56 0.0 0 0 163.74 204.00
  L 162.72 204.00
  A 0.64 0.64 0.0 0 1 162.08 203.28
  L 162.28 201.76
  Q 162.39 200.92 161.74 201.47
  L 160.76 202.29
  Q 160.27 202.70 159.85 202.23
  Q 159.76 202.13 159.67 202.04
  Q 159.35 201.72 159.75 201.52
  Q 160.82 200.98 160.77 199.91
  Q 160.74 199.22 160.13 198.91
  L 155.63 196.58
  Q 155.16 196.34 155.19 195.81
  L 155.54 190.73
  Q 155.59 189.94 156.33 190.21
  L 161.04 191.94
  A 1.08 1.07 -85.2 0 1 161.73 192.76
  L 162.09 194.72
  A 0.37 0.36 -27.6 0 0 162.71 194.91
  L 162.92 194.70
  Q 163.28 194.34 163.10 193.88
  C 161.63 190.08 163.71 184.27 165.65 181.07
  C 169.18 175.25 175.68 173.42 182.12 174.31
  Q 182.67 174.39 183.10 174.05
  Q 183.82 173.50 184.77 174.11
  A 1.06 1.06 0.0 0 1 183.78 175.97
  L 182.69 175.50
  Q 182.25 175.31 181.78 175.36
  Q 174.69 176.00 169.50 177.75
  C 165.72 179.03 164.02 190.60 163.83 193.97
  Q 163.79 194.52 164.11 194.97
  Q 164.41 195.41 164.14 196.09
  Q 163.89 196.72 163.22 196.58
  L 162.81 196.50
  A 0.70 0.70 0.0 0 0 162.01 197.45
  L 162.49 198.65
  A 0.52 0.52 0.0 0 0 163.37 198.79
  Q 164.08 197.98 164.95 198.46
  A 0.60 0.60 0.0 0 1 165.05 199.44
  L 164.18 200.19
  A 0.37 0.36 40.3 0 0 164.23 200.77
  L 165.39 201.50
  A 0.54 0.54 0.0 0 1 165.10 202.50
  L 164.50 202.50
  Q 162.62 202.50 164.49 203.16
  Z
  M 158.66 194.04
  L 159.14 193.97
  Q 159.57 193.91 159.40 193.51
  Q 159.09 192.73 158.27 192.52
  A 0.91 0.91 0.0 0 0 157.25 192.98
  Q 156.60 194.22 157.57 195.19
  Q 157.66 195.28 157.70 195.16
  L 157.84 194.72
  Q 158.04 194.12 158.66 194.04
  Z
  M 158.48 196.59
  Q 159.53 197.38 160.84 196.72
  A 0.89 0.88 46.5 0 0 160.88 195.16
  Q 159.09 194.14 158.32 196.02
  Q 158.17 196.37 158.48 196.59
  Z"
/>
<path fill="white" d="
  M 49.96 176.02
  Q 50.69 174.77 52.14 174.33
  Q 52.78 174.14 52.76 174.81
  L 52.73 176.05
  Q 52.71 176.64 52.14 176.77
  L 50.77 177.10
  A 0.74 0.73 8.3 0 1 49.96 176.02
  Z"
/>
<path fill="white" d="
  M 52.00 178.54
  Q 52.43 176.78 54.23 176.39
  Q 54.83 176.26 54.87 176.88
  Q 55.01 179.11 52.61 179.27
  Q 51.80 179.33 52.00 178.54
  Z"
/>
<path fill="white" d="
  M 54.21 180.39
  Q 54.52 178.76 56.10 178.34
  Q 56.81 178.15 56.90 178.88
  Q 57.15 181.10 55.00 181.26
  A 0.74 0.74 0.0 0 1 54.21 180.39
  Z"
/>
<path fill="white" d="
  M 56.35 182.29
  Q 56.72 180.49 58.53 180.03
  A 0.54 0.54 0.0 0 1 59.21 180.51
  Q 59.38 182.87 57.06 183.08
  Q 56.18 183.16 56.35 182.29
  Z"
/>
<path fill="white" d="
  M 53.47 197.14
  Q 52.18 196.25 53.03 194.81
  A 1.12 1.12 0.0 0 0 53.18 194.12
  Q 52.43 187.13 49.63 180.65
  A 0.38 0.38 0.0 0 1 50.28 180.28
  Q 54.95 186.53 54.12 194.35
  Q 54.06 194.83 54.35 195.22
  Q 55.14 196.30 53.97 197.13
  A 0.44 0.43 42.8 0 1 53.47 197.14
  Z"
/>
<path fill="white" d="
  M 61.65 184.01
  L 62.95 183.96
  Q 63.80 183.93 63.67 184.76
  Q 63.41 186.53 61.36 186.78
  Q 59.95 186.95 60.81 186.06
  Q 61.16 185.69 60.95 185.11
  A 0.54 0.54 0.0 0 0 60.31 184.78
  L 59.36 185.03
  Q 58.60 185.23 58.62 184.44
  Q 58.65 182.17 60.88 181.84
  A 0.58 0.58 0.0 0 1 61.51 182.61
  L 61.22 183.40
  Q 60.98 184.03 61.65 184.01
  Z"
/>
<path fill="white" d="
  M 66.60 187.26
  L 67.55 186.90
  Q 68.13 186.68 68.24 187.29
  Q 68.60 189.23 66.70 190.07
  A 0.66 0.65 -9.0 0 1 65.78 189.41
  L 65.86 188.54
  A 0.42 0.42 0.0 0 0 65.29 188.10
  L 64.24 188.49
  Q 63.40 188.80 63.38 187.90
  Q 63.34 185.78 65.45 185.35
  Q 66.00 185.23 66.00 185.79
  L 66.00 186.84
  Q 66.00 187.49 66.60 187.26
  Z"
/>
<rect fill="white" x="-2.67" y="-0.85" transform="translate(159.31,187.13) rotate(-36.0)" width="5.34" height="1.70" rx="0.81"/>
<rect fill="white" x="-2.62" y="-0.87" transform="translate(57.64,188.01) rotate(36.2)" width="5.24" height="1.74" rx="0.76"/>
<path fill="white" d="
  M 69.93 191.19
  Q 69.47 191.53 69.25 191.52
  A 1.39 1.33 33.9 0 1 68.68 188.93
  L 70.17 188.31
  A 0.41 0.41 0.0 0 1 70.74 188.67
  L 70.78 189.80
  A 0.51 0.51 0.0 0 0 71.58 190.21
  L 72.50 189.59
  Q 72.96 189.29 73.22 189.77
  Q 74.33 191.81 71.69 192.78
  A 0.67 0.66 4.0 0 1 70.87 191.84
  Q 71.08 191.44 70.82 191.22
  Q 70.38 190.85 69.93 191.19
  Z"
/>
<path fill="white" d="
  M 143.24 192.00
  Q 143.01 190.88 143.30 189.98
  Q 143.44 189.54 143.90 189.62
  L 145.44 189.89
  Q 145.75 189.95 145.75 189.64
  L 145.75 188.80
  A 0.62 0.62 0.0 0 1 146.53 188.20
  Q 148.77 188.79 148.18 191.17
  Q 148.03 191.77 147.47 191.49
  L 146.11 190.80
  Q 145.55 190.51 145.53 191.14
  L 145.49 192.30
  Q 145.47 192.85 144.93 192.74
  Q 144.06 192.56 143.24 192.00
  Z"
/>
<path fill="white" d="
  M 59.55 198.54
  A 0.55 0.39 2.1 0 0 60.31 199.12
  Q 67.30 194.60 75.50 196.57
  A 0.33 0.33 0.0 0 1 75.43 197.22
  Q 68.31 197.32 61.55 199.56
  Q 60.99 199.74 60.66 200.22
  Q 60.21 200.87 59.44 201.04
  A 0.57 0.56 83.6 0 1 58.75 200.48
  L 58.75 199.59
  Q 58.75 198.60 57.90 199.11
  L 56.73 199.81
  Q 56.07 200.20 56.61 200.74
  L 57.67 201.79
  A 0.57 0.57 0.0 0 1 57.54 202.69
  Q 56.30 203.37 55.37 202.30
  A 0.31 0.31 0.0 0 0 54.86 202.66
  L 55.29 203.41
  Q 55.62 203.98 54.99 204.16
  L 53.60 204.56
  A 0.79 0.79 0.0 0 0 53.06 205.10
  Q 52.62 206.52 51.05 206.70
  A 0.41 0.41 0.0 0 1 50.72 206.00
  Q 52.45 204.39 51.71 202.48
  Q 51.54 202.04 52.02 202.01
  Q 53.17 201.93 53.29 200.88
  A 0.53 0.52 9.5 0 0 52.87 200.30
  Q 52.19 200.15 52.25 199.43
  Q 52.30 198.79 52.92 198.94
  L 54.58 199.34
  Q 55.25 199.50 55.30 198.80
  L 55.64 193.00
  A 0.72 0.71 82.9 0 1 56.13 192.36
  L 60.98 190.78
  A 0.54 0.54 0.0 0 1 61.69 191.23
  L 62.21 196.23
  A 0.86 0.85 -20.1 0 1 61.83 197.04
  L 59.55 198.54
  Z
  M 58.11 194.51
  L 59.59 195.38
  A 0.44 0.44 0.0 0 0 60.25 195.00
  L 60.25 193.71
  A 1.01 1.01 0.0 0 0 58.29 193.35
  L 57.98 194.16
  A 0.29 0.29 0.0 0 0 58.11 194.51
  Z
  M 58.08 195.71
  L 57.63 195.25
  A 0.61 0.60 20.0 0 0 56.60 195.73
  Q 56.80 198.07 58.44 197.64
  A 0.84 0.83 78.0 0 0 59.05 196.69
  Q 58.94 196.14 58.52 195.99
  Q 58.27 195.90 58.08 195.71
  Z"
/>
<path fill="white" d="
  M 68.42 193.32
  A 0.24 0.24 0.0 0 1 68.51 193.65
  L 68.45 193.75
  A 1.68 1.41 31.0 0 1 66.28 194.09
  L 64.43 192.98
  A 1.68 1.41 31.0 0 1 63.72 190.90
  L 63.77 190.81
  A 0.24 0.24 0.0 0 1 64.10 190.73
  L 68.42 193.32
  Z"
/>
<ellipse fill="white" cx="0.00" cy="0.00" transform="translate(74.72,192.54) rotate(119.6)" rx="1.88" ry="1.12"/>
<path fill="white" d="
  M 143.24 192.00
  L 142.92 193.68
  Q 142.80 194.29 142.25 194.00
  L 141.37 193.56
  A 0.58 0.57 22.8 0 0 140.56 193.89
  L 140.23 194.97
  Q 140.05 195.54 139.52 195.27
  L 138.45 194.72
  Q 137.99 194.48 137.87 194.98
  L 137.60 196.12
  Q 137.46 196.72 136.92 196.42
  L 135.19 195.48
  L 135.58 193.41
  Q 135.71 192.74 136.34 192.98
  L 137.32 193.36
  Q 137.81 193.54 138.00 193.05
  L 138.29 192.27
  Q 138.49 191.75 138.99 192.00
  L 140.20 192.59
  Q 140.40 192.69 140.45 192.47
  L 140.75 191.27
  Q 140.91 190.64 141.55 190.79
  Q 142.56 191.02 143.24 192.00
  Z"
/>
<path fill="white" d="
  M 149.37 193.53
  C 150.15 192.23 151.76 191.26 153.25 190.91
  Q 153.83 190.78 153.90 191.36
  C 154.12 193.07 151.48 193.64 150.36 194.45
  A 0.69 0.69 0.0 0 1 149.37 193.53
  Z"
/>
<path fill="white" d="
  M 82.89 197.10
  L 82.59 197.51
  A 0.43 0.42 -32.3 0 1 81.83 197.34
  L 81.57 195.99
  Q 81.40 195.11 80.72 195.71
  L 79.86 196.49
  A 0.42 0.41 56.5 0 1 79.21 196.35
  L 78.76 195.38
  Q 78.60 195.04 78.24 194.98
  Q 77.87 194.90 77.42 195.07
  A 0.99 0.99 0.0 0 1 76.08 194.14
  Q 76.08 192.28 77.92 191.98
  Q 78.47 191.89 78.49 192.45
  L 78.52 193.52
  A 0.42 0.42 0.0 0 0 79.20 193.83
  L 80.33 192.96
  A 0.57 0.57 0.0 0 1 81.25 193.41
  L 81.25 194.54
  Q 81.25 195.35 81.89 194.85
  L 82.98 193.98
  Q 83.56 193.52 83.77 194.23
  L 84.06 195.21
  A 0.38 0.38 0.0 0 0 84.64 195.42
  L 85.49 194.85
  Q 86.08 194.46 86.38 195.09
  Q 87.35 197.19 85.49 198.25
  Q 84.86 198.61 84.61 197.93
  L 84.38 197.31
  A 0.86 0.85 -36.8 0 0 82.89 197.10
  Z"
/>
<path fill="white" d="
  M 135.19 195.48
  L 134.81 197.06
  A 0.51 0.50 24.6 0 1 134.02 197.35
  L 133.54 197.00
  A 0.79 0.79 0.0 0 0 132.68 196.94
  Q 131.97 197.33 132.01 198.01
  Q 132.13 199.86 130.92 198.07
  Q 130.67 197.70 130.26 197.51
  A 0.48 0.47 26.8 0 0 129.66 197.70
  L 129.04 198.76
  A 0.53 0.52 37.3 0 1 128.21 198.87
  L 127.35 198.01
  Q 126.91 197.57 126.74 198.17
  L 126.30 199.71
  A 0.49 0.49 0.0 0 1 125.44 199.87
  L 124.73 198.91
  A 0.51 0.51 0.0 0 0 123.84 199.03
  L 123.35 200.29
  A 0.47 0.47 0.0 0 1 122.54 200.41
  L 121.65 199.29
  A 0.33 0.33 0.0 0 0 121.09 199.38
  L 120.65 200.49
  A 0.63 0.63 0.0 0 1 119.64 200.73
  L 118.86 200.04
  Q 118.39 199.61 118.07 200.17
  L 117.58 201.03
  Q 117.19 201.70 116.67 201.12
  L 115.94 200.30
  Q 115.48 199.80 115.12 200.37
  L 114.39 201.54
  Q 113.94 202.24 113.60 201.49
  L 113.20 200.62
  A 0.47 0.47 0.0 0 0 112.38 200.55
  L 111.60 201.70
  Q 111.12 202.41 110.72 201.66
  L 110.26 200.81
  Q 109.96 200.24 109.54 200.73
  L 108.72 201.67
  A 0.55 0.55 0.0 0 1 107.86 201.63
  L 107.22 200.75
  Q 106.97 200.40 106.67 200.70
  L 105.54 201.84
  A 0.49 0.49 0.0 0 1 104.74 201.68
  L 104.26 200.52
  Q 104.06 200.02 103.69 200.41
  L 102.66 201.51
  A 0.48 0.48 0.0 0 1 101.87 201.37
  Q 101.44 200.34 100.84 199.91
  Q 100.59 199.62 100.95 199.08
  Q 101.83 199.15 102.20 197.87
  A 0.41 0.41 0.0 0 1 102.96 197.79
  L 103.70 199.22
  Q 103.90 199.61 104.19 199.27
  L 105.01 198.30
  A 0.55 0.55 0.0 0 1 105.87 198.32
  L 106.33 198.94
  A 0.59 0.59 0.0 0 0 107.32 198.88
  L 107.84 197.99
  Q 108.23 197.31 108.66 197.97
  L 109.34 199.03
  A 0.49 0.49 0.0 0 0 110.19 198.98
  L 110.62 198.08
  A 0.44 0.43 34.9 0 1 111.31 197.96
  L 112.52 199.10
  A 0.48 0.47 -78.8 0 0 113.29 198.58
  Q 113.14 198.20 113.42 197.95
  A 0.67 0.67 0.0 0 1 114.37 198.00
  L 115.02 198.75
  A 0.53 0.53 0.0 0 0 115.92 198.59
  L 116.20 197.84
  A 0.49 0.49 0.0 0 1 116.99 197.65
  L 117.89 198.47
  A 0.52 0.52 0.0 0 0 118.70 198.33
  L 119.05 197.67
  Q 119.49 196.86 120.13 197.51
  L 120.71 198.09
  Q 121.23 198.61 121.51 197.93
  L 121.95 196.87
  Q 122.18 196.30 122.61 196.74
  L 123.60 197.72
  A 0.51 0.51 0.0 0 0 124.47 197.38
  L 124.52 196.41
  A 0.52 0.52 0.0 0 1 125.39 196.05
  L 126.50 197.10
  Q 126.92 197.50 127.06 196.94
  L 127.31 195.99
  A 0.63 0.62 -68.9 0 1 128.20 195.59
  L 128.70 195.85
  Q 129.41 196.22 129.82 195.53
  L 130.08 195.09
  A 0.59 0.59 0.0 0 1 130.88 194.88
  L 131.95 195.50
  A 0.53 0.53 0.0 0 0 132.75 195.04
  L 132.75 194.29
  Q 132.75 193.62 133.38 193.86
  Q 134.55 194.32 135.19 195.48
  Z"
/>
<path fill="white" d="
  M 100.95 199.08
  Q 100.59 199.62 100.84 199.91
  Q 100.36 200.76 99.78 201.19
  A 0.51 0.50 56.2 0 1 99.04 201.04
  L 98.52 200.12
  Q 98.15 199.48 97.62 200.00
  L 96.96 200.67
  Q 96.39 201.24 96.02 200.52
  L 95.57 199.66
  Q 95.25 199.03 94.79 199.57
  L 94.14 200.31
  A 0.57 0.56 56.3 0 1 93.17 200.11
  L 92.90 199.28
  A 0.47 0.46 -24.9 0 0 92.21 199.03
  L 91.03 199.78
  Q 90.48 200.12 90.28 199.50
  L 89.97 198.51
  Q 89.79 197.94 89.31 198.29
  L 88.23 199.06
  Q 87.71 199.44 87.42 198.86
  Q 86.42 196.81 88.30 195.58
  Q 88.92 195.18 89.14 195.88
  L 89.44 196.82
  Q 89.70 197.67 90.33 197.04
  L 91.02 196.36
  Q 91.43 195.95 91.71 196.46
  L 92.41 197.75
  A 0.39 0.39 0.0 0 0 93.03 197.84
  L 93.92 196.96
  A 0.46 0.46 0.0 0 1 94.65 197.06
  L 95.09 197.86
  Q 95.33 198.31 95.75 198.01
  L 96.85 197.21
  A 0.57 0.57 0.0 0 1 97.75 197.67
  L 97.75 198.24
  A 0.47 0.47 0.0 0 0 98.55 198.57
  L 99.45 197.68
  Q 99.86 197.26 100.16 197.77
  L 100.95 199.08
  Z"
/>
<path fill="white" d="
  M 157.40 198.73
  Q 158.10 198.75 158.40 199.29
  A 0.79 0.79 0.0 0 1 157.88 200.45
  Q 156.95 200.66 156.49 199.97
  Q 156.17 199.48 155.62 199.30
  Q 148.77 197.02 141.56 197.25
  A 0.38 0.38 0.0 0 1 141.46 196.50
  Q 149.36 194.59 156.46 198.47
  Q 156.90 198.72 157.40 198.73
  Z"
/>
<path fill="white" d="
  M 87.51 210.71
  Q 88.19 211.27 87.92 211.79
  A 1.08 1.08 0.0 0 1 85.90 211.05
  Q 85.93 210.90 85.96 210.54
  Q 85.99 210.27 85.87 210.04
  Q 82.67 203.52 77.60 198.27
  Q 77.29 197.95 77.56 197.59
  Q 77.79 197.30 78.19 197.59
  Q 84.50 202.13 86.97 209.92
  Q 87.12 210.40 87.51 210.71
  Z"
/>
<path fill="white" d="
  M 128.78 213.90
  L 130.41 214.24
  A 0.52 0.52 0.0 0 1 130.50 215.23
  L 129.06 215.83
  Q 128.58 216.02 128.98 216.36
  Q 129.10 216.46 129.19 216.57
  Q 129.38 216.79 129.37 217.07
  L 129.13 221.80
  A 0.30 0.30 0.0 0 1 128.64 222.01
  Q 127.50 221.05 127.43 219.58
  A 0.67 0.65 -80.2 0 0 127.03 219.00
  Q 126.31 218.69 126.05 218.01
  Q 125.90 217.60 126.17 217.26
  L 126.62 216.71
  A 0.35 0.35 0.0 0 0 126.34 216.14
  L 124.45 216.20
  A 0.43 0.43 0.0 0 1 124.36 215.35
  Q 126.13 215.02 126.16 213.76
  Q 126.18 213.03 125.34 212.09
  Q 123.93 210.50 122.58 208.93
  Q 122.22 208.50 122.49 208.01
  L 124.96 203.63
  Q 125.32 202.99 125.86 203.49
  L 129.91 207.26
  A 0.66 0.66 0.0 0 1 129.90 208.24
  Q 128.96 209.05 129.37 210.23
  A 0.39 0.39 0.0 0 0 130.11 210.21
  Q 132.25 202.36 139.00 197.86
  A 0.46 0.45 5.6 0 1 139.58 198.56
  Q 134.63 203.43 131.35 209.57
  A 1.29 1.22 53.7 0 0 131.24 210.45
  Q 131.41 211.16 130.95 211.76
  Q 130.50 212.34 129.89 211.94
  L 128.90 211.28
  A 0.41 0.40 -72.4 0 0 128.27 211.61
  L 128.24 213.21
  A 0.70 0.69 -83.4 0 0 128.78 213.90
  Z
  M 126.59 209.31
  L 126.02 209.00
  A 0.39 0.39 0.0 0 0 125.49 209.18
  Q 124.87 210.57 126.50 211.07
  A 1.09 1.09 0.0 0 0 127.87 209.74
  L 126.96 206.39
  A 0.88 0.88 0.0 0 0 125.29 206.31
  L 124.71 207.82
  A 0.48 0.47 89.0 0 0 125.34 208.43
  L 126.56 207.91
  A 0.55 0.54 5.2 0 1 127.23 208.71
  L 126.88 209.23
  A 0.23 0.22 -60.2 0 1 126.59 209.31
  Z"
/>
<path fill="white" d="
  M 129.84 201.97
  Q 130.12 200.71 131.42 200.45
  A 0.85 0.85 0.0 0 1 131.78 202.11
  L 128.00 202.98
  A 0.68 0.68 0.0 0 1 127.25 201.99
  Q 127.78 201.01 128.95 200.99
  Q 129.42 200.99 129.48 201.45
  L 129.55 201.96
  A 0.15 0.15 0.0 0 0 129.84 201.97
  Z"
/>
<path fill="white" d="
  M 89.89 201.95
  A 0.48 0.46 0.3 0 1 90.23 202.28
  Q 90.37 202.79 90.19 203.11
  Q 90.03 203.38 89.56 203.44
  Q 87.39 203.73 85.53 202.49
  A 0.82 0.82 0.0 0 1 86.19 201.01
  L 89.89 201.95
  Z"
/>
<path fill="white" d="
  M 98.56 203.19
  Q 99.36 203.17 99.63 203.92
  A 0.89 0.89 0.0 0 1 98.60 205.10
  L 94.60 204.19
  A 0.64 0.64 0.0 0 1 94.49 202.97
  Q 96.68 202.07 98.56 203.19
  Z"
/>
<path fill="white" d="
  M 118.16 203.68
  C 119.10 202.94 121.43 202.56 122.49 202.77
  A 0.91 0.81 -39.8 0 1 122.24 204.45
  L 118.67 204.90
  A 0.69 0.69 0.0 0 1 118.16 203.68
  Z"
/>
<path fill="white" d="
  M 123.91 212.42
  A 0.66 0.66 0.0 0 1 122.98 213.34
  Q 122.39 212.89 122.07 212.16
  A 2.36 2.25 9.3 0 0 121.41 211.29
  Q 116.12 206.92 109.78 204.12
  A 0.42 0.42 0.0 0 1 110.05 203.32
  Q 118.64 205.34 123.91 212.42
  Z"
/>
<path fill="white" d="
  M 93.14 211.42
  A 0.53 0.50 -9.5 0 0 93.99 211.99
  Q 99.13 205.26 107.54 203.66
  A 0.26 0.26 0.0 0 1 107.72 204.14
  C 102.61 207.20 97.85 208.87 93.92 213.68
  Q 93.46 214.25 93.19 213.57
  L 92.88 212.76
  Q 92.68 212.27 92.20 212.46
  Q 91.09 212.90 91.06 214.17
  Q 91.05 214.76 91.61 214.91
  L 92.39 215.13
  Q 92.84 215.26 92.76 215.72
  L 92.69 216.15
  Q 92.56 216.87 91.86 216.65
  L 90.92 216.35
  Q 89.97 216.05 90.57 216.85
  Q 91.44 218.00 90.46 218.72
  Q 90.16 218.95 90.01 219.30
  L 88.88 221.96
  A 0.54 0.53 -43.5 0 1 87.88 221.94
  Q 87.38 220.54 88.03 219.24
  Q 88.24 218.83 88.54 218.77
  Q 88.80 218.71 89.07 218.88
  Q 89.40 219.08 89.47 218.71
  L 89.62 217.94
  Q 89.78 217.13 89.29 217.79
  Q 88.81 218.43 88.50 218.50
  Q 87.79 218.66 87.47 218.20
  Q 87.13 217.74 87.54 217.34
  L 88.42 216.46
  A 0.33 0.33 0.0 0 0 88.31 215.92
  L 87.01 215.42
  Q 86.16 215.08 86.74 214.38
  Q 87.26 213.75 88.09 214.07
  A 0.94 0.94 0.0 0 0 89.32 212.90
  L 87.60 207.82
  Q 87.43 207.31 87.85 206.96
  L 91.91 203.62
  A 0.54 0.53 -32.1 0 1 92.74 203.81
  L 94.98 208.74
  A 0.69 0.69 0.0 0 1 94.83 209.52
  Q 93.91 210.38 93.14 211.42
  Z
  M 91.45 208.18
  L 92.31 208.50
  Q 93.47 208.93 92.81 207.89
  L 91.91 206.48
  A 0.61 0.61 0.0 0 0 90.98 206.37
  Q 89.28 207.98 89.81 210.35
  A 1.14 1.14 0.0 0 0 91.93 210.62
  L 92.42 209.67
  Q 92.56 209.40 92.26 209.42
  L 90.43 209.50
  A 0.56 0.56 0.0 0 1 90.12 208.46
  L 90.43 208.27
  Q 90.92 207.99 91.45 208.18
  Z"
/>
</svg>
